<svg xmlns="http://www.w3.org/2000/svg" width="322.637" height="149.637" viewBox="0 0 322.637 149.637">
  <g id="bt-free" transform="translate(15 12)">
    <rect id="Rectangle_439" data-name="Rectangle 439" width="295" height="122" rx="61" transform="translate(-3)" fill="#f7f7f7"/>
    <path id="Subtraction_8" data-name="Subtraction 8" d="M1163.991-4204.758a61.4,61.4,0,0,1-10.291-9.526,61.162,61.162,0,0,1-7.883-11.669,60.673,60.673,0,0,1-5.041-13.38A61.279,61.279,0,0,1,1139-4254a60.621,60.621,0,0,1,4.794-23.744,61.014,61.014,0,0,1,5.624-10.361,61.447,61.447,0,0,1,7.449-9.028,61.433,61.433,0,0,1,9.028-7.449,61.019,61.019,0,0,1,10.362-5.624A60.622,60.622,0,0,1,1200-4315h173a60.579,60.579,0,0,1,24.321,5.041,61.018,61.018,0,0,1,10.552,5.9,61.458,61.458,0,0,1,9.126,7.806,60.743,60.743,0,0,0-16.735-8.646A60.928,60.928,0,0,0,1381-4308H1208a60.621,60.621,0,0,0-23.744,4.793,61,61,0,0,0-10.362,5.625,61.424,61.424,0,0,0-9.028,7.448,61.443,61.443,0,0,0-7.449,9.028,60.992,60.992,0,0,0-5.624,10.362A60.617,60.617,0,0,0,1147-4247a60.655,60.655,0,0,0,4.552,23.164,60.8,60.8,0,0,0,12.44,19.078Z" transform="translate(1431 -4193) rotate(180)" fill="#c9cbcc"/>
  </g>
</svg>
