<svg xmlns="http://www.w3.org/2000/svg" width="1251.801" height="977.162" viewBox="0 0 1251.801 977.162">
  <g id="Group_246" data-name="Group 246" transform="translate(-1.354 -1.267)">
    <path id="round5" d="M14.272,399.681C51.443,255.476,163.81,178.11,231.311,131.636,445.016-15.5,683.236-3.437,777.644,6.783c43.942,7.13,266.257,47.772,391.9,247.429,27.337,43.44,114.556,182.035,72.2,327.246C1199.3,726.967,1041.969,826.914,984.2,863.611c-2.087,1.326-4.878,2.957-8.6,5.379-34.577,22.516-318.225,196.874-602.722,53.243-3.811-1.924-7.628-3.8-11.513-5.568-107.089-48.683-285-140.2-341.742-305.333C-13.92,513.7,7.731,425.054,14.272,399.681Z" transform="translate(0 0)" fill="#fff" opacity="0.8"/>
    <path id="round4" d="M163.343,387.617C193.613,269.95,285.121,206.822,340.091,168.9,514.122,48.84,708.117,58.683,785,67.022c35.784,5.817,216.828,38.978,319.146,201.891,22.263,35.446,93.288,148.535,58.793,267.023-34.568,118.731-162.689,200.285-209.731,230.228-1.7,1.083-3.973,2.412-7,4.39C918.046,788.927,687.055,931.2,455.374,814c-3.1-1.57-6.211-3.1-9.376-4.542-87.209-39.723-232.09-114.393-278.3-249.14C140.383,480.656,158.016,408.322,163.343,387.617Z" transform="translate(73.23 29.615)" fill="#fff" stroke="#c9cbcc" stroke-miterlimit="10" stroke-width="1" opacity="0.8"/>
    <path id="round3" d="M399.758,633.415C364.419,610.59,312.425,577.008,290.45,520.4c-12.977-33.427-14-92.873-9.157-112.214,5.148-20.558,14.225-69.683,52.608-114.1,6.754-7.816,16.176-17.6,35.95-33.252,0,0,123.063-97.421,267.679-115.469,19.068-2.38,37.78-3.139,37.78-3.139s18.444-.749,36.753.015c159.36,6.655,248.192,89.13,248.192,89.13,34.525,32.053,59.271,71.356,88.562,117.882a205.133,205.133,0,0,1,12.922,23.236c3.629,7.714,24.048,52.454,19.061,101.957-7.036,69.815-61.181,115.089-91.02,140.041-32.218,26.938-73.507,48.364-73.507,48.364s-1.2.62-2.336,1.2A499.061,499.061,0,0,1,502.1,684.19a755.856,755.856,0,0,1-70.784-32.4C424.688,648.336,413.418,642.237,399.758,633.415Z" transform="translate(134.051 67.993)" fill="#fff" stroke="#c9cbcc" stroke-miterlimit="10" stroke-width="1" opacity="0.6"/>
    <path id="round2" d="M509.832,554.8c-10.147-7.057-96.657-69.727-90.447-150.946,4.66-60.934,60.733-102.781,75.793-114.327,1.807-1.386,3.192-2.388,5.964-4.394,45.848-33.2,107.7-76.89,185.744-79.843,7.552-.285,13.492,1.363,25.311.5,74.331-5.413,149.448,17.186,206.481,88.329,60.256,75.158,102.744,96.9,17.311,218.861C854.083,629.9,772.655,619.073,763.861,617.51c-.964-.172-1.943-.319-2.912-.458-101.127-14.6-174.374-30.6-195.53-36.981a235.7,235.7,0,0,1-54.739-24.712S510.24,555.085,509.832,554.8Z" transform="translate(201.951 98.512)" fill="#fff" stroke="rgba(201,203,204,0.83)" stroke-miterlimit="10" stroke-width="1" opacity="0.67"/>
    <path id="round1" d="M507.458,297.1c21.929-19.675,49.241-38.5,81.2-49.546a139.052,139.052,0,0,1,40.158-7.328c46.651-1.774,165.049,4.8,234.275,107.774,2.339,3.479,4.7,6.944,7.259,10.263,10.8,14.008,46.912,75.534-58.64,171.277q-2.27,2.056-4.44,4.223c-10.4,10.338-76.29,66.326-236.069,9.387q-4.37-1.558-8.83-2.854c-1.16-.335-2.575-.766-4.215-1.3C453.876,504.991,425.822,370.344,507.458,297.1Z" transform="translate(221.741 115.42)" fill="#c9cbcc" opacity="0.25"/>
  </g>
</svg>
