<svg xmlns="http://www.w3.org/2000/svg" width="1033.079" height="808.232" viewBox="0 0 1033.079 808.232">
  <g id="Group_245" data-name="Group 245" transform="translate(-152.312 -61.979)">
    <path id="round4" d="M163.473,391.633C194.117,272.512,286.755,208.605,342.4,170.215,518.586,48.671,714.977,58.636,792.807,67.077c36.226,5.889,219.507,39.46,323.089,204.385,22.538,35.884,94.44,150.37,59.519,270.322-34.995,120.2-164.7,202.759-212.322,233.073-1.721,1.1-4.022,2.442-7.09,4.444-28.5,18.6-262.348,162.629-496.891,43.983-3.142-1.589-6.288-3.139-9.491-4.6-88.286-40.214-234.957-115.806-281.735-252.217C140.229,485.821,158.08,412.594,163.473,391.633Z" transform="translate(0 0)" fill="#fff" stroke="#c9cbcc" stroke-miterlimit="10" stroke-width="1" opacity="0.8"/>
    <path id="round3" d="M401.254,639.487c-35.776-23.107-88.412-57.1-110.658-114.407-13.138-33.84-14.174-94.02-9.271-113.6,5.211-20.812,14.4-70.544,53.258-115.509,6.838-7.913,16.376-17.814,36.395-33.663,0,0,124.583-98.624,270.985-116.9,19.3-2.409,38.246-3.178,38.246-3.178s18.672-.758,37.207.015c161.329,6.737,251.258,90.231,251.258,90.231,34.951,32.449,60,72.238,89.656,119.339a207.678,207.678,0,0,1,13.082,23.523c3.673,7.809,24.345,53.1,19.3,103.217-7.123,70.677-61.937,116.511-92.144,141.771-32.616,27.271-74.415,48.961-74.415,48.961s-1.215.628-2.365,1.218a505.226,505.226,0,0,1-416.927,20.379,765.184,765.184,0,0,1-71.658-32.8C426.492,654.592,415.083,648.418,401.254,639.487Z" transform="translate(63.127 39.833)" fill="#fff" stroke="#c9cbcc" stroke-miterlimit="10" stroke-width="1" opacity="0.6"/>
    <path id="round2" d="M510.953,559.123c-10.272-7.144-97.851-70.589-91.564-152.811,4.717-61.686,61.483-104.05,76.73-115.739,1.829-1.4,3.232-2.418,6.037-4.448,46.414-33.609,109.027-77.84,188.038-80.83,7.646-.288,13.659,1.38,25.624.509,75.249-5.48,151.294,17.4,209.032,89.42,61,76.087,104.013,98.1,17.524,221.564C859.457,635.152,777.023,624.188,768.121,622.6c-.976-.174-1.967-.323-2.948-.464C662.8,607.357,588.644,591.166,567.227,584.7a238.606,238.606,0,0,1-55.415-25.017S511.366,559.409,510.953,559.123Z" transform="translate(133.6 71.509)" fill="#fff" stroke="rgba(201,203,204,0.83)" stroke-miterlimit="10" stroke-width="1" opacity="0.67"/>
    <path id="round1" d="M508.044,297.8c22.2-19.918,49.849-38.981,82.2-50.158a140.769,140.769,0,0,1,40.654-7.419c47.227-1.8,167.088,4.863,237.169,109.105,2.368,3.522,4.756,7.03,7.348,10.389,10.933,14.181,47.491,76.467-59.364,173.393q-2.3,2.082-4.495,4.276c-10.526,10.466-77.233,67.145-238.985,9.5q-4.424-1.577-8.939-2.889c-1.174-.339-2.607-.775-4.267-1.316C453.8,508.264,425.4,371.954,508.044,297.8Z" transform="translate(154.14 89.058)" fill="#c9cbcc" opacity="0.25"/>
  </g>
</svg>
