<svg xmlns="http://www.w3.org/2000/svg" width="1013.643" height="793.33" viewBox="0 0 1013.643 793.33">
  <g id="Group_244" data-name="Group 244" transform="translate(-151.835 -59.813)">
    <path id="Path_194" data-name="Path 194" d="M509.093,551.946c-98.138-64.8-89.755-149.792-89.755-149.792,4.624-60.47,60.269-101.995,75.215-113.453,1.506-1.156,2.977-2.223,5.917-4.361,2.59-1.886,25.185-18.351,44.09-30.091,2.634-1.636,27.218-16.8,52.5-27.374,47.872-20.028,91.977-20.929,112.848-21.269,32.695-.531,76.92-1.182,125.185,22.537,28.826,14.167,55.866,35.364,79.719,65.118,59.794,74.584,101.958,96.164,17.178,217.187C850.713,626.474,769.909,615.725,761.18,614.173c-.955-.171-1.927-.316-2.888-.455-100.354-14.491-173.041-30.363-194.036-36.7-11.659-3.519-32.012-9.964-54.32-24.521Z" transform="translate(125.758 68.276)" fill="none" stroke="rgba(201,203,204,0.83)" stroke-linecap="round" stroke-miterlimit="10" stroke-width="2" opacity="0.67"/>
    <path id="Path_195" data-name="Path 195" d="M520.549,295.343c21.761-19.526,48.867-38.213,80.579-49.172A137.944,137.944,0,0,1,640.98,238.9c46.3-1.762,163.8,4.767,232.5,106.956,2.32,3.451,4.662,6.891,7.2,10.185,10.719,13.9,46.557,74.961-58.2,169.976q-2.25,2.043-4.406,4.191c-10.319,10.261-75.71,65.824-234.278,9.318q-4.337-1.546-8.763-2.833c-1.15-.334-2.556-.76-4.181-1.291C467.374,501.66,439.533,368.035,520.549,295.343Z" transform="translate(151.395 83.972)" fill="#9fa2a3" opacity="0.25"/>
    <path id="Path_196" data-name="Path 196" d="M399.354,629.685c-35.22-22.651-87.039-55.981-108.942-112.156-12.933-33.173-13.955-92.168-9.129-111.363,5.131-20.4,14.175-69.153,52.427-113.232,6.731-7.756,16.121-17.462,35.829-33,0,0,122.643-96.679,266.77-114.585,19-2.36,37.652-3.114,37.652-3.114s18.38-.743,36.629.016c158.821,6.609,247.356,88.459,247.356,88.459,34.409,31.812,59.073,70.818,88.266,116.991a203.589,203.589,0,0,1,12.879,23.059c3.616,7.656,23.969,52.056,19,101.185-7.009,69.285-60.97,114.214-90.707,138.975-32.109,26.732-73.259,48-73.259,48s-1.194.614-2.328,1.192a499.279,499.279,0,0,1-410.447,19.968A755.539,755.539,0,0,1,430.8,647.926C424.2,644.494,412.968,638.442,399.354,629.685Z" transform="translate(59.395 38.276)" fill="none" stroke="#c9cbcc" stroke-miterlimit="10" stroke-width="2" opacity="0.6"/>
    <path id="Path_197" data-name="Path 197" d="M163.284,383.484c30.038-116.775,120.841-179.423,175.389-217.057C511.366,47.277,703.87,57.046,780.16,65.319,815.67,71.093,995.319,104,1096.852,265.68c22.091,35.177,92.571,147.407,58.339,265-34.3,117.83-161.437,198.767-208.117,228.482-1.689,1.075-3.943,2.4-6.95,4.358-27.941,18.232-257.156,159.424-487.054,43.117-3.08-1.558-6.164-3.078-9.3-4.508C357.23,762.7,213.461,688.6,167.608,554.875,140.5,475.817,158,404.03,163.284,383.484Z" transform="translate(0 0)" fill="none" stroke="#c9cbcc" stroke-miterlimit="10" stroke-width="2" opacity="0.8"/>
  </g>
</svg>
