<svg xmlns="http://www.w3.org/2000/svg" width="16" height="18.651" viewBox="0 0 16 18.651">
  <path id="message" d="M15.714,3.627A31.133,31.133,0,0,1,16,7.426a25.927,25.927,0,0,1-.286,3.627,4.628,4.628,0,0,1-1,2.072,2.58,2.58,0,0,1-1.857,1.036A29.1,29.1,0,0,1,9,14.506L5.571,18.478a.47.47,0,0,1-.429.173H4.857c-.286-.173-.286-.345-.286-.691V14.506l-1.429-.173a3.818,3.818,0,0,1-1.857-1.209A4.155,4.155,0,0,1,.143,11.052,32.277,32.277,0,0,1,0,7.253a32.277,32.277,0,0,1,.143-3.8A3.3,3.3,0,0,1,1.286,1.382,2.58,2.58,0,0,1,3.143.345C4.857.173,6.429,0,8,0s3.143.173,4.857.345a2.98,2.98,0,0,1,1.857,1.036A3.509,3.509,0,0,1,15.714,3.627Z" fill="#002f6c"/>
</svg>
