<svg xmlns="http://www.w3.org/2000/svg" width="16" height="19.342" viewBox="0 0 16 19.342">
  <path id="tel_Icon" d="M9.286,13.815,11,11.916a.47.47,0,0,1,.429-.173l.286.173,4,2.245c.286.173.286.345.286.691a4.819,4.819,0,0,1-1.143,3.108,3.741,3.741,0,0,1-3,1.382,7.525,7.525,0,0,1-4-1.209,19.247,19.247,0,0,1-4-3.454,30.339,30.339,0,0,1-2.143-3.8A26.551,26.551,0,0,1,.286,7.08,12.756,12.756,0,0,1,0,3.8a4.991,4.991,0,0,1,1-2.59A3.951,3.951,0,0,1,3.714,0a.711.711,0,0,1,.571.345L6.429,5.181a.648.648,0,0,0,.143.345.723.723,0,0,1-.143.518L4.571,8.117a.906.906,0,0,0,0,.863,16.626,16.626,0,0,0,1.714,2.763,15.364,15.364,0,0,0,2.286,2.245C8.857,14.161,9.143,14.161,9.286,13.815Z" fill="#002f6c"/>
</svg>
