<?xml version="1.0" standalone="no"?>
<!DOCTYPE svg PUBLIC "-//W3C//DTD SVG 1.1//EN" "http://www.w3.org/Graphics/SVG/1.1/DTD/svg11.dtd" >
<svg xmlns="http://www.w3.org/2000/svg" xmlns:xlink="http://www.w3.org/1999/xlink" version="1.1">
<metadata>
Created by FontForge 20170731 at Sat Sep 28 01:18:42 2013
 By Aleksey,,,
Created by MyScriptFont.com
</metadata>
<defs>
<font id="HollySharpie" horiz-adv-x="10" >
  <font-face 
    font-family="HollySharpie"
    font-weight="500"
    font-stretch="normal"
    units-per-em="1000"
    panose-1="2 0 6 3 0 0 0 0 0 0"
    ascent="800"
    descent="-200"
    x-height="482"
    cap-height="617.5"
    bbox="8.77519 -200 832 800"
    underline-thickness="50"
    underline-position="-200"
    unicode-range="U+0020-20AC"
  />
<missing-glyph horiz-adv-x="364" 
d="M33 0v666h265v-666h-265zM66 33h199v600h-199v-600z" />
    <glyph glyph-name=".notdef" horiz-adv-x="364" 
d="M33 0v666h265v-666h-265zM66 33h199v600h-199v-600z" />
    <glyph glyph-name=".null" horiz-adv-x="0" 
 />
    <glyph glyph-name="nonmarkingreturn" horiz-adv-x="333" 
 />
    <glyph glyph-name="space" unicode=" " horiz-adv-x="420" 
 />
    <glyph glyph-name="exclam" unicode="!" horiz-adv-x="222" 
d="M23 138q24 36 51.5 21.5t29.5 -63.5q1 -23 -4 -32.5t-20 -17.5q-25 -13 -45.5 0t-23.5 38.5t12 53.5zM152 629q19 25 27.5 27.5t21.5 -13.5t10 -48.5t-28 -127.5q-19 -70 -29 -105.5t-19.5 -58t-17 -28t-18.5 -5.5q-16 0 -20.5 7.5t-7.5 37.5q-4 62 23 167t58 147z" />
    <glyph glyph-name="numbersign" unicode="#" horiz-adv-x="819" 
d="M288 634q17 22 23 23.5t26 -9.5q18 -10 19.5 -38t-6.5 -57t-15 -57.5t-4 -36.5q5 -13 64 -13t71 13q7 7 8.5 16.5t8 33.5t24.5 59q19 38 28.5 46.5t33.5 8.5t30 -5t8 -28q2 -21 -6.5 -55t-14.5 -59t0 -31t65 -21t110.5 -35.5t47.5 -41.5q-4 -18 -53 -24.5t-121 1.5
q-80 9 -89 4q-13 -8 10 -23q15 -10 33 -14l60 -12q30 -6 41 -20q7 -9 3.5 -14t-19.5 -11q-32 -13 -76 -20t-60 -3q-37 10 -61 -101q-13 -59 -38 -75q-42 -28 -52 32q-4 22 -4 58l-1 74l-64 -2q-54 -1 -72.5 -11.5t-25.5 -45.5q-6 -31 -21 -64.5t-23 -33.5q-16 0 -27 27
t-14 72l-6 67l-45 13q-45 13 -54 23q-6 5 -9 31.5t-6 71.5t-4 59q-2 18 7 21q10 5 88 7q97 3 107 15q5 8 32.5 86.5t42.5 98.5zM165 325q0 10 -10.5 10t-10.5 -10t10.5 -10t10.5 10zM422 320q0 11 -62 14t-68 -8q-7 -11 7 -16q17 -7 70 -2.5t53 12.5z" />
    <glyph glyph-name="dollar" unicode="$" horiz-adv-x="566" 
d="M356 648q7 0 45 -30t46 -30q12 0 51.5 -20t52.5 -56.5t-6 -73.5q-16 -31 -41 -33t-36 28q-11 29 -33 51.5t-40 22.5t-50 -65l-32 -64l57 -62q48 -51 59.5 -79.5t3.5 -76.5q-6 -45 -48 -92q-35 -41 -77.5 -62t-102.5 -29q-33 -4 -49.5 -12t-31.5 -27q-23 -26 -36.5 -22
t-13.5 39q0 18 -9.5 33t-21 23.5t-21.5 23t-11 33.5q-2 22 4 25.5t42 1.5q28 -2 38 0.5t10 12.5q0 8 3 17.5t12 32t18 51.5q10 31 20.5 61.5t14.5 43l8 25t2.5 19.5t-3.5 14t-8 20q-17 35 -16.5 79t16.5 63q13 14 37.5 23t53.5 21.5t51 35.5q32 34 42 34zM317 237
q-22 28 -35 28q-8 0 -20.5 -23t-26.5 -57t-20 -44q-9 -17 -9 -32.5t10 -15.5q20 0 52.5 19t46.5 40q20 28 20.5 44t-18.5 41z" />
    <glyph glyph-name="percent" unicode="%" horiz-adv-x="706" 
d="M518 341q23 -4 30 -1.5t12 6.5t9 7.5t19.5 -0.5t43.5 -17q38 -17 51 -38.5t13 -67.5q0 -28 -7 -44.5t-29 -41.5q-24 -26 -56 -41t-111 -36q-16 -5 -48.5 22t-47.5 55q-22 45 -8 93.5t60 83.5q21 16 35 20t34 0zM585 241q0 14 -30 14q-23 0 -48.5 -24.5t-19.5 -40.5
q7 -20 48 0q40 19 48 44q2 4 2 7zM494 570q33 30 56.5 35.5t52.5 -13.5q29 -21 18 -46t-70 -71q-101 -80 -263.5 -245t-203.5 -229q-10 -16 -20.5 -27.5t-14.5 -11.5q-11 0 -25.5 39.5t-9.5 58.5q9 37 150.5 195t233.5 234q71 58 96 81zM78 595q46 39 72 8q13 -15 36 -9
q22 5 69.5 -21.5t56.5 -49.5q19 -51 -24 -108.5t-117 -80.5q-60 -19 -92.5 -9t-54.5 54q-24 48 -8 113t62 103zM190 471q17 20 -11 20q-8 0 -21 -2q-22 -3 -41 -24t-8 -32q7 -7 37 6.5t44 31.5z" />
    <glyph glyph-name="ampersand" unicode="&#x26;" horiz-adv-x="517" 
d="M174 558l47 43l68 -5q68 -5 107 -24q34 -17 52 -46t6 -48q-7 -11 -109 -73.5t-104 -74.5q-4 -16 8 -50t24 -45q11 -9 65 11t106.5 37t61.5 3q8 -14 -23.5 -55.5t-66.5 -61.5q-26 -16 -33.5 -24.5t-1.5 -16.5t31 -20q18 -10 23.5 -18.5t3.5 -24.5q-6 -56 -106 -7
q-43 21 -56.5 22.5t-52.5 -11.5q-175 -55 -208 66q-15 54 5.5 115t71.5 118q23 25 29 40.5t6 51.5q0 39 6.5 53t39.5 45zM198 186q0 10 -16.5 34t-29.5 24q-12 0 -23 -19t-11.5 -37.5t9.5 -28.5q9 -5 40 6.5t31 20.5z" />
    <glyph glyph-name="quotesingle" unicode="'" horiz-adv-x="177" 
d="M88 585q19 20 26.5 21t29.5 -14q23 -15 23 -47q0 -25 -32.5 -88t-57.5 -85q-16 -14 -22 -13.5t-24 17.5q-15 14 -19 24.5t0 29.5q6 31 31 82t45 73z" />
    <glyph glyph-name="parenleft" unicode="(" horiz-adv-x="445" 
d="M293 630q82 49 123 12q18 -17 18.5 -45.5t-17.5 -34.5q-78 -23 -149 -94.5t-114 -167.5t-43 -187q0 -35 5.5 -52t26.5 -42q13 -16 29.5 -30.5t26.5 -17.5q33 -13 21 -30q-11 -16 -49 -18q-32 -2 -46 4.5t-46 38.5q-38 38 -53.5 81.5t-15.5 112.5t42.5 165t109 181.5
t131.5 123.5z" />
    <glyph glyph-name="parenright" unicode=")" horiz-adv-x="361" 
d="M214 642q7 18 27 15.5t39 -23.5q39 -41 58 -131.5t11.5 -193.5t-38.5 -177q-19 -44 -76 -115.5t-101 -106.5q-45 -36 -82 -39t-42 29q-2 16 16 39t48 53t62 66.5t62 91.5t43 116q14 60 8.5 173.5t-23.5 149.5q-18 37 -12 53z" />
    <glyph glyph-name="asterisk" unicode="*" horiz-adv-x="306" 
d="M35 588q13 0 26.5 10.5t23 20t27.5 8t42 -22.5q19 -16 27.5 -17.5t23.5 7.5q21 11 45 5.5t38.5 -23t1.5 -33.5q-12 -14 -5 -39q4 -16 -3.5 -28.5t-19.5 -19.5t-22.5 -20t-10.5 -30q0 -39 -24.5 -47.5t-54.5 19.5q-24 23 -61 23q-22 0 -32.5 6.5t-23.5 27.5
q-13 23 -13.5 31t10.5 18.5t10 17.5t-15 26q-18 24 -15 42t25 18z" />
    <glyph glyph-name="plus" unicode="+" horiz-adv-x="401" 
d="M167 570q33 37 70 -3q11 -13 15 -33t4 -66v-77l63 -3q64 -3 70 -18q7 -18 -13 -32t-69 -25l-59 -13l-17 -84q-8 -35 -17.5 -64.5t-16.5 -35.5q-11 -11 -18 -10.5t-25 12.5q-19 12 -22.5 25t-0.5 65l4 72l-41 5q-46 7 -66 21t-18 37q2 19 11.5 24t49.5 7q56 2 70 20t12 86
q-2 72 14 90z" />
    <glyph glyph-name="comma" unicode="," horiz-adv-x="174" 
d="M72 141q4 13 23 12t39 -14q53 -38 13 -147q-32 -87 -79 -114q-35 -20 -53 14q-9 17 1 44.5t27 68.5t21 77q4 46 8 59z" />
    <glyph glyph-name="hyphen" unicode="-" horiz-adv-x="430" 
d="M12 312q4 12 29 12.5t54 -9.5q28 -11 146 -21q169 -15 178 -36q6 -12 -30 -34q-20 -12 -43 -16t-70 -4q-63 0 -136 10t-96 22q-16 9 -27 35t-5 41z" />
    <glyph glyph-name="period" unicode="." horiz-adv-x="120" 
d="M17 136q11 12 36.5 3.5t41.5 -29.5q14 -20 14.5 -26.5t-12.5 -20.5q-16 -18 -38.5 -20.5t-36.5 12.5q-10 9 -12 41t7 40z" />
    <glyph glyph-name="slash" unicode="/" horiz-adv-x="484" 
d="M165 314q8 11 38 56t56.5 84t57.5 81.5t54 67.5t33 25q12 0 25.5 -7t23 -18t16 -22.5t5.5 -22t-10 -16.5q-18 -11 -140 -185.5t-122 -188.5q0 -4 -2.5 -7.5t-9 -11.5t-14.5 -18.5t-21.5 -32.5t-28.5 -51q-32 -59 -54.5 -87.5t-33.5 -21.5q-7 4 -5 27t12 49q3 8 2 13
t-5.5 5t-8 -4.5t-3.5 -10.5t-3 -10.5t-7 -4.5q-33 0 42 139q52 98 103 173z" />
    <glyph glyph-name="zero" unicode="0" horiz-adv-x="338" 
d="M197 512q26 13 31.5 13.5t28.5 -8.5q10 -4 18 -12t8 -15q0 -17 23 -42q14 -15 18 -32.5t4 -62.5q-1 -87 -36.5 -149t-114.5 -114q-35 -24 -67.5 -26t-54 15.5t-34.5 48t-11 74t19 91.5q29 78 72.5 135t95.5 84zM251 377q-4 32 -15.5 35t-35.5 -23q-37 -40 -68 -114
t-17 -88q6 -6 47 22q37 26 64.5 78.5t24.5 89.5z" />
    <glyph glyph-name="one" unicode="1" horiz-adv-x="228" 
d="M136 572q9 8 30 5t35 -16q16 -14 17 -34.5t-6.5 -46t-20.5 -89t-21 -136.5q-19 -187 -28 -207q-7 -12 -23 -14q-26 -3 -45 18q-13 15 -14 37t7 113q12 128 14.5 148.5t-21.5 23.5q-19 3 -37 27t-12 39q4 10 34 31t57 42t27 33q0 19 7 26z" />
    <glyph glyph-name="two" unicode="2" horiz-adv-x="420" 
d="M259 555q37 13 51 11t34 -23q20 -19 33 -57.5t13 -77.5q0 -23 -25 -78t-53 -94q-12 -17 -8 -22q6 -6 63 -20q24 -6 33.5 -13t9.5 -18q0 -24 -40 -31t-163 -5q-109 2 -134 6t-43 22q-37 36 -9.5 63.5t91.5 18.5q32 -4 45.5 2t50.5 42t66.5 93.5t15.5 66.5q-8 4 -45 -22
q-23 -16 -33 -18.5t-19 5.5q-13 11 -13 33t10 45t28.5 43t40.5 28z" />
    <glyph glyph-name="three" unicode="3" horiz-adv-x="402" 
d="M130 519q26 8 83.5 2.5t89.5 -19.5q58 -24 80 -80.5t-12 -92.5l-20 -22l20 -34q21 -34 21 -65q0 -29 -23.5 -56.5t-54.5 -33.5q-7 -2 -35.5 -9t-44.5 -9t-45 -3t-60.5 7.5t-67.5 24.5q-29 13 -40.5 23t-10.5 19q2 12 17 14.5t68 -0.5q62 -2 129 12t67 30q0 15 -23.5 26
t-56.5 11q-37 0 -64.5 19t-27.5 44q0 18 20.5 28t75.5 20q60 11 69 20q14 14 -24 24q-32 8 -77 5q-46 -2 -58 1.5t-24 23.5q-15 25 -7 43.5t36 26.5z" />
    <glyph glyph-name="four" unicode="4" horiz-adv-x="353" 
d="M120 560q19 31 33 35.5t36 -11.5q15 -10 18 -41.5t-7 -62.5q-5 -15 -2.5 -17.5t15.5 0.5q22 6 37 -7.5t15 -39.5q0 -21 -30 -89t-27 -78q5 -11 66 -9t68 -8q6 -11 -22 -35t-69 -44t-66 -20q-18 0 -27.5 -6.5t-19.5 -25.5q-32 -63 -68 -76q-24 -9 -32 16q-6 20 5 68
q7 33 5.5 45.5t-17.5 34.5q-23 30 -21 73.5t28 120.5q22 63 38 97.5t44 79.5z" />
    <glyph glyph-name="five" unicode="5" horiz-adv-x="545" 
d="M256 545q16 27 29.5 31t27.5 -13q12 -16 87 -16q59 0 97 -12.5t38 -31.5q0 -17 -21.5 -27t-88.5 -23q-86 -18 -104 -34t-49 -73q-19 -35 -23.5 -54t-1.5 -48q16 -122 12 -138q-3 -9 -15 -21q-22 -22 -62.5 -26.5t-78 5.5t-65.5 33.5t-28 51.5q0 26 16.5 31t38.5 -15
q13 -12 25 -15t34 1q36 5 41.5 15t-8.5 38q-15 29 -14.5 60t18.5 76q17 47 46 109.5t49 95.5z" />
    <glyph glyph-name="six" unicode="6" horiz-adv-x="328" 
d="M184 697q10 13 20.5 11t28.5 -20q21 -21 14 -58.5t-46.5 -113.5t-39.5 -81.5t47 -10.5q64 -7 94 -55.5t7 -107.5q-18 -46 -45 -66.5t-89 -35.5q-60 -14 -87.5 -8.5t-56.5 36.5q-17 18 -19.5 33.5t1.5 66.5q3 39 13 72.5t22 58.5t42 86t56 119q27 61 38 74zM236 316
q-3 6 -26.5 7.5t-50 -2t-48 -17t-21.5 -34.5q0 -25 11 -29t53 5q35 7 63 31.5t19 38.5z" />
    <glyph glyph-name="seven" unicode="7" horiz-adv-x="352" 
d="M241 629q20 11 42.5 8t38.5 -19t19.5 -46.5t-9.5 -39.5q-16 -10 -88 -131t-121 -220q-14 -28 -27 -48t-17 -20q-17 0 -33.5 14t-25.5 36q-9 21 -4 38t38 76l91 157q12 20 21.5 37t14 27t2.5 10h-47.5t-60 0.5t-49 16t-15.5 45.5q2 14 9.5 19t28.5 6q44 3 112 15t80 19z
" />
    <glyph glyph-name="eight" unicode="8" horiz-adv-x="479" 
d="M178 570q48 19 122 26q16 2 50.5 -21.5t52.5 -48.5q8 -12 18.5 -20.5t16.5 -8.5q14 0 25 -21.5t2 -31.5q-7 -6 -103.5 -28.5t-121.5 -40.5q-24 -17 -27 -28t2 -61q6 -65 -7.5 -101t-51.5 -54q-78 -37 -123 8q-17 16 -21 27.5t0 32.5q5 35 33 96t45 77q19 17 19 59
t21.5 85t47.5 54zM150 266q0 9 -13 9q-12 0 -26 -26t-7 -33q3 -3 14.5 6.5t21.5 23t10 20.5z" />
    <glyph glyph-name="nine" unicode="9" horiz-adv-x="395" 
d="M171 555q54 36 95 34.5t77 -40.5q35 -37 41 -61q6 -23 -22 -79.5t-65 -93.5q-30 -30 -52 -68.5t-29 -47.5q-22 -26 -51.5 -78.5t-43.5 -89.5q-17 -46 -42 -70l-25 -24l-22 23q-22 22 -22 55q0 27 32 102.5t60 113.5q23 33 22.5 41t-30.5 43q-45 53 -23.5 120.5
t100.5 119.5zM260 468q-7 11 -19 6.5t-40 -29.5q-40 -34 -36 -53q2 -6 11 -6q12 0 50.5 37t33.5 45z" />
    <glyph glyph-name="colon" unicode=":" horiz-adv-x="228" 
d="M22 141.5q12 12.5 41 12.5q18 0 32 -11t19 -26t4.5 -31t-11 -28t-28.5 -14t-34.5 8.5t-25.5 26t-9 33t12 30zM121 421q11 13 17.5 14.5t31.5 -5.5q9 -3 20.5 -13.5t17.5 -23.5q10 -20 10 -28t-12 -21q-18 -20 -49 -17q-20 2 -27 9t-13 32q-9 37 4 53z" />
    <glyph glyph-name="semicolon" unicode=";" horiz-adv-x="264" 
d="M39 130q5 15 36.5 12.5t48.5 -19.5q18 -18 19 -38t-15 -73q-16 -54 -32.5 -77.5t-39.5 -23.5q-13 0 -21.5 7.5t-15.5 25.5q-9 21 -9 39.5t10 63.5q15 71 19 83zM159 433q21 15 43.5 12.5t35 -17.5t16 -34.5t-15.5 -39.5q-16 -19 -38 -19q-16 0 -29.5 12t-20 28t-5 32.5
t13.5 25.5z" />
    <glyph glyph-name="less" unicode="&#x3c;" horiz-adv-x="540" 
d="M351 575q42 43 72 -2q20 -30 16 -44q-7 -23 -87 -75q-40 -25 -178 -107q-27 -17 -27 -29q0 -15 87.5 -52t182 -73.5t104.5 -45.5q10 -10 9.5 -14.5t-13.5 -14.5q-54 -40 -239 32q-129 51 -188.5 87.5t-74.5 74.5q-13 33 10 58t107 72l152 85q45 26 67 48z" />
    <glyph glyph-name="equal" unicode="=" horiz-adv-x="534" 
d="M90 261q54 12 196 10.5t165 -14.5q42 -23 9 -50q-35 -29 -120 -37q-56 -5 -141 -14q-136 -14 -161 -7q-25 6 -28 38v13q0 29 12 38.5t68 22.5zM73 404q26 22 235 17q207 -4 215 -46q6 -33 -75 -51t-231 -19q-74 0 -96 3.5t-37 18.5q-19 18 -22.5 41.5t11.5 35.5z" />
    <glyph glyph-name="greater" unicode="&#x3e;" horiz-adv-x="490" 
d="M71 507q0 39 19.5 40t62.5 -29q32 -21 92.5 -47t125.5 -45q42 -13 78 -42q23 -19 28 -29t1 -28q-6 -27 -30 -58q-30 -40 -192.5 -133.5t-202.5 -93.5q-16 0 -29.5 11.5t-13.5 25.5q0 13 62.5 60t132.5 87q49 27 83 50t48.5 39.5t7.5 22.5q-7 8 -53 24.5t-94 33.5t-87 47
t-39 64z" />
    <glyph glyph-name="question" unicode="?" horiz-adv-x="346" 
d="M26 30q16 22 31 20.5t43 -27.5q20 -18 24 -28t-1 -24q-10 -26 -37.5 -34t-51.5 4.5t-24 38.5q0 28 16 50zM134 617q65 14 99 9.5t65 -31.5q25 -22 31.5 -35.5t6.5 -43.5q0 -52 -29.5 -104.5t-93.5 -116.5q-50 -49 -63.5 -68.5t-13.5 -42.5t-4.5 -29.5t-20.5 -8.5
q-25 -3 -58 18q-22 13 -27.5 24t-5.5 41q0 27 5 39.5t21 23.5q70 49 117 89.5t57 59.5q26 51 28.5 61.5t-9.5 21.5q-14 15 -49 9.5t-62 -26.5q-21 -17 -41.5 -19t-34.5 11q-24 24 5 65.5t77 52.5z" />
    <glyph glyph-name="at" unicode="@" horiz-adv-x="782" 
d="M322 699q57 7 72 4q119 -22 182 -47.5t109 -70.5q40 -39 56.5 -69t26.5 -82q7 -39 2.5 -83t-25.5 -122q-35 -135 -98.5 -187.5t-145.5 -13.5q-23 11 -37.5 10t-57.5 -15q-58 -20 -79 -20t-52 19q-29 18 -46 53t-17 78q0 40 24 101t55 100q21 25 34 33.5t34 8.5
q34 0 44 -19q13 -24 9 -41t-27 -39q-27 -25 -54.5 -75t-27.5 -74q0 -26 16 -35.5t40 1.5t48 39q18 22 48 100t30 106q0 7 7 16.5t18 16.5q17 11 25 11t26 -11q35 -23 39 -48.5t-18 -74.5q-44 -97 -32 -133q8 -23 38 4q44 39 71.5 113t27.5 153q0 48 -5.5 62.5t-32.5 40.5
q-42 41 -116.5 70t-138.5 29q-79 0 -119 -23t-85 -93q-60 -96 -74 -226.5t26 -218.5q18 -40 37.5 -60t77.5 -59q39 -26 87 -41.5t87 -15.5q18 0 48.5 11.5t54.5 22.5t51 15t39 -11q30 -30 -24 -78l-35 -31h-127q-97 0 -131.5 8t-94.5 43q-34 21 -83.5 68.5t-68.5 78.5
q-22 35 -36 87t-14 98q0 57 17 154.5t33 129.5l30 60q72 152 232 172z" />
    <glyph glyph-name="A" unicode="A" horiz-adv-x="518" 
d="M172 483q16 36 33.5 62.5t31.5 40.5t30 23.5t25 11.5t20 3.5t12 2.5q5 1 32 -26q30 -32 54 -89t24 -98q0 -35 5.5 -44t32.5 -22q69 -33 3 -65q-26 -12 -31.5 -24t-9.5 -69q-5 -68 -18.5 -88.5t-44.5 -9.5q-30 12 -38.5 34t1.5 64q10 47 -1 59t-62 8q-60 -5 -79.5 -23
t-35.5 -82q-10 -42 -15.5 -61.5t-13.5 -32t-16 -14t-23 -0.5q-22 3 -27.5 9t-7.5 33q-3 38 13 95q9 30 10 45.5t-5.5 20.5t-15 6t-20 6.5t-19.5 18.5q-13 20 1.5 36.5t49.5 20.5q29 4 40 16q15 16 65 132zM339 360q6 14 -5 72.5t-24 72.5q-9 9 -15 5.5t-19 -24.5
q-19 -31 -36.5 -71.5t-17.5 -54.5q0 -16 55.5 -16t61.5 16z" />
    <glyph glyph-name="B" unicode="B" horiz-adv-x="634" 
d="M171 456q0 23 -6 51t-12 44.5t-8.5 35t5.5 24.5q11 13 51 10.5t84 -18.5q20 -8 65.5 -14.5t89 -11.5t85 -13.5t63 -25t13.5 -40.5q-6 -21 -40 -45.5t-71 -36.5q-41 -12 -76 -28l-35 -15l22 -17q22 -18 72 -24q53 -8 100.5 -40.5t50.5 -63.5q6 -61 -91 -110.5t-247 -60.5
q-68 -5 -84 -20q-36 -32 -76 11q-24 27 -71 56q-37 24 -43.5 45t18.5 35q41 22 73 -7q26 -25 43 16q7 18 15 51q10 47 8.5 58t-21.5 31q-51 54 -2 73q16 6 20.5 15.5t4.5 34.5zM394 487q0 10 -20 10t-26 -10q-4 -6 2 -12t15 -7t18 3q11 7 11 16zM510 223q0 8 -10.5 15
t-34 13t-42 10t-53.5 10t-50 9q-26 6 -33.5 2.5t-15.5 -23.5q-11 -30 -12 -70q-1 -27 3 -34.5t19 -9.5q30 -4 85.5 9.5t99.5 34t44 34.5z" />
    <glyph glyph-name="C" unicode="C" horiz-adv-x="552" 
d="M312 595q70 15 126 -4.5t85 -69.5q18 -29 19.5 -63.5t-12 -58t-36.5 -23.5q-17 0 -27.5 17t-17.5 59q-9 51 -31.5 61t-90.5 -7q-43 -11 -105 -66.5t-88 -107.5q-25 -54 -23 -103t31 -82.5t74 -33.5q41 0 102 17q34 9 74 15t64 6.5t27 -5.5q0 -8 -46 -36.5t-91 -48.5
q-48 -22 -110 -26q-39 -3 -59.5 1t-53.5 20q-80 41 -103 108.5t9 167.5q13 41 29 67t50 61q114 117 204 135z" />
    <glyph glyph-name="D" unicode="D" horiz-adv-x="564" 
d="M21 740q-8 14 -11 26t5.5 23t32.5 11q23 0 49 -21.5t65.5 -60.5t75.5 -63q30 -20 41 -22.5t28 6.5q24 13 47.5 3t31 -32t-3.5 -48q-10 -17 0 -33t65 -73q80 -85 99 -136t-13 -96q-33 -47 -103 -74t-166 -31q-89 -3 -142 17q-47 17 -81 53t-31 66q2 17 10 21t41 3h48v73
q0 112 -23.5 217t-64.5 171zM201 577q-22 12 -27 9t0 -24q1 -5 2.5 -10t2.5 -10.5t1.5 -9t2.5 -9.5q4 -20 6 -28.5t7 -14.5t11.5 0t16.5 22q14 22 8 42t-31 33zM388 403q-54 54 -65 54q-14 0 -55 -110t-34 -129q7 -17 46.5 -13t85.5 25q54 26 72 48.5t6.5 51t-56.5 73.5z
" />
    <glyph glyph-name="E" unicode="E" horiz-adv-x="700" 
d="M58 653q20 20 415 24q130 1 161.5 -1.5t44.5 -16.5q12 -14 10.5 -19t-22.5 -16q-28 -14 -193 -26.5t-172 -15.5q-16 -5 -10.5 -26.5t30.5 -44.5q96 -91 34 -164q-19 -22 -49.5 -36.5t-91.5 -30.5q-30 -7 -36 -15t-8 -42q-2 -28 2 -43t18 -31q17 -19 25.5 -21t33.5 6
q42 15 52 27.5t6 44.5q-6 38 4 44q11 7 45 -30.5t34 -57.5q0 -25 -26 -53t-66.5 -46.5t-68.5 -18.5t-66 17q-46 21 -62.5 47t-25.5 93q-6 48 -13.5 70t-25.5 42q-31 34 -26.5 51t45.5 22l44 5l30 75q11 27 15.5 41t6.5 26t-4 18t-14.5 11t-27.5 11q-28 9 -45 37t-3 43z
M290 434q0 18 -12 30.5t-19 12.5q-17 0 -30.5 -38.5t0.5 -46.5q12 -8 36.5 9t24.5 33z" />
    <glyph glyph-name="F" unicode="F" horiz-adv-x="504" 
d="M224 619q60 15 142.5 2t108.5 -41q27 -30 16 -68q-8 -28 -30 -23q-8 2 -16 9q-18 16 -66 23q-32 4 -42 1.5t-18 -16.5q-13 -24 -30 -90t-13 -74q13 -10 52.5 -6t87 1.5t53.5 -19.5q8 -20 -22 -36.5t-93 -26.5q-38 -6 -55.5 -9.5t-33.5 -8t-23.5 -13.5t-13 -19t-12.5 -30
q-15 -41 -29.5 -59t-27.5 -43q-17 -34 -38 -39.5t-51 14.5q-22 15 -22 44.5t21 65.5l21 36l-35 21q-32 18 -41.5 39.5t5.5 36t50 14.5q60 0 81 25t34 112q5 30 1.5 39t-24.5 20q-36 19 -40.5 41t23 42.5t80.5 34.5z" />
    <glyph glyph-name="G" unicode="G" horiz-adv-x="580" 
d="M296 721q38 18 59 22.5t52 0.5q69 -8 101 -36.5t52 -96.5q11 -37 10.5 -51t-14.5 -45q-13 -30 -28.5 -49t-21.5 -23t-5.5 -11t13.5 -24q15 -19 17.5 -50t-6.5 -71t-20.5 -78.5t-27 -89.5t-23.5 -87.5t-15 -48.5q-9 -14 -28 -10.5t-37 23.5q-16 17 -18.5 29.5t1.5 44.5
q7 48 17 66q13 25 0 23q-12 -2 -51 -31q-70 -50 -144.5 -45.5t-124.5 62.5q-32 38 -40.5 85t4.5 121q17 103 100 213.5t178 156.5zM445 642q-18 16 -39.5 15t-60.5 -20q-80 -39 -168 -159q-44 -60 -63 -132.5t-3 -121.5q6 -18 17.5 -36.5t22.5 -26.5q19 -14 28.5 -14.5
t37.5 11.5q39 16 77 54t38 61q0 25 -11.5 43t-26.5 26.5t-31.5 21.5t-23.5 28q-15 33 9.5 46t108.5 17q96 4 96 8q0 5 -6.5 16t-7.5 20.5t9 33.5q15 30 14.5 61.5t-17.5 47.5zM423 351q-22 26 -35 5q-7 -10 0 -61t15 -51q7 0 20 46q8 27 8 39t-8 22z" />
    <glyph glyph-name="H" unicode="H" horiz-adv-x="593" 
d="M125 673q9 9 37 5.5t37 -14.5q11 -14 11.5 -77t-11.5 -110q-11 -50 -10 -80.5t14 -30.5q18 0 92 27.5t88 39.5q10 10 16.5 24.5t21.5 50t39 77.5q26 47 36.5 57.5t31.5 8.5q37 -4 46 -11.5t9 -34.5q0 -41 -27 -111t-50 -88q-14 -12 -24.5 -35.5t-41.5 -113.5
q-29 -85 -29 -128v-43l50 -7q50 -7 56 -16q4 -8 -9.5 -18.5t-39 -19t-52.5 -10.5q-40 -5 -50 -0.5t-30 33.5q-47 71 -12 189q12 39 6 50t-33 2q-22 -7 -86 -13l-65 -6l-22 -71q-12 -39 -22.5 -57.5t-24.5 -25.5q-16 -8 -24.5 -6t-23.5 16q-20 19 -19 38.5t23 93.5
q13 41 13 54t-13 34q-16 28 -11.5 44t30 16t30.5 9q8 13 22 95t14 114q0 42 7 49z" />
    <glyph glyph-name="I" unicode="I" horiz-adv-x="655" 
d="M139 587q43 4 70 10.5t34.5 11t16 7.5t21.5 1.5t44 -8.5q40 -9 113.5 -15.5t125.5 -14t67 -22.5q14 -14 14 -19.5t-12 -17.5q-10 -10 -38 -14t-106 -5q-127 -2 -137 -12q-5 -5 -12 -39.5t-16.5 -94t-16.5 -94.5q-14 -69 -8 -78q5 -10 36 -9.5t49 10.5q19 10 50 -5t31 -35
q0 -18 -26 -46q-18 -19 -32.5 -22.5t-66.5 -0.5q-46 3 -63 0.5t-32 -15.5q-9 -9 -24.5 -15t-26.5 -6q-29 0 -72 30t-76 72q-45 58 -33 72.5t94 0.5q75 -13 81 -7q12 12 30 141.5t8.5 138t-83.5 -1.5q-49 -6 -65.5 -4.5t-28.5 12.5q-17 15 -18 38.5t15 35.5q14 12 93 20z" />
    <glyph glyph-name="J" unicode="J" horiz-adv-x="842" 
d="M418 716q60 1 143.5 8.5t152 15.5t70.5 8q14 1 31 -20t17 -38q0 -14 -16 -33q-10 -11 -29 -15t-67 -4q-79 0 -84.5 -9t9.5 -37q25 -47 11.5 -73t-73.5 -48l-59 -20l-27 -108q-24 -92 -49 -142.5t-60 -74.5q-37 -25 -71.5 -21.5t-86.5 37.5q-54 37 -89 73t-82 105
q-27 40 -37.5 64t-11.5 47q-1 28 5 37.5t34 22.5q39 19 181 33q74 7 112.5 11.5t63 10t31 11.5t6.5 16q0 12 -13.5 18t-32.5 9.5t-37.5 9.5t-30.5 23t-10 45l3 36zM398 337q0 10 15 51t10 49q-6 9 -23 8q-132 -11 -209 -25.5t-83 -30.5q-2 -5 13.5 -28t38.5 -50
q49 -55 94.5 -79t76.5 -10q18 8 42.5 50.5t24.5 64.5z" />
    <glyph glyph-name="K" unicode="K" horiz-adv-x="693" 
d="M229 733q10 10 30.5 2.5t34.5 -26.5q13 -17 14 -36t-7 -83q-11 -94 -2 -103q11 -11 67 6t133 54q57 27 77.5 33t35.5 -1q20 -9 29.5 -36t-2.5 -45q-8 -13 -132.5 -78t-125.5 -71q-2 -5 45 -30.5t110.5 -57.5t83.5 -44q29 -18 49 -45t12 -39q-10 -16 -69 -4.5t-111 38.5
q-64 34 -148 62q-21 7 -32.5 10.5t-25 6t-19 2.5t-13 -4t-10.5 -8.5t-7 -16.5t-6 -23t-6 -31q-10 -58 -26 -86t-36.5 -25t-43.5 37q-22 31 -70 152t-48 143t21.5 32.5t76.5 16.5q46 4 58.5 9.5t17.5 22.5q10 37 24 121t14 107q0 31 7 38z" />
    <glyph glyph-name="L" unicode="L" horiz-adv-x="484" 
d="M299 670q17 19 30 17t38 -27l28 -29l-31 -102q-20 -70 -43.5 -130t-36 -87.5t-12.5 -35.5q0 -12 41.5 -36.5t88.5 -39.5q38 -13 55 -29.5t17 -41.5q0 -11 -23.5 -14.5t-60.5 1.5t-72 18q-32 10 -49 14.5t-32.5 5.5t-26.5 -7.5t-21.5 -20t-27.5 -35.5q-45 -64 -56 -84
q-10 -17 -37.5 -22t-42.5 8q-17 12 -15 45t14.5 71.5t37 79.5t53.5 70q44 43 75.5 107.5t60.5 169.5q30 115 48 134z" />
    <glyph glyph-name="M" unicode="M" horiz-adv-x="666" 
d="M474 563q5 17 11.5 34t16.5 34t21.5 27t26.5 8.5t30 -18.5q16 -17 12 -54t-36 -158q-34 -125 -26.5 -198.5t53.5 -73.5q19 0 46 -19.5t27 -32.5q0 -10 -32 -24.5t-53 -14.5q-27 0 -60 14q-24 10 -40.5 39t-40.5 101q-4 13 -8.5 14t-19.5 -9q-48 -31 -62.5 -35t-42.5 3
q-25 6 -36.5 17t-27.5 45q-26 52 -33 53q-4 0 -17 -40t-31.5 -96.5t-32.5 -85.5q-15 -30 -24.5 -37.5t-28.5 -6.5q-30 3 -43 8q-14 5 -12.5 52.5t16.5 86.5q18 43 79 240q52 170 66 189q8 10 20 11q26 3 44 -17q13 -14 32 -80t30 -133q7 -45 17 -64q6 -12 12.5 -11t28.5 21
q80 67 118 211z" />
    <glyph glyph-name="N" unicode="N" horiz-adv-x="571" 
d="M263 400q0 -29 24 -75t48.5 -78.5t29.5 -32.5q19 0 37.5 81.5t41.5 262.5q6 50 13 71.5t20 32.5q20 17 36 14t34 -28q13 -17 14 -29.5t-5.5 -23t-13.5 -38t-7 -64.5q0 -43 -17 -122.5t-23 -128.5q-11 -78 -38.5 -123.5t-63.5 -45.5q-35 0 -91 65.5t-96 154.5
q-6 14 -14 22.5t-13 7.5q-8 -3 -23.5 -55.5t-35.5 -105.5t-40 -57q-16 -3 -43 8q-16 6 -21.5 15t-5.5 28q0 26 9 59.5t27.5 97t32.5 135.5q11 51 19.5 70.5t25.5 33.5q20 14 28.5 15t27.5 -9q11 -7 22.5 -18.5t16.5 -22.5q44 -88 44 -117z" />
    <glyph glyph-name="O" unicode="O" horiz-adv-x="455" 
d="M224 654q56 37 113 16t91 -91q17 -36 17.5 -121t-16.5 -144q-22 -76 -49.5 -120t-76.5 -77q-54 -37 -85.5 -50.5t-62.5 -13.5q-64 0 -92.5 29t-45.5 109q-10 49 -5.5 98.5t26.5 116.5q26 82 70 140.5t116 107.5zM330 547q-35 36 -60 6q-11 -15 -1 -35q16 -29 10.5 -66.5
t-29 -65.5t-31 -24t-12.5 49q-5 58 -44 3q-8 -12 -17 -28q-21 -37 -26.5 -60t-5.5 -77l-1 -80l31 -3q32 -3 80.5 29.5t75.5 75.5q40 62 50 154.5t-20 121.5z" />
    <glyph glyph-name="P" unicode="P" horiz-adv-x="446" 
d="M102 729q24 9 81 9t93 -10q37 -10 78 -47.5t65 -84.5q38 -76 -5.5 -137t-152.5 -84q-56 -11 -68 -21q-9 -8 -33.5 -84.5t-33.5 -125.5q-7 -34 -19.5 -47.5t-38.5 -13.5q-22 0 -43.5 22t-12.5 36q13 21 25 336q3 80 6 122t11 71t18.5 40t29.5 19zM281 608q-32 17 -79 19.5
t-60 -11.5q-12 -12 -12 -40q0 -18 4.5 -22t23.5 0q17 3 27.5 -2.5t27.5 -27.5q23 -29 41 -29.5t52 27.5q57 45 -25 86z" />
    <glyph glyph-name="Q" unicode="Q" horiz-adv-x="612" 
d="M344 661q41 8 59.5 3.5t40.5 -28.5q30 -32 36 -66q8 -44 0 -133t-25 -129q-52 -128 -52 -144q0 -6 45.5 -48t95 -86.5t55.5 -54.5q9 -17 -8 -31.5t-40 -8.5q-21 6 -76 42.5t-95 72.5q-38 33 -48 33q-5 0 -88 -36.5t-110 -37.5q-30 -1 -57.5 17t-44.5 52.5t-21.5 79.5
t13.5 104t58 120q44 66 142 170.5t120 108.5zM390 511q-11 29 -51 -1q-23 -17 -65 -59q-66 -66 -67 -78q-1 -6 9 -11q19 -11 60 -55q13 -14 19.5 -20.5t14.5 -10.5t11.5 -3.5t9.5 7t10.5 15l13.5 25.5q14 29 27.5 102t7.5 89zM195 288q-7 29 -16 32.5t-23 -17.5
q-29 -44 -41.5 -109t5.5 -76q8 -5 64 20t63 37q4 5 -7 23.5t-26 45t-19 44.5z" />
    <glyph glyph-name="R" unicode="R" horiz-adv-x="540" 
d="M203 547q14 0 36.5 15.5t48.5 36.5t37 27q29 17 54 11.5t38 -31.5q34 -65 -32 -144q-26 -32 -73 -69t-61 -37q-12 0 -27 -21t-10 -30q7 -10 114.5 -80t166.5 -102q63 -34 15 -64q-16 -10 -99 26t-157 85q-68 44 -80 44q-9 0 -16.5 -15.5t-33.5 -87.5q-17 -45 -32 -58
t-39 -3q-34 16 -33.5 89t35.5 139q10 20 9 28t-16 24q-17 18 -30 61t-5 55q15 26 67 -11q27 -19 41 -10t27 55q12 40 23 53.5t32 13.5z" />
    <glyph glyph-name="S" unicode="S" horiz-adv-x="522" 
d="M156 575q12 19 62 48t112 46.5t111 -5.5q40 -21 61.5 -59.5t0.5 -51.5q-8 -5 -57 15t-59 20q-22 0 -74 -22.5t-70 -39.5q-32 -30 -21.5 -59.5t75.5 -91.5q97 -93 121 -120t41 -63q22 -45 22 -81t-23 -56q-27 -26 -65 -35.5t-116 -9.5q-70 0 -95 5t-72 29q-37 19 -56 35
t-31 37q-11 20 -13 36t4.5 24t17.5 10t26 -7t30 -26q32 -38 100 -52t137 3q26 7 40.5 14t20.5 18.5t1.5 25.5t-20 36.5t-40.5 49t-64 64.5q-116 114 -125 148q-9 28 -4 59t22 56z" />
    <glyph glyph-name="T" unicode="T" horiz-adv-x="559" 
d="M170 587q71 4 109.5 10t49 12t20 11.5t40.5 10t93 6.5q33 1 42.5 -3t16.5 -23q13 -28 6 -47.5t-24 -27t-42 -16.5t-48 -16.5t-43.5 -27.5t-27.5 -50q-3 -14 -9.5 -36t-17.5 -57.5t-21 -67.5q-13 -47 -34 -84.5t-33 -37.5q-10 0 -24 23q-9 15 -8 32t13 67q19 75 19 95
q0 12 9.5 44t16.5 58.5t4 29.5q-5 5 -121 -6q-100 -10 -115 -4q-8 2 -18 15q-13 17 -13 37.5t15 36.5q7 8 145 16z" />
    <glyph glyph-name="U" unicode="U" horiz-adv-x="476" 
d="M56 590q14 32 36.5 37.5t50.5 -16.5q15 -13 16 -23t-11 -51q-38 -131 -43 -235.5t26 -114.5q11 -4 58 39t61 70q15 28 15 85q0 40 18 107t35 87q8 10 34 6.5t42 -17.5q14 -11 11.5 -78t-18.5 -129q-21 -78 -10.5 -119.5t56.5 -59.5q28 -12 32 -21t-13 -24
q-16 -13 -56 -6.5t-68 27.5l-32 23l-37 -30q-55 -43 -80 -58.5t-40 -15.5q-23 0 -60.5 28t-52.5 56q-24 45 -13 200.5t43 232.5z" />
    <glyph glyph-name="V" unicode="V" horiz-adv-x="459" 
d="M11 562q6 15 17.5 15t39.5 -14q25 -13 37 -46.5t20 -115.5q5 -59 17.5 -126t20.5 -80q7 -11 15 -6t59 110.5t68 152.5q18 53 41.5 78t57.5 31q38 6 43.5 -9t-18.5 -57q-25 -43 -62 -144q-46 -123 -97.5 -218.5t-82.5 -114.5q-10 -7 -20.5 -2t-30.5 24q-29 28 -52.5 88.5
t-35.5 136.5l-26 173q-17 108 -11 124z" />
    <glyph glyph-name="W" unicode="W" horiz-adv-x="570" 
d="M490 611q7 17 39 14l31 -3l-3 -69q-3 -92 -31 -212.5t-57 -172.5q-24 -44 -57 -79.5t-49 -35.5q-13 0 -46.5 45.5t-56.5 95.5q-33 71 -39.5 71t-17.5 -28q-26 -63 -67 -113.5t-69 -50.5q-7 0 -28 43q-15 29 -19.5 68t-7.5 174q-5 200 7 215q26 31 67 -9q17 -18 21 -37.5
t4 -94.5q0 -107 8.5 -107t44.5 84q26 58 35.5 70t29.5 10q35 -4 52 -30.5t32 -98.5q18 -90 30 -121l12 -30l19 23q27 34 51.5 117.5t42 166t22.5 95.5z" />
    <glyph glyph-name="X" unicode="X" horiz-adv-x="553" 
d="M134 678q12 12 35 9q19 -2 37.5 -31t46.5 -101q10 -24 15 -35.5t12.5 -22t13 -13t17 -2.5t22 3.5t31.5 11.5q65 23 117.5 28t59.5 -12t-12.5 -36t-57.5 -31t-83 -36.5t-45 -32.5t59 -90q53 -73 68.5 -107t12.5 -67q-5 -44 -40 -59.5t-140 -19.5q-102 -3 -177 10.5
t-99 40.5q-17 19 -17 60.5t18 77.5q7 15 36.5 50.5t64.5 70.5l85 84l-47 94q-36 72 -43 105.5t10 50.5zM290 287q-31 38 -37 38q-7 0 -59.5 -55t-66.5 -78q-18 -30 -15 -41t33 -24q41 -17 119.5 -12t99.5 25q8 9 -16 56t-58 91z" />
    <glyph glyph-name="Y" unicode="Y" horiz-adv-x="403" 
d="M318 683q17 21 38 19t33 -25q8 -15 -2 -51t-24.5 -87.5t-14.5 -89.5q0 -36 -6.5 -51.5t-32.5 -44.5q-39 -43 -54 -78q-16 -36 -58 -153.5t-52 -152.5q-10 -39 -36 -48q-26 -10 -34 -1.5t-14 51.5q-7 50 13 104q82 219 82 241q0 19 -34 67q-63 88 -93.5 164t-11.5 98
q19 24 50 8.5t43 -55.5q8 -24 33 -70.5t41 -63.5q13 -15 22.5 -10.5t15 14t5.5 14.5q0 10 10 30.5t25.5 51t23.5 56.5q12 38 32 63z" />
    <glyph glyph-name="Z" unicode="Z" horiz-adv-x="634" 
d="M525 628q28 9 37 7t35 -25q20 -17 24.5 -27t0.5 -24q-9 -28 -106 -125t-191 -172q-113 -91 -113 -98q0 -5 56.5 -6.5t122.5 -5.5t83 -13q12 -7 26 -12.5t20 -8t10.5 -7t4.5 -11.5q0 -9 -5.5 -14.5t-27.5 -10t-55.5 -7t-98.5 -5.5q-88 -5 -155.5 -13t-89 -12t-37 -3
t-30.5 11q-15 9 -20.5 20.5t-5.5 29.5q0 22 14 40.5t64 64.5q79 71 104 84q45 24 138.5 109t93.5 103q0 7 -39 7.5t-92.5 -5t-90.5 -14.5q-47 -11 -76 -1q-20 7 -24.5 15t-2.5 34q4 40 10.5 47t67.5 11q111 8 221 20t127 17z" />
    <glyph glyph-name="bracketleft" unicode="[" 
 />
    <glyph glyph-name="backslash" unicode="\" horiz-adv-x="784" 
d="M728 310q12 15 21 14t18 -19q10 -19 4.5 -29.5t-25.5 -10.5q-18 0 -24.5 15t6.5 30zM13 581q14 36 71 -10q45 -36 139 -141q192 -213 267.5 -301t75.5 -101q0 -20 -17 -33.5t-40 -11.5q-13 2 -23.5 8.5t-32 31t-47 55.5t-85 98t-130.5 143q-115 124 -152 178.5t-26 83.5z
" />
    <glyph glyph-name="bracketright" unicode="]" 
 />
    <glyph glyph-name="a" unicode="a" horiz-adv-x="661" 
d="M130 462q24 19 32 26t23 17.5t19 11.5t16 5t17.5 2t21 -2.5t28.5 -3.5t38.5 -5.5t52.5 -4.5q29 -1 35.5 -28t-7.5 -91q-14 -62 -10.5 -97.5t26.5 -84.5q18 -36 55 -63t104 -51q53 -19 64 -29.5t-2 -27.5q-12 -13 -58.5 -9t-89.5 22q-33 14 -83.5 50.5t-50.5 45.5
q0 10 -17 35l-17 25l-42 -42q-37 -37 -93.5 -68.5t-86.5 -31.5q-28 0 -47.5 21.5t-35.5 69.5q-26 79 3 162.5t105 145.5zM297 416q-24 40 -89 -4q-23 -16 -46.5 -44.5t-40 -60t-26.5 -61t-8.5 -51.5t15.5 -27q13 -5 52.5 20t70.5 58q106 116 72 170z" />
    <glyph glyph-name="b" unicode="b" horiz-adv-x="441" 
d="M142 626q10 13 19 12t30 -18q17 -14 19 -28q1 -15 -8 -89q-13 -103 -2 -111q5 -4 18 3q44 23 100.5 14.5t87.5 -42.5q20 -22 24 -66.5t-11 -68.5q-27 -39 -104 -64t-174 -25q-53 0 -83 10.5t-44 33.5q-7 11 -2 20.5t29 29.5q13 12 18.5 18.5t11 14.5t9 26.5t6 36.5
t8.5 63q24 199 48 230zM323 300q-2 26 -47 2q-38 -20 -45 -37q-4 -10 12 -9.5t48.5 18.5t31.5 26z" />
    <glyph glyph-name="c" unicode="c" horiz-adv-x="433" 
d="M283 500q23 8 51.5 5t41.5 -15q27 -25 13.5 -54.5t-52.5 -29.5q-17 0 -82 -32q-52 -25 -104 -76t-48 -73q5 -22 47.5 -34t112 -23t105.5 -23q83 -29 43 -47q-38 -17 -168 -16q-81 1 -109 4.5t-49 16.5q-75 46 -75 120q0 37 20 86.5t44 68.5q44 37 104 72t105 50z" />
    <glyph glyph-name="d" unicode="d" horiz-adv-x="483" 
d="M361 654q26 37 45 42t47 -17q9 -7 13 -11.5t6 -9.5t0 -15.5t-4.5 -21t-9 -35t-11.5 -49.5q-6 -25 -54 -126q-44 -93 -51.5 -118.5t-1.5 -63.5q5 -26 15 -37.5t43 -28.5t46.5 -32.5t6.5 -27.5t-35 -19q-46 -13 -64.5 -6t-60.5 53l-53 59l-56 -23q-69 -29 -107.5 -22
t-53.5 50q-23 66 2.5 132.5t89.5 109.5q76 51 153 62q12 2 23.5 23t30.5 61.5t41 70.5zM241 373q0 42 -56 0q-5 -3 -10 -8q-33 -25 -55 -61t-10 -43.5t44.5 13t59.5 51t27 48.5z" />
    <glyph glyph-name="e" unicode="e" horiz-adv-x="507" 
d="M181 502q62 57 84.5 71.5t47.5 14.5q48 0 63 -19t14 -80q0 -47 -5.5 -65t-27.5 -46q-32 -40 -93.5 -81t-99.5 -48q-35 -6 -42 -13.5t-13 -47.5q-4 -26 -1 -39t17 -30q16 -19 35 -23q23 -5 155 -8q177 -4 181 -8q1 0 1 -5q0 -21 -99.5 -43.5t-194.5 -23.5
q-77 -1 -108.5 15t-61.5 70q-21 37 -22.5 79t9 72t22 64.5t11.5 52.5q0 10 5 22t12 18q18 15 111 101z" />
    <glyph glyph-name="f" unicode="f" horiz-adv-x="523" 
d="M318 630q29 17 51 17t51 -18q62 -37 85 -144q13 -59 2 -84q-24 -51 -51 1q-15 26 -34 85q-39 120 -128 -58q-10 -20 -15 -31.5t-6 -22t2 -15.5t14 -9t24.5 -6t37.5 -4q61 -6 102.5 -19t41.5 -26q0 -41 -137 -41q-91 0 -104 -13t-12 -89.5t15 -94.5q33 -44 -10 -72
q-22 -15 -36.5 -6.5t-40.5 49.5q-12 21 -18 48t-9 82l-5 94l-51 6q-46 7 -61.5 18t-15.5 39q0 27 11.5 33t65.5 8q52 2 67.5 11t22.5 41q12 54 57.5 126t83.5 95z" />
    <glyph glyph-name="g" unicode="g" horiz-adv-x="437" 
d="M140 487q72 29 135 -25q25 -22 41.5 -29t44.5 -7t43 -5t20 -13.5t3 -25.5t-6.5 -35t-9.5 -48t-6 -58q-2 -49 -20 -59q-8 -4 -30 -33.5t-46 -65.5q-57 -89 -121.5 -140.5t-75.5 -51.5q-12 0 -25 -3.5t-18.5 -4.5t-12.5 6t-15 27q-18 43 -16 95t24 83q15 23 17 32t-3 14.5
t-18.5 29t-23.5 59.5q-12 39 -11 54.5t14 51.5q17 44 54.5 93t61.5 59zM241 374q-22 18 -30 19.5t-30 -7.5q-24 -9 -44.5 -38t-26.5 -60q-8 -39 5.5 -46t57.5 12q142 63 68 120zM192 81q-9 16 -29 10.5t-36 -27.5q-33 -46 -15 -52q15 -4 54 28q34 29 26 41z" />
    <glyph glyph-name="h" unicode="h" horiz-adv-x="541" 
d="M190 697q18 18 48.5 -1.5t30.5 -49.5q0 -18 -32 -126.5t-40 -119.5q-17 -21 18 -19q8 0 18 2q37 6 66.5 -16.5t41.5 -64.5q8 -30 41 -69t49 -39q19 0 59.5 -23t40.5 -33q0 -15 -26.5 -25t-67.5 -10q-46 0 -89.5 31t-68.5 82q-26 53 -38 56q-5 2 -32 -19.5t-61 -53.5
q-37 -34 -59 -51t-37.5 -21t-23.5 5t-14 32q-8 30 1 67.5t26 70t38 79.5t32 86q8 32 25.5 79t29.5 80t12 42q0 17 12 29z" />
    <glyph glyph-name="i" unicode="i" horiz-adv-x="228" 
d="M90 498.5q8 15.5 22 17.5t42 -9q16 -6 21 -15.5t5 -35.5q0 -33 -38 -148t-40 -129q-9 -49 -35.5 -68t-48.5 7q-11 14 -7.5 87.5t16.5 97.5q9 16 32 98t31 97.5zM115 652q16 15 55 -3.5t46 -44.5q5 -21 -3.5 -38t-23.5 -24.5t-33.5 -3.5t-31 21.5t-15.5 50t6 42.5z" />
    <glyph glyph-name="j" unicode="j" horiz-adv-x="450" 
d="M305 506q14 20 35 17t43 -29q19 -22 12 -76.5t-43 -160.5q-19 -60 -37 -96.5t-43 -68.5q-76 -97 -137.5 -109t-100.5 62q-23 44 -24 118t22 117q18 34 51.5 60t59.5 26q16 0 20 -6.5t4 -32.5q0 -39 -20 -57q-25 -23 -37 -91.5t7 -80.5q4 -2 19.5 6.5t33.5 23.5
q31 25 49.5 59.5t24.5 63t13.5 62t17.5 52.5q14 26 14 72t16 69zM353 539q-17 13 -19 55q-2 50 27 50q5 1 11 -1q47 -15 61.5 -43t-4.5 -64q-6 -11 -13.5 -13.5t-23.5 1.5q-28 6 -39 15z" />
    <glyph glyph-name="k" unicode="k" horiz-adv-x="480" 
d="M189 649q10 19 18.5 19t39.5 -19t32.5 -52t-23.5 -121q-25 -85 -21.5 -91t72.5 12t93 17t48 -22q18 -16 21 -24.5t-5 -24.5q-6 -14 -24 -24t-61 -23q-176 -53 -187 -78q-3 -6 1 -12q5 -9 80.5 -33.5t86.5 -33.5q9 -7 29 -16.5t31.5 -17t8.5 -14.5q-8 -23 -106.5 -14
t-161.5 39q-27 12 -40.5 13.5t-35.5 -6.5q-35 -13 -51.5 -5.5t-21.5 39.5q-5 27 7.5 58t61.5 113q34 56 66 143t32 123q0 35 10 55z" />
    <glyph glyph-name="l" unicode="l" horiz-adv-x="278" 
d="M136 546q0 2 1 7t5 15t10 18.5t19.5 15t30.5 6.5q28 0 47 -19t19 -47q0 -13 -14 -54.5t-32 -93t-24 -74.5q-5 -19 -25 -68t-33 -92q-29 -93 -63 -119q-20 -16 -28 8q-9 28 -20.5 56t-14.5 39t-3 29.5t8 45.5q23 82 53 159.5t47 117.5t17 50z" />
    <glyph glyph-name="m" unicode="m" horiz-adv-x="694" 
d="M90 326q0 4 7 19.5t24.5 33t38.5 17.5q18 0 32.5 11t23 24t21 24t26 11t37.5 -15q16 -11 19.5 -26t1.5 -65q-2 -75 3 -80q7 -7 33 5.5t26 23.5q0 16 27.5 41.5t44.5 25.5q19 0 19 18q0 23 21 37.5t46 8.5q16 -3 23.5 -5.5t15 -9.5t9.5 -13.5t4 -25t2 -36.5t-1 -54
q-3 -117 9 -203q9 -64 20 -84t49 -43q23 -14 4 -30q-17 -15 -51 -15q-30 0 -51 18t-39 58q-11 27 -26 113t-15 127q0 38 -11.5 38t-109.5 -91q-76 -70 -108.5 -85.5t-52.5 8.5q-5 6 -8.5 18.5t-5 25.5t-2.5 25t-3.5 19t-6.5 6q-10 -3 -56 -83q-37 -63 -57 -77t-45 8
q-18 16 -18 39t18 71l32 85q7 19 13.5 34.5t9.5 22.5t5 13.5t2 11.5z" />
    <glyph glyph-name="n" unicode="n" horiz-adv-x="602" 
d="M126 460q14 17 24 17q16 0 32 -21.5t16 -43.5v-30l50 49q38 37 48 41.5t31 -8.5q22 -13 30 -31.5t23 -87.5q16 -69 46.5 -115.5t91.5 -92.5q74 -56 74 -64q0 -28 -78 -5q-58 16 -114 71.5t-76 116.5q-18 54 -27 66q-3 3 -10.5 -1t-21 -15t-33 -29t-45.5 -44
q-67 -68 -89 -84t-44 -14q-20 2 -27.5 9t-13.5 28q-5 31 0 47.5t14 35.5t9 29q0 11 38 85t52 91z" />
    <glyph glyph-name="o" unicode="o" horiz-adv-x="382" 
d="M237 482q71 37 114 -25q16 -25 19.5 -46.5t0.5 -95.5q-3 -92 -20 -135.5t-71 -97.5q-83 -86 -148 -104t-101 34q-16 24 -19 42t0 66q2 45 12 77t38 91q35 72 76.5 117.5t98.5 76.5zM269 319q-2 50 -13 53q-16 5 -55 -55t-67 -127t-16 -79q12 -11 55.5 26t67.5 79
q19 33 24.5 53t3.5 50z" />
    <glyph glyph-name="p" unicode="p" horiz-adv-x="496" 
d="M189 502q6 7 27.5 17.5t57 19t71 6.5t72.5 -30t59 -82q33 -77 -46 -163q-29 -31 -70 -53t-136 -56q-28 -10 -40 -25.5t-36 -71.5q-36 -83 -62 -116l-27 -32l-27 26q-24 22 -21.5 46t35.5 104q31 74 31 89q0 9 10 22t29.5 44.5t37 73t21 58t-4.5 28.5q-11 17 -5 48t24 47z
M354 437q-22 8 -41.5 9t-25.5 -6q-7 -9 -3 -17t2.5 -33t-15.5 -53q-20 -41 -15 -46q7 -7 31.5 8t54.5 44q34 32 37.5 57.5t-25.5 36.5z" />
    <glyph glyph-name="q" unicode="q" horiz-adv-x="521" 
d="M271 468q58 28 119 -10q49 -30 54 -73q4 -35 -28 -58q-18 -12 -30 -34.5t-32.5 -65.5t-46.5 -84q-58 -89 -59 -105q0 -16 39 -11q12 1 37 5q152 25 182 -5q13 -14 -9 -36q-32 -32 -165 -64.5t-168 -16.5q-27 13 -40.5 48.5t-4.5 73.5q7 32 1 43.5t-26 3.5q-17 -7 -36.5 6
t-32.5 40q-16 31 -15 51t19 60q26 61 96 127.5t146 104.5zM185 255q34 0 61 50q21 37 11 48q-10 13 -54 -38q-43 -49 -43 -54.5t25 -5.5z" />
    <glyph glyph-name="r" unicode="r" horiz-adv-x="523" 
d="M223 468q26 12 50.5 15t77.5 1q75 -4 118.5 -19t43.5 -38q0 -20 -13.5 -26t-78.5 -15l-108 -16q-18 -3 -32 -14t-31 -36q-24 -35 -64 -112t-66 -137q-12 -29 -21 -39t-23 -10q-64 0 -65.5 77t60.5 205q27 57 67 100t85 64z" />
    <glyph glyph-name="s" unicode="s" horiz-adv-x="520" 
d="M227 389q6 42 45 80.5t82.5 58t71.5 19.5q23 0 35.5 -6.5t28.5 -27.5q16 -22 19 -32.5t-5 -24.5q-7 -13 -15.5 -16t-27.5 0q-32 6 -82 -21t-65 -57q-9 -21 -1.5 -34.5t57.5 -65.5q60 -62 79.5 -99t8.5 -68t-51.5 -48.5t-130.5 -29.5q-138 -18 -202 -12.5t-64 36.5
q0 10 2 16.5t10 12.5t19.5 10.5t35.5 10t52.5 10.5t76.5 12q116 19 132.5 33.5t-14.5 50.5q-10 11 -28 30q-51 53 -64 83t-5 79z" />
    <glyph glyph-name="t" unicode="t" horiz-adv-x="653" 
d="M361 539q14 16 19.5 17t23.5 -9q29 -16 31 -43t-24 -77q-30 -59 -19 -75.5t81 -16.5q123 0 161 -32q17 -15 3 -31q-8 -10 -69.5 -16t-133 -10t-89.5 -8q-22 -6 -37.5 -35t-15.5 -65q0 -22 5.5 -30.5t23.5 -15.5q51 -21 58 -34.5t-20 -40.5q-55 -54 -125 10
q-28 26 -33 40.5t-5 72.5v79l-79 -3q-79 -3 -93 9q-14 11 -14 51t14 45q13 5 122 17l109 13l65 121q26 50 41 67z" />
    <glyph glyph-name="u" unicode="u" horiz-adv-x="393" 
d="M306 465q20 21 27.5 20.5t29.5 -22.5q16 -17 19 -30.5t-1 -47.5q-4 -28 -19 -66.5t-30 -71.5t-26.5 -67.5t-8 -66.5t25.5 -57q56 -63 49 -93q-2 -12 -17 -12q-38 1 -90.5 41t-52.5 69q0 14 -12.5 16.5t-29.5 -8.5q-50 -31 -97.5 -20t-56.5 55q-19 96 24 219
q28 83 45 108.5t39 19.5q20 -6 34 -22t14 -33q0 -10 -6 -29t-14.5 -39t-17 -42t-13.5 -40t-4 -31.5t10 -16.5q17 -7 50.5 27t40.5 64q7 32 37.5 93.5t50.5 82.5z" />
    <glyph glyph-name="v" unicode="v" horiz-adv-x="471" 
d="M43 467q27 0 44.5 -31.5t23 -69.5t12.5 -69.5t16 -31.5t72 89q57 80 86.5 113t68.5 62q35 26 50 27.5t31 -21.5q12 -17 13 -30.5t-5 -24.5t-21 -26.5t-31.5 -31.5t-39.5 -45t-43 -62q-39 -66 -97 -146q-40 -56 -55 -69t-41 -15q-24 -2 -33 2.5t-18 22.5
q-17 34 -30.5 94.5t-34.5 193.5q-4 30 5 49.5t27 19.5z" />
    <glyph glyph-name="w" unicode="w" horiz-adv-x="554" 
d="M469 520q19 16 31 13.5t30 -27.5q14 -18 14 -28t-14 -42q-19 -45 -26 -87q-10 -67 -48 -161.5t-68 -127.5q-16 -19 -46 -12q-33 7 -45.5 20.5t-31.5 62.5q-12 29 -19 43.5t-13.5 24t-13.5 7t-14.5 -10t-18.5 -24.5q-28 -40 -61 -69t-51 -29q-41 0 -55.5 54.5t-4.5 174.5
q8 91 17 123t28 32q29 0 42 -25t13 -84q0 -73 8 -73q5 0 23.5 33t39.5 69.5t32 42.5q20 12 40.5 -14t45.5 -95q28 -80 39 -83q10 -4 37 49t27 75q0 29 23.5 91.5t39.5 76.5z" />
    <glyph glyph-name="x" unicode="x" horiz-adv-x="544" 
d="M73 481q22 16 34 16q10 0 45.5 -38t48.5 -62q11 -22 29 -19.5t79 32.5q97 48 158 55.5t66 -27.5q3 -24 -13 -39t-83 -48q-63 -32 -88.5 -49.5t-25.5 -30.5q0 -11 70 -92q115 -132 85 -167q-9 -10 -30 -10q-15 0 -43 22t-88 81q-84 83 -101 91q-13 7 -34 -2
q-13 -5 -34 -22t-37 -36q-41 -46 -71 -42t-30 57q0 19 11.5 38t45.5 55l57 62l-20 27q-83 112 -31 148z" />
    <glyph glyph-name="y" unicode="y" horiz-adv-x="373" 
d="M107 519q6 10 16.5 6t32.5 -24q18 -17 21.5 -28.5t-1.5 -44.5q-2 -17 -5 -35t-5 -27t-3 -17t0.5 -11t5.5 -3q8 0 45.5 48.5t37.5 58.5t18 27.5t29 17.5q14 0 39 -25q17 -17 21 -35t4 -79q0 -71 -9 -116t-32 -97q-20 -42 -20 -55q0 -10 -20 -37.5t-21 -33.5q0 -11 -44 -72
t-63 -76q-25 -19 -47.5 -19t-53.5 19q-31 18 -40.5 54t10.5 56q10 9 19 9.5t15 -4t15 -9.5t17 -5q11 0 43 49t56.5 101.5t17.5 59.5q-5 5 -24 -13q-42 -38 -84 6q-44 47 -47 137q-1 28 3 56q5 28 24 86.5t29 74.5z" />
    <glyph glyph-name="z" unicode="z" horiz-adv-x="444" 
d="M181 543q104 24 151 23.5t73 -25.5q46 -44 18.5 -96.5t-139.5 -136.5q-20 -15 -36 -28.5t-25 -22.5t-7 -10q5 -6 64 -7q49 -2 66 -9t17 -26q0 -24 -29.5 -40.5t-98.5 -31.5q-87 -19 -120.5 -18t-66.5 24q-51 34 -33.5 83.5t102.5 110.5q34 24 57 41t36.5 28.5t18 18.5
t1.5 9q-6 6 -40 -8q-35 -12 -64 -6.5t-44.5 28.5t-5.5 51q6 17 23.5 25.5t81.5 22.5z" />
    <glyph glyph-name="braceleft" unicode="{" 
 />
    <glyph glyph-name="bar" unicode="|" 
 />
    <glyph glyph-name="braceright" unicode="}" 
 />
    <glyph glyph-name="asciitilde" unicode="~" horiz-adv-x="528" 
d="M94 276q40 25 80 17.5t127 -54.5q46 -25 106 -25q49 -1 80 -12t31 -28t-39 -35t-86 -23q-48 -5 -86.5 8t-80.5 48q-28 22 -59.5 19t-77.5 -32q-38 -24 -56.5 -22t-22.5 31q-2 24 20.5 53.5t63.5 54.5z" />
    <glyph glyph-name="cent" unicode="&#xa2;" 
 />
    <glyph glyph-name="sterling" unicode="&#xa3;" horiz-adv-x="564" 
d="M377 566q50 28 88 -6t38 -106q0 -47 -11.5 -64t-40.5 -13q-24 4 -27 32q-5 47 -36 11q-16 -18 -34 -54q-23 -46 -25.5 -58t9.5 -21q18 -12 54 -12q20 0 34.5 -6.5t30.5 -23.5q28 -29 22 -38q-6 -10 -52 -17t-97 -6q-41 1 -51.5 -4t-26.5 -32q-13 -21 -15.5 -32t4.5 -19
q12 -14 94.5 -39.5t135.5 -31.5q46 -5 64.5 -18.5t18.5 -42.5q0 -28 -35 -37.5t-95.5 0.5t-131.5 37q-77 30 -111 34.5t-57 -13.5q-23 -17 -49.5 -13.5t-41.5 26.5q-17 26 -22 69.5t7 64.5q8 15 18.5 17.5t43.5 -2.5q35 -5 43.5 -2t16.5 23q17 45 -20 45q-24 0 -47.5 24
t-23.5 48q0 29 18 35.5t70 -4.5q50 -11 69 0.5t34 61.5q10 35 30.5 65t20.5 38q0 10 31.5 41t54.5 43z" />
    <glyph glyph-name="section" unicode="&#xa7;" 
 />
    <glyph glyph-name="guillemotleft" unicode="&#xab;" horiz-adv-x="562" 
d="M408 375q36 31 54.5 41t36.5 8q33 -3 42.5 -23t-6 -51.5t-51.5 -65.5q-50 -46 -50 -55.5t50 -32.5q71 -32 68 -58q-2 -21 -55 -28q-44 -5 -90 12.5t-75 50.5t-29 68q0 28 19.5 53t85.5 81zM266 477q29 19 40 19t29 -16q27 -24 16.5 -53t-62.5 -78q-64 -59 -107 -88
q-17 -12 -27.5 -23t-6.5 -14q8 -9 84 -38q62 -24 80 -41.5t5 -38.5q-11 -19 -51.5 -21t-91.5 14q-92 28 -128 58.5t-36 79.5q0 25 14.5 40.5t81.5 63.5q49 35 77.5 59.5t35.5 34.5t17.5 20.5t29.5 21.5z" />
    <glyph glyph-name="guillemotright" unicode="&#xbb;" horiz-adv-x="568" 
d="M303 452q16 19 39 11t81 -52q99 -75 123.5 -122.5t-7.5 -101.5q-29 -50 -119 -104t-136 -49q-18 2 -22.5 9t-4.5 34q0 28 12 42t74 59q36 26 61 47.5t25 26.5t-18 22.5t-43 38.5q-49 39 -67 77t2 62zM57 471q29 29 149 -89q43 -43 63.5 -65.5t30 -43.5t6 -35.5
t-17.5 -37.5q-23 -39 -39.5 -52.5t-90.5 -53.5q-61 -32 -90.5 -38.5t-45.5 9.5q-12 16 -11.5 40t13.5 46.5t30 22.5q14 0 65.5 36.5t51.5 47.5q0 5 -17.5 26.5t-42.5 45.5q-39 38 -50 55.5t-11 41.5q0 37 7 44z" />
    <glyph glyph-name="questiondown" unicode="&#xbf;" 
 />
    <glyph glyph-name="Agrave" unicode="&#xc0;" 
 />
    <glyph glyph-name="Aacute" unicode="&#xc1;" 
 />
    <glyph glyph-name="Acircumflex" unicode="&#xc2;" 
 />
    <glyph glyph-name="Adieresis" unicode="&#xc4;" 
 />
    <glyph glyph-name="Ccedilla" unicode="&#xc7;" 
 />
    <glyph glyph-name="Egrave" unicode="&#xc8;" 
 />
    <glyph glyph-name="Eacute" unicode="&#xc9;" 
 />
    <glyph glyph-name="Ecircumflex" unicode="&#xca;" 
 />
    <glyph glyph-name="Edieresis" unicode="&#xcb;" 
 />
    <glyph glyph-name="Icircumflex" unicode="&#xce;" 
 />
    <glyph glyph-name="Idieresis" unicode="&#xcf;" 
 />
    <glyph glyph-name="Ntilde" unicode="&#xd1;" 
 />
    <glyph glyph-name="Oacute" unicode="&#xd3;" 
 />
    <glyph glyph-name="Ocircumflex" unicode="&#xd4;" 
 />
    <glyph glyph-name="Odieresis" unicode="&#xd6;" 
 />
    <glyph glyph-name="Ugrave" unicode="&#xd9;" 
 />
    <glyph glyph-name="Uacute" unicode="&#xda;" 
 />
    <glyph glyph-name="Ucircumflex" unicode="&#xdb;" 
 />
    <glyph glyph-name="Udieresis" unicode="&#xdc;" 
 />
    <glyph glyph-name="germandbls" unicode="&#xdf;" 
 />
    <glyph glyph-name="agrave" unicode="&#xe0;" horiz-adv-x="462" 
d="M94 660q10 19 39 19q17 0 29 -8t26 -30q26 -38 26 -48q0 -18 29 -52t44 -34q17 0 38 -15t21 -28q0 -10 22 -55q15 -30 16.5 -43t-7.5 -38q-11 -29 -13 -79t6 -64q7 -11 37 -11q17 0 25.5 -6t14.5 -22q7 -19 3.5 -28t-24.5 -28q-20 -18 -32 -22t-32 0q-18 4 -37 16t-29 19
t-26 2.5t-36 -27.5q-14 -17 -53 -36.5t-59 -19.5q-25 0 -57 22.5t-42 47.5q-27 65 2.5 146.5t109.5 163.5l49 51l-35 45q-32 42 -49 92t-6 70zM164 174q34 24 62 89q23 54 7 55q-12 2 -42 -32q-30 -33 -49 -65.5t-19 -50.5q0 -15 7 -15t34 19z" />
    <glyph glyph-name="aacute" unicode="&#xe1;" horiz-adv-x="564" 
d="M180 531q27 -4 99 10.5t115 13.5q36 -2 46 -6t12 -18q4 -22 -35 -53l-38 -32l22 -15q20 -14 21.5 -42.5t-9 -56.5t-20 -65t-7.5 -62q2 -27 7.5 -31t35.5 -1q65 6 88.5 4t31.5 -15q14 -23 -7.5 -49.5t-68.5 -43.5q-50 -18 -79.5 -12t-69.5 42q-38 34 -46 34
q-6 0 -24.5 -13.5t-42.5 -29t-51.5 -28t-59.5 -9.5t-59 25q-54 46 -14 142q11 28 81 102t85 74q4 0 6.5 4.5t2.5 10.5t-4.5 10.5t-9.5 4.5q-18 0 -42.5 23.5t-24.5 41.5q0 25 14 34.5t45 5.5zM231 265q11 0 17 11q5 9 -5 9q-11 0 -17 -12q-4 -8 5 -8z" />
    <glyph glyph-name="acircumflex" unicode="&#xe2;" 
 />
    <glyph glyph-name="adieresis" unicode="&#xe4;" 
 />
    <glyph glyph-name="ccedilla" unicode="&#xe7;" horiz-adv-x="495" 
d="M218 471q17 8 28.5 16.5t15.5 12t16 5.5t36 2q33 0 43.5 -5t21.5 -25q22 -43 12 -76q-8 -25 -26 -6q-3 3 -6 7q-9 12 -18 13t-38 -9q-57 -19 -124 -96.5t-67 -124.5q0 -19 14 -31q24 -20 127.5 12.5t152.5 74.5q11 9 19.5 9t28.5 -10q24 -12 29 -24.5t-4 -35.5
q-5 -14 -52.5 -49t-90.5 -57l-40 -20l19 -39q15 -29 13 -51.5t-23 -46.5q-34 -38 -112 -59.5t-103 0.5q-22 20 -17.5 43.5t34.5 41.5q35 21 35 28q0 8 -31.5 37t-51.5 38q-43 22 -48.5 84t25.5 136.5t89 130.5q60 58 93 74z" />
    <glyph glyph-name="egrave" unicode="&#xe8;" horiz-adv-x="362" 
d="M17 672q12 12 34 -1t71 -60q133 -131 173 -156q44 -28 54.5 -84t-18.5 -107q-17 -31 -59 -64.5t-86 -51.5q-78 -33 15 -34q13 0 31 1q65 2 84 -6.5t15 -36.5q-3 -23 -38.5 -46t-76.5 -30q-27 -4 -45 -0.5t-47 18.5q-61 31 -82 100t3 162q10 40 23 62t45 55
q14 15 25.5 27.5t17.5 20.5t5 8q-1 1 -31 18t-52.5 33.5t-28.5 29.5q-10 23 -24 48q-12 19 -14.5 52t6.5 42zM232 327q0 17 -20 2q-8 -5 -15 -14q-12 -19 -3 -20q11 0 24.5 11.5t13.5 20.5z" />
    <glyph glyph-name="eacute" unicode="&#xe9;" horiz-adv-x="439" 
d="M183 455q16 9 49 10.5t52 -5.5q19 -8 32.5 -40t8.5 -59q-6 -30 -58.5 -77.5t-104.5 -69.5q-45 -19 -45 -29q0 -20 31 -16t69.5 18t72 15t37.5 -26q5 -35 -55.5 -78t-129.5 -52q-32 -5 -44.5 -0.5t-37.5 28.5q-65 63 -46 155.5t115 182.5q33 31 54 43zM258 638
q59 27 112.5 29.5t57.5 -22.5q4 -18 -21 -44.5t-68 -49.5q-45 -25 -76 -44q-45 -28 -75.5 -15.5t-30.5 59.5q0 23 20.5 41t80.5 46z" />
    <glyph glyph-name="ecircumflex" unicode="&#xea;" 
 />
    <glyph glyph-name="edieresis" unicode="&#xeb;" 
 />
    <glyph glyph-name="icircumflex" unicode="&#xee;" horiz-adv-x="83" 
d="M23 -166q9 4 21.5 4t21 -3.5t7.5 -8.5q-3 -9 -33 -10q-29 -1 -30 7q0 5 13 11z" />
    <glyph glyph-name="idieresis" unicode="&#xef;" 
 />
    <glyph glyph-name="oacute" unicode="&#xf3;" horiz-adv-x="85" 
d="M18 765q10 13 29 14.5t26 -9.5q8 -12 -5.5 -31.5t-29.5 -19.5q-19 0 -26 15.5t6 30.5z" />
    <glyph glyph-name="ocircumflex" unicode="&#xf4;" 
 />
    <glyph glyph-name="odieresis" unicode="&#xf6;" horiz-adv-x="446" 
d="M335 517q11 20 36 20t45 -20q29 -29 16.5 -56t-53.5 -23q-28 3 -42 29.5t-2 49.5zM129 530q7 7 40 7q28 0 47 -18t16 -42q-2 -14 3.5 -20.5t20.5 -10.5q143 -40 144 -214q0 -45 -6 -64.5t-29 -54.5q-39 -58 -110.5 -99.5t-132.5 -41.5q-26 0 -40.5 6.5t-36.5 28.5l-35 35
l5 83q3 59 20 110.5t37 63.5q6 4 9.5 23.5t13 45t28.5 43.5q20 19 22 27t-8 28q-25 47 -8 64zM286 324q-24 13 -38 6.5t-57 -49.5q-45 -45 -67.5 -92t-18.5 -87q2 -23 7.5 -28.5t25.5 -3.5q13 1 37.5 12.5t47.5 27.5q46 33 63.5 66t17.5 91q1 28 -3 39.5t-15 17.5z" />
    <glyph glyph-name="ugrave" unicode="&#xf9;" 
 />
    <glyph glyph-name="uacute" unicode="&#xfa;" 
 />
    <glyph glyph-name="ucircumflex" unicode="&#xfb;" 
 />
    <glyph glyph-name="udieresis" unicode="&#xfc;" 
 />
    <glyph glyph-name="eogonek" unicode="&#x119;" 
 />
    <glyph glyph-name="quotedblleft" unicode="&#x201c;" horiz-adv-x="232" 
d="M14 602q10 24 36 9q28 -17 31 -50q1 -3 1 -5q0 -19 7 -18q11 2 16 30q9 45 41 26q31 -20 61 -91q15 -36 15 -55.5t-14 -31.5q-17 -14 -43 5.5t-42 56.5q-25 60 -29 26q0 -8 1 -23q2 -37 -14.5 -49t-39.5 10q-16 17 -26 76t-1 84z" />
    <glyph glyph-name="quotedblbase" unicode="&#x201e;" horiz-adv-x="361" 
d="M257 75q17 18 33.5 17.5t38.5 -21.5t21.5 -41t-23.5 -67q-40 -78 -91 -58q-22 8 -13.5 74t34.5 96zM66 84q21 31 34 36.5t28 -9.5q13 -12 11.5 -37t-10 -52t-26 -51.5t-36.5 -34.5q-53 -28 -57 12q-4 46 56 136z" />
    <glyph glyph-name="bullet" unicode="&#x2022;" 
 />
    <glyph glyph-name="Euro" unicode="&#x20ac;" horiz-adv-x="592" 
d="M351 564q38 24 55.5 29t56.5 2q50 -3 82 -21.5t36 -46t-10 -35t-49 4.5q-27 9 -40.5 8t-38.5 -12q-38 -17 -71.5 -45.5t-27.5 -38.5q6 -11 44 -18q48 -9 59.5 -21t10.5 -52q-1 -34 -6.5 -42t-30.5 -13q-24 -6 -76.5 -12t-91.5 -11.5t-45 -12.5q-12 -12 -3 -44t27 -41
q7 -8 42.5 -6.5t65.5 5.5t72.5 9.5t64.5 7.5q19 1 22.5 -18t-13.5 -37q-28 -31 -125.5 -55t-145.5 -12t-80 60t-40 118q-1 16 -9 22t-18 6t-23.5 6.5t-23.5 21.5t-11 26.5t7 35.5q16 50 28 60t60 14q41 4 60 13.5t66 50.5q66 58 120 94z" />
  </font>
</defs>
</svg>
