<?xml version="1.0" standalone="no"?>
<!DOCTYPE svg PUBLIC "-//W3C//DTD SVG 1.1//EN" "http://www.w3.org/Graphics/SVG/1.1/DTD/svg11.dtd" >
<svg xmlns="http://www.w3.org/2000/svg" xmlns:xlink="http://www.w3.org/1999/xlink" version="1.1">
<metadata>
Created by FontForge 20170731 at Thu May 16 07:11:16 2013
 By Aleksey,,,
Copyright (c) 2009, 2013 Cadson Demak Co. Ltd., Thailand. All Rights Reserved.
</metadata>
<defs>
<font id="SukhumvitSet-Thin" horiz-adv-x="0" >
  <font-face 
    font-family="Sukhumvit Set"
    font-weight="250"
    font-stretch="normal"
    units-per-em="1000"
    panose-1="2 0 5 6 0 0 0 2 0 4"
    ascent="800"
    descent="-200"
    x-height="483"
    cap-height="674"
    bbox="-555 -392 1089 1009"
    underline-thickness="50"
    underline-position="-175"
    unicode-range="U+000D-FB02"
  />
<missing-glyph horiz-adv-x="515" 
d="M60 0v673h395v-673h-395zM110 47h294v580h-294v-580z" />
    <glyph glyph-name="uni0E5A" unicode="&#xe2f;&#xe2f;" horiz-adv-x="694" 
d="M384 0v433q-10 -22 -27.5 -41.5t-40.5 -34.5t-51.5 -24t-61.5 -9q-43 0 -73 14t-48.5 39.5t-27 61t-8.5 77.5v44h45v-45q0 -80 29 -117.5t88 -37.5q37 0 70 16t57.5 40.5t39 55t14.5 60.5v28h42v-206q30 8 55 28t43 45.5t28 53.5t10 51v28h42v-560h-47v433
q-9 -18 -21.5 -36.5t-29 -34t-36.5 -27t-44 -17.5v-318h-47z" />
    <glyph glyph-name="uni0E4F.liga" unicode="&#xe4f;&#x22;" horiz-adv-x="546" 
d="M273 26q-44 0 -83 17t-68 46t-45.5 68t-16.5 83t16.5 83t45.5 68t68 45.5t83 16.5t83 -16.5t68 -45.5t45.5 -68t16.5 -83t-16.5 -83t-45.5 -68t-68 -46t-83 -17zM273 54q39 0 72.5 14.5t59 40t40 59t14.5 72.5q0 38 -14.5 72t-40 59.5t-59 40t-72.5 14.5q-38 0 -72 -14.5
t-59.5 -40t-40 -59.5t-14.5 -72q0 -39 14.5 -72.5t40 -59t59.5 -40t72 -14.5zM273 126q-24 0 -45 9t-36.5 24.5t-24.5 36t-9 43.5q0 24 9 45t24.5 36.5t36.5 24.5t44 9q24 0 45 -9t36.5 -24.5t24.5 -36t9 -44.5t-9 -45t-24.5 -36t-36.5 -24t-44 -9zM273 162q32 0 54 22.5
t22 55.5q0 31 -22.5 53.5t-54.5 22.5q-31 0 -54 -22.5t-23 -54.5q0 -15 6 -29t16.5 -24.5t25 -17t30.5 -6.5zM230 512h-28l-5 176h38zM352 512h-28l-5 176h38z" />
    <glyph glyph-name="uni0E24.liga" unicode="&#xe24;&#xe32;" horiz-adv-x="941" 
d="M218 39v-39h-57q-35 0 -56 18t-21 54v153q0 38 16.5 68.5t48.5 44.5l-93 72q10 29 31 57.5t51.5 51t68.5 36t81 13.5q60 0 104.5 -20.5t73.5 -56.5q36 32 85 54.5t102 22.5q50 0 88.5 -16.5t64.5 -45t39 -67.5t13 -85v-554h-47v554q0 78 -39 125.5t-119 47.5
q-52 0 -94 -20t-71 -50q23 -46 23 -103v-554h-47v554q0 78 -45.5 125.5t-130.5 47.5q-66 0 -112 -33t-69 -79l94 -74v-9q-34 -12 -52 -39t-18 -62v-157q0 -35 34 -35h53z" />
    <glyph glyph-name="uni0E26.liga" unicode="&#xe26;&#xe32;" horiz-adv-x="945" 
d="M151 69q0 -36 -19 -52.5t-54 -16.5h-40v39h36q30 0 30 32v154q0 38 17.5 67t46.5 43l-107 69q10 29 31.5 58.5t52 53t69 38t81.5 14.5q60 0 104 -20.5t72 -55.5q35 32 84 54t102 22q50 0 88.5 -16.5t64.5 -45t39 -67.5t13 -85v-554h-47v554q0 78 -39 125.5t-119 47.5
q-52 0 -94 -20t-71 -50q23 -46 23 -103v-554h-47v554q0 78 -44 125.5t-129 47.5q-33 0 -61.5 -10t-52 -26t-41 -36.5t-27.5 -41.5l111 -75v-9q-34 -12 -53.5 -37.5t-19.5 -60.5v-162z" />
    <glyph glyph-name="fi" unicode="fi" horiz-adv-x="502" 
d="M417 0h-46v445h-224v-445h-45v445h-84v38h84v10q0 38 9.5 72.5t29.5 60.5t52.5 41t78.5 15q36 0 65.5 -9t50.5 -21l-10 -33q-20 11 -47.5 17.5t-54.5 6.5q-39 0 -64 -12t-39.5 -32t-20 -48t-5.5 -59v-9h270v-483z" />
    <glyph glyph-name="fl" unicode="fl" horiz-adv-x="542" 
d="M147 483h149v-38h-149v-445h-45v445h-84v38h84v10q0 38 11 72.5t34 60.5t59.5 41t86.5 15q44 0 87.5 -7.5t76.5 -18.5v-656h-46v630q-19 5 -49.5 9t-60.5 4q-45 0 -75 -12t-47.5 -32t-24.5 -48t-7 -59v-9z" />
    <glyph glyph-name=".notdef" horiz-adv-x="515" 
d="M60 0v673h395v-673h-395zM110 47h294v580h-294v-580z" />
    <glyph glyph-name=".null" 
 />
    <glyph glyph-name=".null" 
 />
    <glyph glyph-name="nonmarkingreturn" unicode="&#xd;" horiz-adv-x="195" 
 />
    <glyph glyph-name="space" unicode=" " horiz-adv-x="280" 
 />
    <glyph glyph-name="exclam" unicode="!" horiz-adv-x="227" 
d="M137 522l-12 -334h-24l-11 334v152h47v-152zM71 33q0 17 10.5 29t31.5 12t31.5 -12t10.5 -29t-10.5 -29t-31.5 -12t-31.5 12t-10.5 29z" />
    <glyph glyph-name="quotedbl" unicode="&#x22;" horiz-adv-x="296" 
d="M101 452h-28l-5 236h38zM223 452h-28l-5 236h38z" />
    <glyph glyph-name="numbersign" unicode="#" horiz-adv-x="546" 
d="M330 211h-163l-46 -211h-45l46 211h-96v37h104l33 154h-96v37h104l46 211h45l-46 -211h163l46 211h45l-46 -211h96v-37h-104l-33 -154h96v-37h-104l-46 -211h-45zM175 248h163l33 154h-163z" />
    <glyph glyph-name="dollar" unicode="$" horiz-adv-x="546" 
d="M258 -8q-69 0 -115 12t-75 29l13 38q33 -17 77 -27.5t100 -10.5v280q-33 10 -66 24.5t-59.5 36t-43.5 51.5t-17 73q0 31 11 59.5t34 50t58 34.5t83 15v93h35v-93q45 -2 84.5 -12.5t65.5 -24.5l-12 -34q-27 13 -65 20.5t-73 9.5v-270q35 -12 68 -25.5t58.5 -33t41 -47.5
t15.5 -69q0 -39 -13.5 -70t-38 -53.5t-58 -36t-73.5 -17.5v-94h-35v92zM431 171q0 32 -11.5 53.5t-30.5 35.5t-44 23.5t-52 18.5v-267q60 7 99 39.5t39 96.5zM116 495q0 -30 10.5 -51t29 -36.5t44.5 -27t58 -22.5v258q-72 -4 -107 -36t-35 -85z" />
    <glyph glyph-name="percent" unicode="%" horiz-adv-x="744" 
d="M534 660h42l-366 -660h-42zM89 484q0 -27 6 -52.5t18 -45t30 -31.5t42 -12t42 12t30 31.5t18 45t6 52.5t-6 52.5t-18 45t-30 31.5t-42 12t-42 -12t-30 -31.5t-18 -45t-6 -52.5zM50 484q0 33 9 64.5t26 56t42.5 39t57.5 14.5t57 -14.5t42.5 -39t26.5 -56t9 -64.5t-9 -64.5
t-26.5 -56t-42.5 -39t-57 -14.5t-57.5 14.5t-42.5 39t-26 56t-9 64.5zM463 166q0 -27 6 -52.5t18 -45t30 -31.5t42 -12t42 12t30 31.5t18 45t6 52.5t-6 52.5t-18 45t-30 31.5t-42 12t-42 -12t-30 -31.5t-18 -45t-6 -52.5zM424 166q0 33 9 64.5t26 56t42.5 39t57.5 14.5
t57 -14.5t42.5 -39t26.5 -56t9 -64.5t-9 -64.5t-26.5 -56t-42.5 -39t-57 -14.5t-57.5 14.5t-42.5 39t-26 56t-9 64.5z" />
    <glyph glyph-name="ampersand" unicode="&#x26;" horiz-adv-x="620" 
d="M481 55q-42 -33 -91 -48t-109 -15q-55 0 -95.5 14.5t-67 38t-39.5 54t-13 63.5q0 39 12.5 69.5t33 56t47 46.5t55.5 41l-22 27q-16 19 -29.5 36.5t-23.5 34.5t-16 35t-6 39q0 28 11.5 53t32.5 43t50 28.5t65 10.5q37 0 64.5 -11t46.5 -29.5t28.5 -42.5t9.5 -49
q0 -30 -11.5 -54t-32 -45t-48.5 -41t-62 -42l213 -257q26 35 38.5 83t12.5 100v34h43v-34q0 -65 -16.5 -117t-51.5 -97l66 -80h-49zM286 33q47 0 90 11.5t78 42.5l-217 261q-25 -19 -47.5 -38t-39 -41t-26 -48.5t-9.5 -59.5q0 -56 45.5 -92t125.5 -36zM162 547
q0 -38 18.5 -67.5t49.5 -63.5l20 -22q26 16 49.5 33.5t41.5 36t28.5 40t10.5 47.5q0 42 -28.5 68t-76.5 26q-21 0 -41.5 -6t-36 -18t-25.5 -30.5t-10 -43.5z" />
    <glyph glyph-name="quotesingle" unicode="'" horiz-adv-x="174" 
d="M101 452h-28l-5 236h38z" />
    <glyph glyph-name="parenleft" unicode="(" horiz-adv-x="290" 
d="M76 282q0 76 16 139.5t42.5 115t60.5 91t70 66.5l15 -25q-33 -26 -61.5 -65t-49.5 -88.5t-33 -108.5t-12 -125t12 -125t33 -108.5t49.5 -89t61.5 -64.5l-15 -25q-36 27 -70 66.5t-60.5 91t-42.5 115t-16 139.5z" />
    <glyph glyph-name="parenright" unicode=")" horiz-adv-x="290" 
d="M214 282q0 -76 -16 -139.5t-42.5 -115t-60.5 -91t-70 -66.5l-15 25q33 25 61.5 64.5t49.5 89t33 108.5t12 125t-12 125t-33 108.5t-49.5 88.5t-61.5 65l15 25q36 -27 70 -66.5t60.5 -91t42.5 -115t16 -139.5z" />
    <glyph glyph-name="asterisk" unicode="*" horiz-adv-x="465" 
d="M244 505l140 92l21 -36l-150 -74l150 -74l-21 -37l-139 91l9 -167h-42l10 168l-142 -92l-20 37l150 74l-150 74l20 36l142 -92l-10 169h42z" />
    <glyph glyph-name="plus" unicode="+" horiz-adv-x="546" 
d="M484 264h-189v-192h-43v192h-190v39h190v193h43v-193h189v-39z" />
    <glyph glyph-name="comma" unicode="," horiz-adv-x="216" 
d="M152 70l-57 -195h-27l25 195h59z" />
    <glyph glyph-name="hyphen" unicode="-" horiz-adv-x="302" 
d="M268 300v-37h-234v37h234z" />
    <glyph glyph-name="period" unicode="." horiz-adv-x="216" 
d="M66 33q0 17 10.5 29t31.5 12t31.5 -12t10.5 -29t-10.5 -29t-31.5 -12t-31.5 12t-10.5 29z" />
    <glyph glyph-name="slash" unicode="/" horiz-adv-x="360" 
d="M59 -40h-44l286 714h44z" />
    <glyph glyph-name="zero" unicode="0" horiz-adv-x="546" 
d="M98 325q0 -146 45.5 -221t129.5 -75t129.5 75t45.5 221t-45.5 221t-129.5 75t-129.5 -75t-45.5 -221zM50 325q0 78 15.5 140t45 104.5t70.5 65.5t92 23t92 -23t70.5 -65.5t45 -104.5t15.5 -140t-15.5 -140t-45 -104.5t-70.5 -65.5t-92 -23t-92 23t-70.5 65.5t-45 104.5
t-15.5 140z" />
    <glyph glyph-name="one" unicode="1" horiz-adv-x="546" 
d="M264 606l-147 -51v36l160 59h34v-609h163v-41h-376v41h166v565z" />
    <glyph glyph-name="two" unicode="2" horiz-adv-x="546" 
d="M269 619q-45 0 -88.5 -12.5t-72.5 -28.5l-12 36q28 16 74 30t98 14q94 0 142 -45t48 -124q0 -44 -14 -82t-39 -74.5t-60 -73t-77 -76.5l-147 -140h356v-43h-414v37l192 194q31 31 59 61t49.5 61t34.5 64.5t13 72.5q0 60 -39.5 94.5t-102.5 34.5z" />
    <glyph glyph-name="three" unicode="3" horiz-adv-x="546" 
d="M249 31q88 0 130 39t42 107q0 66 -41.5 101.5t-119.5 35.5h-87v39h87q68 0 105.5 38t37.5 97q0 60 -40 95.5t-118 35.5q-45 0 -86 -10.5t-73 -28.5l-12 35q30 17 75 30t96 13q49 0 87 -13t64 -35.5t39 -53.5t13 -68q0 -31 -10.5 -57.5t-28.5 -46t-40.5 -32.5t-46.5 -17
q34 -4 61 -18t46 -35.5t29 -48.5t10 -56q0 -85 -58.5 -135t-160.5 -50q-60 0 -104.5 11.5t-76.5 28.5l13 36q31 -16 72.5 -26.5t95.5 -10.5z" />
    <glyph glyph-name="four" unicode="4" horiz-adv-x="546" 
d="M374 175v387l-276 -387h276zM382 648h38v-473h78v-43h-78v-132h-48v132h-330v33z" />
    <glyph glyph-name="five" unicode="5" horiz-adv-x="546" 
d="M252 31q38 0 70.5 11.5t56.5 33t37.5 53t13.5 71.5q0 35 -10.5 64t-33.5 49.5t-59.5 32t-88.5 11.5h-147v39l26 254h320v-43h-283l-20 -211h105q117 0 178 -53.5t61 -145.5q0 -48 -17 -86t-47 -64.5t-71.5 -40.5t-90.5 -14q-68 0 -114 14.5t-78 32.5l13 36
q31 -18 77.5 -31t101.5 -13z" />
    <glyph glyph-name="six" unicode="6" horiz-adv-x="546" 
d="M298 382q-29 0 -56.5 -9t-51.5 -24t-45 -34t-36 -39q0 -52 13 -97.5t36.5 -79t56 -53t71.5 -19.5q73 0 113.5 47.5t40.5 137.5q0 34 -7.5 65t-24 54.5t-43.5 37t-67 13.5zM305 623q-94 0 -142 -77.5t-54 -224.5q13 17 32 34t43 31t52.5 22.5t62.5 8.5q91 0 140 -55
t49 -152q0 -43 -13.5 -82.5t-39 -69.5t-63.5 -48t-86 -18q-105 0 -164.5 81t-59.5 244q0 166 63 253.5t178 87.5q42 0 75 -9t56 -22l-9 -31q-53 27 -120 27z" />
    <glyph glyph-name="seven" unicode="7" horiz-adv-x="546" 
d="M71 650h409v-33l-283 -617h-48l280 607h-358v43z" />
    <glyph glyph-name="eight" unicode="8" horiz-adv-x="546" 
d="M273 27q82 0 124.5 36.5t42.5 104.5q0 65 -40.5 107t-126.5 42t-126.5 -42t-40.5 -107q0 -68 42.5 -104.5t124.5 -36.5zM273 658q43 0 78.5 -11t60.5 -32t39 -51t14 -67t-11 -64.5t-28 -47t-38.5 -32t-43.5 -19.5q30 -6 55.5 -20.5t44.5 -36.5t30 -50t11 -61
q0 -81 -54.5 -127.5t-157.5 -46.5t-157.5 46.5t-54.5 127.5q0 33 11 61t30 50t44.5 36.5t55.5 20.5q-22 7 -43.5 19.5t-39 32t-28 47t-10.5 64.5t14 67t39 51t60.5 32t78.5 11zM273 350q69 0 108 37t39 105t-38 99.5t-109 31.5t-109 -31.5t-38 -99.5t39 -105t108 -37z" />
    <glyph glyph-name="nine" unicode="9" horiz-adv-x="546" 
d="M248 268q29 0 56.5 9t51.5 24t45 34t36 39q0 52 -13 97.5t-36.5 79t-56 53t-71.5 19.5q-73 0 -113.5 -47.5t-40.5 -137.5q0 -35 7.5 -65.5t24 -54t43.5 -37t67 -13.5zM241 27q50 0 86 20t59.5 58t35.5 94.5t15 129.5q-14 -15 -32.5 -32t-42.5 -31t-52.5 -23.5t-62.5 -9.5
q-91 0 -140 55t-49 152q0 43 13.5 82.5t39 69.5t63.5 48t86 18q105 0 164.5 -81t59.5 -244q0 -166 -59 -253.5t-182 -87.5q-46 0 -79 9t-56 22l9 31q52 -27 124 -27z" />
    <glyph glyph-name="colon" unicode=":" horiz-adv-x="236" 
d="M76 435q0 17 10.5 29t31.5 12t31.5 -12t10.5 -29t-10.5 -29t-31.5 -12t-31.5 12t-10.5 29zM76 32q0 17 10.5 29t31.5 12t31.5 -12t10.5 -29t-10.5 -29t-31.5 -12t-31.5 12t-10.5 29z" />
    <glyph glyph-name="semicolon" unicode=";" horiz-adv-x="236" 
d="M76 435q0 17 10.5 29t31.5 12t31.5 -12t10.5 -29t-10.5 -29t-31.5 -12t-31.5 12t-10.5 29zM158 70l-57 -195h-27l25 195h59z" />
    <glyph glyph-name="less" unicode="&#x3c;" horiz-adv-x="546" 
d="M60 307l406 231v-46l-356 -200l356 -200v-46l-406 231v30z" />
    <glyph glyph-name="equal" unicode="=" horiz-adv-x="546" 
d="M472 369h-398v39h398v-39zM472 174h-398v39h398v-39z" />
    <glyph glyph-name="greater" unicode="&#x3e;" horiz-adv-x="546" 
d="M486 277l-406 -231v46l356 200l-356 200v46l406 -231v-30z" />
    <glyph glyph-name="question" unicode="?" horiz-adv-x="472" 
d="M225 643q-45 0 -89 -14t-72 -32l-12 36q29 17 74.5 33t97.5 16q92 0 140 -43.5t48 -120.5q0 -35 -13 -63.5t-32.5 -53.5t-42 -48t-42 -46t-32.5 -47.5t-13 -53.5q0 -25 8 -46h-43q-5 9 -8.5 22t-3.5 27q0 31 13 57.5t32.5 50t42 46t42 46.5t32.5 50.5t13 58.5
q0 25 -8 47.5t-24.5 39.5t-43.5 27.5t-64 10.5zM182 32q0 17 10.5 29t31.5 12t31.5 -12t10.5 -29t-10.5 -29t-31.5 -12t-31.5 12t-10.5 29z" />
    <glyph glyph-name="at" unicode="@" horiz-adv-x="812" 
d="M516 479q-18 7 -46 11.5t-55 4.5q-80 0 -114.5 -44.5t-34.5 -121.5q0 -40 10 -69.5t26.5 -49t38 -29t44.5 -9.5q29 0 53 12t41.5 32.5t27 47t9.5 55.5v160zM93 327q0 -78 23.5 -136.5t64 -97.5t96 -58t120.5 -19q41 0 80.5 9.5t74.5 29.5q5 -8 7 -13t5 -12
q-31 -19 -74 -29.5t-95 -10.5q-72 0 -132.5 21t-104.5 63t-69 105t-25 148q0 71 23 135.5t67.5 114t110 78.5t151.5 29q78 0 140 -24.5t104.5 -68t65 -102.5t22.5 -128q0 -62 -11.5 -105t-30 -70.5t-41.5 -40t-46 -12.5t-39.5 9.5t-27.5 25.5t-16.5 36t-5.5 41
q-15 -50 -54 -81t-90 -31q-76 0 -119.5 52.5t-43.5 143.5q0 43 11.5 80.5t35 65.5t60 43.5t86.5 15.5q42 0 78 -9.5t65 -22.5v-246q0 -37 14 -64.5t45 -27.5q15 0 32.5 9t32 31t24.5 60t10 97q0 54 -17 107.5t-53 95.5t-93 68.5t-137 26.5q-79 0 -139.5 -26.5t-101.5 -71.5
t-62 -105.5t-21 -128.5z" />
    <glyph glyph-name="A" unicode="A" horiz-adv-x="607" 
d="M146 199l-73 -199h-48l256 674h45l256 -674h-48l-73 199h-315zM352 482l-48 142h-2l-49 -144l-91 -241h283z" />
    <glyph glyph-name="B" unicode="B" horiz-adv-x="609" 
d="M414 352q29 -3 55.5 -15t47 -33t32.5 -50.5t12 -66.5q0 -41 -14 -75.5t-42.5 -59t-72 -38.5t-103.5 -14h-241v674h240q94 0 148.5 -43.5t54.5 -123.5q0 -30 -9.5 -56t-25.5 -46t-37.5 -33.5t-44.5 -19.5zM328 41q97 0 141.5 37.5t44.5 108.5q0 40 -13 67t-37.5 43.5
t-59 23.5t-77.5 7h-192v-287h193zM329 369q67 0 111 34.5t44 103.5q0 64 -41 95t-115 31h-193v-264h194z" />
    <glyph glyph-name="C" unicode="C" horiz-adv-x="563" 
d="M365 639q-127 0 -197.5 -77t-70.5 -225q0 -72 18.5 -128t52.5 -94.5t82.5 -58t108.5 -19.5q48 0 85.5 10.5t66.5 24.5l12 -40q-17 -9 -34.5 -16t-37 -12t-42 -7.5t-50.5 -2.5q-79 0 -137 24.5t-96.5 69.5t-57 108t-18.5 141t20.5 141.5t60 109t98.5 70t136 24.5
q47 0 85.5 -10.5t66.5 -24.5l-11 -39q-29 13 -64.5 22t-76.5 9z" />
    <glyph glyph-name="D" unicode="D" horiz-adv-x="638" 
d="M588 338q0 -166 -85 -252t-250 -86h-165v674h165q165 0 250 -85.5t85 -250.5zM541 338q0 155 -75 224t-213 69h-118v-588h118q69 0 122.5 17t90.5 53t56 92t19 133z" />
    <glyph glyph-name="E" unicode="E" horiz-adv-x="538" 
d="M88 674h394v-42h-347v-264h325v-42h-325v-285h353v-41h-400v674z" />
    <glyph glyph-name="F" unicode="F" horiz-adv-x="518" 
d="M88 674h386v-43h-339v-273h317v-44h-317v-314h-47v674z" />
    <glyph glyph-name="G" unicode="G" horiz-adv-x="636" 
d="M359 682q60 0 103.5 -12.5t72.5 -26.5l-12 -39q-29 15 -69.5 25t-88.5 10q-60 0 -109.5 -18.5t-84.5 -57.5t-54.5 -99t-19.5 -143q0 -63 16 -115.5t45.5 -90.5t72 -59t96.5 -21q36 0 70 15t60.5 41.5t42 63.5t15.5 81v84h-143v38h188v-358h-33l-12 111
q-26 -50 -75.5 -84.5t-118.5 -34.5q-63 0 -113 24.5t-85.5 68t-54 104t-18.5 133.5q0 90 22.5 157.5t63 112.5t97.5 67.5t126 22.5z" />
    <glyph glyph-name="H" unicode="H" horiz-adv-x="648" 
d="M513 325h-378v-325h-47v674h47v-306h378v306h47v-674h-47v325z" />
    <glyph glyph-name="I" unicode="I" horiz-adv-x="227" 
d="M137 0h-47v674h47v-674z" />
    <glyph glyph-name="J" unicode="J" horiz-adv-x="374" 
d="M289 185q0 -99 -41.5 -146t-114.5 -47q-33 0 -63.5 7t-55.5 21l13 39q21 -12 48.5 -18t56.5 -6q52 0 81 33.5t29 116.5v489h47v-489z" />
    <glyph glyph-name="K" unicode="K" horiz-adv-x="580" 
d="M252 359l312 -359h-56l-301 345v26l288 303h57zM135 0h-47v674h47v-674z" />
    <glyph glyph-name="L" unicode="L" horiz-adv-x="504" 
d="M88 674h47v-631h335v-43h-382v674z" />
    <glyph glyph-name="M" unicode="M" horiz-adv-x="766" 
d="M384 153q7 18 17.5 43.5t24.5 53.5l204 424h48v-674h-46v485q0 13 0.5 29t1.5 32.5t2 32.5t3 29h-2q-3 -9 -8 -22t-10 -26.5t-10.5 -26t-9.5 -21.5l-193 -396h-46l-193 396q-4 9 -9.5 21.5t-10.5 26t-10 26.5t-8 22h-2q1 -13 2.5 -29t2.5 -32.5t1.5 -32.5t0.5 -29v-485
h-46v674h48l204 -424q14 -28 24.5 -53.5t17.5 -43.5h2z" />
    <glyph glyph-name="N" unicode="N" horiz-adv-x="656" 
d="M467 158q18 -28 33 -52t26 -44h2q-4 29 -5.5 60t-1.5 67v485h47v-674h-50l-329 516q-18 28 -33 52t-26 44h-2q4 -29 5.5 -60t1.5 -67v-485h-47v674h50z" />
    <glyph glyph-name="O" unicode="O" horiz-adv-x="674" 
d="M337 33q61 0 106 22.5t75 63t44.5 96.5t14.5 122t-14.5 121.5t-44.5 96t-75 63.5t-106 23t-106 -23t-75 -63.5t-44.5 -96t-14.5 -121.5t14.5 -122t44.5 -96.5t75 -63t106 -22.5zM337 -8q-72 0 -125.5 26t-89.5 72t-54 109.5t-18 137.5t18 137.5t54 109.5t89.5 72
t125.5 26t125.5 -26t89.5 -72t54 -109.5t18 -137.5t-18 -137.5t-54 -109.5t-89.5 -72t-125.5 -26z" />
    <glyph glyph-name="P" unicode="P" horiz-adv-x="548" 
d="M508 472q0 -48 -16.5 -86.5t-45.5 -64.5t-70 -40t-90 -14h-151v-267h-47v674h205q51 0 91 -15t67.5 -41.5t42 -63.5t14.5 -82zM461 472q0 75 -42.5 117.5t-125.5 42.5h-158v-323h151q82 0 128.5 43t46.5 120z" />
    <glyph glyph-name="Q" unicode="Q" horiz-adv-x="674" 
d="M186 -154v40h23q24 0 45 8.5t36.5 23t25.5 34t13 41.5q-70 1 -122 28t-87 72.5t-52.5 108t-17.5 135.5q0 74 18 137.5t54 109.5t89.5 72t125.5 26t125.5 -26t89.5 -72t54 -109.5t18 -137.5q0 -69 -15.5 -128t-46 -104.5t-76.5 -74t-107 -35.5q-7 -42 -29.5 -68.5
t-49.5 -39.5h228v-41h-342zM337 33q61 0 106 22.5t75 63t44.5 96.5t14.5 122t-14.5 121.5t-44.5 96t-75 63.5t-106 23t-106 -23t-75 -63.5t-44.5 -96t-14.5 -121.5t14.5 -122t44.5 -96.5t75 -63t106 -22.5z" />
    <glyph glyph-name="R" unicode="R" horiz-adv-x="584" 
d="M538 480q0 -81 -46.5 -130.5t-124.5 -62.5l175 -287h-52l-172 283h-2h-181v-283h-47v674h235q51 0 91 -14t67.5 -39.5t42 -61.5t14.5 -79zM491 480q0 71 -42.5 111.5t-125.5 40.5h-188v-307h181q82 0 128.5 41t46.5 114z" />
    <glyph glyph-name="S" unicode="S" horiz-adv-x="522" 
d="M257 -8q-71 0 -114.5 12.5t-73.5 29.5l14 39q34 -17 75 -28.5t99 -11.5q37 0 69 8.5t54.5 26t35.5 44.5t13 65q0 39 -14 63t-38 39.5t-55 25.5t-64 21q-34 11 -68 25.5t-61 36t-44 53t-17 75.5q0 34 11 64.5t35.5 53t63 35.5t92.5 13q52 0 94.5 -12t71.5 -27l-13 -35
q-31 15 -72 24t-80 9q-84 0 -121 -35t-37 -93q0 -33 11.5 -55.5t32.5 -39t50 -29t65 -24.5q39 -13 75.5 -27t64.5 -34.5t45 -50.5t17 -76q0 -45 -15.5 -79.5t-44 -58t-68.5 -35.5t-89 -12z" />
    <glyph glyph-name="T" unicode="T" horiz-adv-x="503" 
d="M487 631l-212 1v-632h-47v632l-212 -1v43h471v-43z" />
    <glyph glyph-name="U" unicode="U" horiz-adv-x="652" 
d="M326 -8q-54 0 -98.5 16t-76 50t-49 85t-17.5 122v409h47v-410q0 -121 52 -175t142 -54t142 54t52 175v410h47v-409q0 -71 -17.5 -122t-49 -85t-76 -50t-98.5 -16z" />
    <glyph glyph-name="V" unicode="V" horiz-adv-x="607" 
d="M252 197l50 -149h2l49 147l182 479h48l-256 -674h-47l-256 674h48z" />
    <glyph glyph-name="W" unicode="W" horiz-adv-x="872" 
d="M609 199q12 -41 20.5 -80t13.5 -71h2q5 31 12 70t17 81l116 475h48l-165 -674h-52l-157 524q-8 27 -15 54.5t-12 45.5h-2q-5 -18 -12 -45.5t-15 -54.5l-157 -524h-52l-165 674h48l116 -475q10 -42 17 -81t12 -70h2q5 32 13.5 71t20.5 80l142 475h62z" />
    <glyph glyph-name="X" unicode="X" horiz-adv-x="590" 
d="M295 316l-211 -316h-52l235 350l-217 324h53l192 -289l192 289h53l-217 -324l235 -350h-52z" />
    <glyph glyph-name="Y" unicode="Y" horiz-adv-x="547" 
d="M274 322l205 352h50l-232 -394v-280h-47v280l-232 394h50l205 -352h1z" />
    <glyph glyph-name="Z" unicode="Z" horiz-adv-x="540" 
d="M48 35l381 597h-355v42h411v-36l-380 -596h387v-42h-444v35z" />
    <glyph glyph-name="bracketleft" unicode="[" horiz-adv-x="261" 
d="M88 684h145v-37h-102v-728h102v-37h-145v802z" />
    <glyph glyph-name="backslash" unicode="\" horiz-adv-x="360" 
d="M15 674h44l286 -714h-44z" />
    <glyph glyph-name="bracketright" unicode="]" horiz-adv-x="261" 
d="M173 -118h-145v37h102v728h-102v37h145v-802z" />
    <glyph glyph-name="asciicircum" unicode="^" horiz-adv-x="512" 
d="M466 276h-44l-166 358l-166 -358h-44l189 398h42z" />
    <glyph glyph-name="underscore" unicode="_" horiz-adv-x="408" 
d="M408 -73v-35h-408v35h408z" />
    <glyph glyph-name="grave" unicode="`" horiz-adv-x="280" 
d="M162 568l-13 -18l-149 102l27 36z" />
    <glyph glyph-name="a" unicode="a" horiz-adv-x="498" 
d="M373 249h-118q-90 0 -129.5 -28t-39.5 -89q0 -26 8.5 -45t23.5 -31.5t35 -18.5t42 -6q43 0 76 14.5t55.5 38t34.5 52.5t12 59v54zM373 322q0 72 -33.5 101t-96.5 29q-49 0 -85.5 -10t-65.5 -26l-11 34q27 16 69 28.5t93 12.5q88 0 131.5 -45.5t43.5 -123.5v-322h-33
l-12 95q-27 -49 -72 -76t-107 -27q-32 0 -60 9t-48.5 27t-32 44t-11.5 60q0 78 54 117t159 39h118v34z" />
    <glyph glyph-name="b" unicode="b" horiz-adv-x="549" 
d="M300 -8q-61 0 -103.5 28t-68.5 75l-12 -95h-34v674h46v-286q12 18 29.5 36.5t40.5 33t51 24t61 9.5q40 0 74.5 -15.5t60 -46.5t40 -77.5t14.5 -108.5q0 -67 -15.5 -114.5t-42.5 -78t-63 -44.5t-78 -14zM296 33q29 0 57.5 11t50.5 36t35.5 65t13.5 98q0 55 -11.5 94
t-31 64t-46.5 37t-57 12q-54 0 -99.5 -29t-79.5 -83v-126q0 -33 10.5 -65t31.5 -57.5t52.5 -41t73.5 -15.5z" />
    <glyph glyph-name="c" unicode="c" horiz-adv-x="448" 
d="M273 453q-46 0 -80 -15.5t-56 -43.5t-32.5 -67t-10.5 -85t11 -85t33.5 -67t57.5 -43.5t83 -15.5q32 0 61.5 7.5t55.5 18.5l12 -35q-26 -13 -59.5 -21t-71.5 -8q-57 0 -100 18.5t-71.5 52t-43 79t-14.5 99.5t14 99.5t42.5 79t70.5 52t98 18.5q37 0 68 -7t59 -19l-11 -35
q-23 11 -52 17t-64 6z" />
    <glyph glyph-name="d" unicode="d" horiz-adv-x="549" 
d="M255 -8q-44 0 -81.5 14t-65 44.5t-43 78t-15.5 114.5q0 59 16 105t43.5 78t63.5 48.5t77 16.5q33 0 60 -9.5t48.5 -24.5t37 -33t25.5 -36v286h46v-674h-34l-12 95q-26 -47 -67.5 -75t-98.5 -28zM258 33q40 0 70.5 15.5t51 41t31 57.5t10.5 65v126q-30 51 -72 81.5
t-94 30.5q-32 0 -60.5 -12.5t-50.5 -38t-35 -64.5t-13 -92q0 -58 13.5 -98t36 -65t52 -36t60.5 -11z" />
    <glyph glyph-name="e" unicode="e" horiz-adv-x="492" 
d="M93 220q4 -84 49 -136.5t136 -52.5q38 0 70.5 10t57.5 24l12 -35q-25 -15 -61.5 -26t-80.5 -11q-57 0 -100 18.5t-71.5 52t-42.5 79t-14 99.5t13.5 99.5t40.5 79t67.5 52t94.5 18.5q88 0 134 -50t46 -141q0 -19 -3.5 -42t-8.5 -38h-339zM264 454q-45 0 -77 -15t-52 -41
t-30 -63t-11 -80h304q2 9 3 21.5t1 23.5q0 79 -33.5 116.5t-104.5 37.5z" />
    <glyph glyph-name="f" unicode="f" horiz-adv-x="326" 
d="M248 643q-60 0 -80.5 -34t-20.5 -97v-29h149v-38h-149v-445h-45v445h-84v38h84v30q0 77 31 123t106 46q26 0 49 -5.5t40 -14.5l-10 -33q-15 7 -34 10.5t-36 3.5z" />
    <glyph glyph-name="g" unicode="g" horiz-adv-x="559" 
d="M258 33q40 0 70.5 15.5t51 41t31 57.5t10.5 65v126q-30 51 -72 81.5t-94 30.5q-32 0 -60.5 -12.5t-50.5 -38t-35 -64.5t-13 -92q0 -58 13.5 -98t36 -65t52 -36t60.5 -11zM421 95q-26 -47 -67.5 -75t-98.5 -28q-44 0 -81.5 14t-65 44.5t-43 78t-15.5 114.5q0 59 16 105
t43.5 78t63.5 48.5t77 16.5q33 0 60 -9.5t48.5 -24.5t37 -33t25.5 -36l12 95h34v-461q0 -112 -54.5 -167t-151.5 -55q-51 0 -93.5 13t-70.5 28l12 37q28 -15 67.5 -26t86.5 -11q36 0 65 9.5t49.5 31t32 56.5t11.5 85v72z" />
    <glyph glyph-name="h" unicode="h" horiz-adv-x="558" 
d="M128 0h-46v674h46v-286q15 19 34.5 37.5t44 33t52.5 23.5t59 9q76 0 118 -47t42 -134v-310h-46v310q0 67 -32 103.5t-86 36.5q-29 0 -56 -9.5t-51.5 -25.5t-44.5 -36t-34 -41v-338z" />
    <glyph glyph-name="i" unicode="i" horiz-adv-x="216" 
d="M131 0h-46v483h46v-483zM108 682q19 0 29.5 -11t10.5 -27t-10.5 -27t-29.5 -11t-29.5 11t-10.5 27t10.5 27t29.5 11z" />
    <glyph glyph-name="j" unicode="j" horiz-adv-x="216" 
d="M131 -56q0 -40 -8 -67.5t-22.5 -44.5t-34 -24.5t-42.5 -7.5q-22 0 -40 5t-29 11l11 34q11 -5 24 -8.5t30 -3.5q40 0 52.5 27t12.5 79v539h46v-539zM108 682q19 0 29.5 -11t10.5 -27t-10.5 -27t-29.5 -11t-29.5 11t-10.5 27t10.5 27t29.5 11z" />
    <glyph glyph-name="k" unicode="k" horiz-adv-x="477" 
d="M459 0h-53l-223 257v27l204 199h56l-217 -211zM126 0h-46v674h46v-674z" />
    <glyph glyph-name="l" unicode="l" horiz-adv-x="216" 
d="M131 0h-46v674h46v-674z" />
    <glyph glyph-name="m" unicode="m" horiz-adv-x="792" 
d="M128 0h-46v483h34l12 -95q11 18 28 36.5t38.5 33.5t46.5 24t53 9q54 0 82.5 -29.5t38.5 -80.5q26 46 71.5 78t99.5 32q67 0 96.5 -46t29.5 -123v-322h-46v322q0 59 -17 93.5t-69 34.5q-46 0 -89 -30.5t-72 -80.5q0 -5 0.5 -8.5t0.5 -8.5v-322h-46v322q0 59 -17 93.5
t-69 34.5q-25 0 -48 -9t-43.5 -24.5t-38 -36t-30.5 -42.5v-338z" />
    <glyph glyph-name="n" unicode="n" horiz-adv-x="556" 
d="M128 0h-46v483h34l12 -95q15 19 34.5 37.5t43.5 33t52 23.5t59 9q76 0 117.5 -47t41.5 -134v-310h-46v310q0 67 -31.5 103.5t-85.5 36.5q-29 0 -56 -9.5t-51 -25.5t-44 -36t-34 -41v-338z" />
    <glyph glyph-name="o" unicode="o" horiz-adv-x="530" 
d="M265 491q55 0 95.5 -18.5t67.5 -52t40.5 -79t13.5 -99.5t-13.5 -99.5t-40.5 -79t-67.5 -52t-95.5 -18.5t-95.5 18.5t-67.5 52t-40.5 79t-13.5 99.5t13.5 99.5t40.5 79t67.5 52t95.5 18.5zM265 31q45 0 77.5 15.5t53 43.5t30.5 67t10 85t-10 85t-30.5 67t-53 43.5
t-77.5 15.5t-77.5 -15.5t-53 -43.5t-30.5 -67t-10 -85t10 -85t30.5 -67t53 -43.5t77.5 -15.5z" />
    <glyph glyph-name="p" unicode="p" horiz-adv-x="549" 
d="M299 -8q-60 0 -102.5 28t-68.5 75v-286h-46v674h34l12 -95q12 18 29.5 36.5t40.5 33t51 24t61 9.5q40 0 74.5 -15.5t60 -46.5t40 -77.5t14.5 -108.5q0 -67 -15.5 -114.5t-42.5 -78t-63.5 -44.5t-78.5 -14zM296 33q29 0 57.5 11t50.5 36t35.5 65t13.5 98q0 55 -11.5 94
t-31 64t-46.5 37t-57 12q-54 0 -99.5 -29t-79.5 -83v-126q0 -33 10.5 -65t31.5 -57.5t52.5 -41t73.5 -15.5z" />
    <glyph glyph-name="q" unicode="q" horiz-adv-x="559" 
d="M255 -8q-44 0 -81.5 14t-65 44.5t-43 78t-15.5 114.5q0 59 16 105t43.5 78t63.5 48.5t77 16.5q33 0 60 -9.5t48.5 -24.5t37 -33t25.5 -36l12 95h34v-674h-46v286q-26 -47 -67.5 -75t-98.5 -28zM258 33q40 0 70.5 15.5t51 41t31 57.5t10.5 65v126q-30 51 -72 81.5
t-94 30.5q-32 0 -60.5 -12.5t-50.5 -38t-35 -64.5t-13 -92q0 -58 13.5 -98t36 -65t52 -36t60.5 -11z" />
    <glyph glyph-name="r" unicode="r" horiz-adv-x="362" 
d="M128 0h-46v483h34l12 -95q12 21 27.5 39.5t34.5 32.5t41 22.5t46 8.5q21 0 37.5 -4.5t27.5 -10.5l-12 -44q-10 6 -23.5 10t-34.5 4q-48 0 -83 -31t-61 -77v-338z" />
    <glyph glyph-name="s" unicode="s" horiz-adv-x="422" 
d="M201 31q64 0 94.5 24t30.5 66q0 24 -10 41t-28 30t-42.5 22t-52.5 18q-30 9 -55.5 20.5t-44.5 28t-30 38.5t-11 53q0 30 12 52.5t33.5 37.5t50.5 22t62 7q43 0 79 -9t64 -21l-12 -37q-26 12 -60 20t-71 8q-54 0 -84 -19t-30 -57q0 -44 32.5 -67.5t80.5 -36.5
q79 -23 120 -57t41 -94t-42 -94.5t-127 -34.5q-42 0 -82 9.5t-66 21.5l12 36q24 -11 61 -19.5t75 -8.5z" />
    <glyph glyph-name="t" unicode="t" horiz-adv-x="336" 
d="M147 125q0 -51 16 -71.5t56 -20.5q23 0 43.5 7t34.5 18l13 -33q-17 -12 -40.5 -21.5t-55.5 -9.5q-56 0 -84 30t-28 100v321h-84v38h83l16 138h30v-138h153v-38h-153v-320z" />
    <glyph glyph-name="u" unicode="u" horiz-adv-x="546" 
d="M418 483h46v-483h-34l-12 95q-9 -18 -26 -36t-39.5 -33t-51 -24.5t-60.5 -9.5q-78 0 -119.5 47t-41.5 134v310h46v-310q0 -67 28.5 -103.5t90.5 -36.5q28 0 55 10t49.5 25.5t40 35.5t28.5 41v338z" />
    <glyph glyph-name="v" unicode="v" horiz-adv-x="444" 
d="M167 211l54 -162h2l54 162l99 272h48l-179 -483h-46l-179 483h48z" />
    <glyph glyph-name="w" unicode="w" horiz-adv-x="662" 
d="M358 483l96 -300q10 -30 19 -66.5t15 -70.5h2q1 13 3.5 31t6 39t8 42.5t9.5 42.5l72 282h43l-123 -483h-37l-118 366q-6 20 -12 41.5t-10 40.5h-2q-4 -19 -10 -40.5t-12 -41.5l-118 -366h-37l-123 483h43l72 -282q5 -21 9.5 -42.5t8 -42.5t5.5 -39t4 -31h2q6 34 15 70.5
t19 66.5l96 300h54z" />
    <glyph glyph-name="x" unicode="x" horiz-adv-x="470" 
d="M211 255l-167 228h51l140 -196l140 196h51l-168 -228l188 -255h-51l-160 223l-160 -223h-51z" />
    <glyph glyph-name="y" unicode="y" horiz-adv-x="555" 
d="M416 103q-9 -18 -25.5 -36.5t-39 -33t-50.5 -24t-60 -9.5q-78 0 -119.5 47t-41.5 134v302h46v-302q0 -67 28.5 -103.5t90.5 -36.5q28 0 54.5 10t49 25.5t39.5 35.5t28 41v330h46v-461q0 -222 -190 -222q-54 0 -99 14.5t-71 31.5l12 37q26 -16 68 -29t90 -13q35 0 62 9.5
t45 31t27.5 56.5t9.5 85v80z" />
    <glyph glyph-name="z" unicode="z" horiz-adv-x="441" 
d="M42 27l290 418h-267v38h324v-27l-290 -418h298v-38h-355v27z" />
    <glyph glyph-name="braceleft" unicode="{" horiz-adv-x="288" 
d="M52 304q25 1 40 7t23 16.5t10.5 26t2.5 35.5q0 45 -8 85.5t-8 82.5q0 65 32.5 96t90.5 31h21v-32h-21q-47 0 -64 -27t-17 -72q0 -23 3 -44t6 -41.5t6 -40.5t3 -42q0 -35 -16 -64t-61 -38q45 -9 61 -38t16 -64q0 -22 -3 -42t-6 -40.5t-6 -41.5t-3 -44q0 -45 17 -72t64 -27
h21v-32h-21q-58 0 -90.5 31t-32.5 96q0 42 8 82.5t8 85.5q0 20 -2.5 35.5t-10.5 26t-23 16.5t-40 7v42z" />
    <glyph glyph-name="bar" unicode="|" horiz-adv-x="243" 
d="M143 -200h-43v974h43v-974z" />
    <glyph glyph-name="braceright" unicode="}" horiz-adv-x="288" 
d="M236 262q-25 -1 -40 -7t-23 -16.5t-10.5 -26t-2.5 -35.5q0 -45 8 -85.5t8 -82.5q0 -65 -32.5 -96t-90.5 -31h-21v32h21q47 0 64 27t17 72q0 23 -3 44t-6 41.5t-6 40.5t-3 42q0 35 16 64t61 38q-45 9 -61 38t-16 64q0 22 3 42t6 40.5t6 41.5t3 44q0 45 -17 72t-64 27h-21
v32h21q58 0 90.5 -31t32.5 -96q0 -42 -8 -82.5t-8 -85.5q0 -20 2.5 -35.5t10.5 -26t23 -16.5t40 -7v-42z" />
    <glyph glyph-name="asciitilde" unicode="~" horiz-adv-x="520" 
d="M174 388q32 0 53 -9.5t39 -21t35.5 -21t42.5 -9.5q38 0 63.5 18.5t42.5 42.5l20 -20q-9 -14 -22 -28t-29.5 -25.5t-35 -19t-37.5 -7.5q-33 0 -54.5 9.5t-39 21t-35 21t-41.5 9.5q-38 0 -63.5 -18.5t-42.5 -42.5l-20 20q9 13 22 27.5t29.5 26t34.5 19t38 7.5z" />
    <glyph glyph-name="uni007F" horiz-adv-x="500" 
 />
    <glyph glyph-name="nonbreakingspace" unicode="&#xa0;" 
 />
    <glyph glyph-name="exclamdown" unicode="&#xa1;" horiz-adv-x="227" 
d="M89 -39l12 334h24l11 -334v-152h-47v152zM155 450q0 -17 -10.5 -29t-31.5 -12t-31.5 12t-10.5 29t10.5 29t31.5 12t31.5 -12t10.5 -29z" />
    <glyph glyph-name="cent" unicode="&#xa2;" horiz-adv-x="546" 
d="M296 -6q-51 4 -90 24t-65.5 53t-39.5 76.5t-13 94.5t13.5 95t39.5 77t65 53t90 23v94h35v-93q32 -2 61.5 -8.5t55.5 -17.5l-11 -35q-21 9 -48 15t-58 8v-422q29 1 59 8t54 18l12 -35q-24 -12 -57 -19.5t-68 -9.5v-93h-35v94zM134 242q0 -43 9.5 -79.5t29.5 -64t50.5 -45
t72.5 -21.5v420q-82 -8 -122 -65t-40 -145z" />
    <glyph glyph-name="sterling" unicode="&#xa3;" horiz-adv-x="546" 
d="M94 353h84q-17 31 -30 64t-13 73q0 39 16 70t43 52.5t62.5 33.5t75.5 12q49 0 84 -11t58 -25l-11 -34q-26 16 -54 24.5t-73 8.5q-40 0 -69 -13t-47.5 -33.5t-27.5 -45.5t-9 -50q0 -35 13 -66t30 -60h173v-34h-155q13 -24 21.5 -49.5t8.5 -54.5q0 -60 -25 -102t-64 -70
h327v-43h-428v43h40q31 9 51.5 27.5t33 42t17.5 50t5 52.5q0 27 -10 52.5t-24 51.5h-103v34z" />
    <glyph glyph-name="currency" unicode="&#xa4;" horiz-adv-x="568" 
d="M453 131l-55 57q-29 -18 -55.5 -28t-57.5 -10t-58 10t-54 29l-57 -58l-26 29h-1l56 57q-20 26 -29.5 52.5t-9.5 58.5q0 30 9.5 57.5t29.5 56.5l-57 55l27 28l58 -57q27 21 54.5 30.5t56.5 9.5q30 0 57.5 -10t55.5 -30l56 56l26 -27l-55 -56q20 -29 30 -55.5t10 -57.5
q0 -28 -10 -56.5t-30 -54.5l56 -56zM427 328q0 30 -11.5 55.5t-31.5 44.5t-46 30t-54 11q-29 0 -54.5 -11t-44.5 -30t-30 -44.5t-11 -55.5q0 -29 11 -54.5t30 -44.5t44.5 -29.5t54.5 -10.5q28 0 54 10.5t46 29.5t31.5 44.5t11.5 54.5z" />
    <glyph glyph-name="yen" unicode="&#xa5;" horiz-adv-x="546" 
d="M88 221h162v59l-19 33h-143v34h123l-173 303h50l185 -328h1l185 328h50l-174 -303h124v-34h-143l-19 -33v-59h162v-34h-162v-187h-47v187h-162v34z" />
    <glyph glyph-name="brokenbar" unicode="&#xa6;" horiz-adv-x="236" 
d="M141 323h-46v351h46v-351zM141 -175h-46v351h46v-351z" />
    <glyph glyph-name="section" unicode="&#xa7;" horiz-adv-x="546" 
d="M263 398q-35 10 -53.5 17.5t-31.5 15.5q-16 -10 -27 -23q-10 -11 -18 -28t-8 -40q0 -28 16 -47t38 -32t45 -20.5t37 -11.5q25 -8 39.5 -12.5t22.5 -7.5t12.5 -5t9.5 -5q19 6 35 17q14 9 25 24t11 37q0 42 -43 72t-110 49zM261 -25q22 0 47 5.5t45 17t33.5 29.5t13.5 44
q0 25 -12.5 43.5t-32.5 32.5t-44.5 23.5t-48.5 17.5q-24 6 -55 17t-59 29t-47 44t-19 62t18 64.5t47 43.5q-26 25 -36 48t-10 55q0 57 49 94t134 37q36 0 70 -7t63 -19l-11 -34q-26 13 -52 19t-58 6q-80 0 -116 -26t-36 -70q0 -26 11 -44t29.5 -31.5t43 -24t51.5 -19.5
t58.5 -21.5t58.5 -30.5t45 -42t18 -56q0 -35 -21 -62t-58 -40q34 -20 48 -51.5t14 -59.5q0 -32 -15 -56t-40 -40t-57.5 -24.5t-66.5 -8.5q-68 0 -107 10t-69 24l8 31q18 -7 35 -12.5t36 -9.5t42 -6t53 -2z" />
    <glyph glyph-name="dieresis" unicode="&#xa8;" horiz-adv-x="280" 
d="M45 659q17 0 27 -10.5t10 -24.5t-10 -24.5t-27 -10.5t-27 10.5t-10 24.5t10 24.5t27 10.5zM235 659q17 0 27 -10.5t10 -24.5t-10 -24.5t-27 -10.5t-27 10.5t-10 24.5t10 24.5t27 10.5z" />
    <glyph glyph-name="copyright" unicode="&#xa9;" horiz-adv-x="684" 
d="M40 337q0 65 24 122t65 99t96 66.5t117 24.5q61 0 116 -24.5t96.5 -66.5t65.5 -99t24 -122t-24 -122t-65.5 -99t-96.5 -66.5t-116 -24.5q-62 0 -117 24.5t-96 66.5t-65 99t-24 122zM612 337q0 59 -20.5 110.5t-56.5 90t-85.5 61t-107.5 22.5t-107.5 -22.5t-85.5 -61
t-56.5 -90t-20.5 -110.5t20.5 -111t56.5 -90.5t85.5 -61t107.5 -22.5t107.5 22.5t85.5 61t56.5 90.5t20.5 111zM359 481q-33 0 -57 -11t-39.5 -30.5t-23 -46t-7.5 -57.5t7.5 -57.5t23 -46t39 -30.5t56.5 -11q20 0 41.5 4t41.5 13l9 -26q-21 -10 -44.5 -15.5t-49.5 -5.5
q-43 0 -74 13.5t-51 37t-29.5 55.5t-9.5 69t9.5 69t30 55.5t51.5 37t75 13.5q26 0 47.5 -5t42.5 -15l-10 -26q-18 8 -38.5 12t-40.5 4z" />
    <glyph glyph-name="ordfeminine" unicode="&#xaa;" horiz-adv-x="336" 
d="M254 480h-85q-53 0 -81 -22t-28 -62q0 -30 20.5 -48t52.5 -18q27 0 49.5 10t38.5 26t24.5 37t8.5 42v35zM254 532q0 46 -26.5 68t-69.5 22q-29 0 -55 -7t-48 -18l-12 33q21 11 52 20t69 9q66 0 97 -34.5t31 -93.5v-231h-30l-11 66q-24 -32 -51.5 -52.5t-72.5 -20.5
q-47 0 -78 26t-31 77q0 60 40.5 88t110.5 28h85v20z" />
    <glyph glyph-name="guillemotleft" unicode="&#xab;" horiz-adv-x="423" 
d="M173 420h43l-130 -178l130 -178h-43l-133 178zM334 420h43l-130 -178l130 -178h-43l-133 178z" />
    <glyph glyph-name="logicalnot" unicode="&#xac;" horiz-adv-x="483" 
d="M388 136v188h-348v40h393v-228h-45z" />
    <glyph glyph-name="uni00AD" unicode="&#xad;" horiz-adv-x="282" 
d="M10 228v46h262v-46h-262z" />
    <glyph glyph-name="registered" unicode="&#xae;" horiz-adv-x="525" 
d="M40 462q0 46 16 86.5t45.5 70.5t70.5 47.5t91 17.5t91 -17.5t70 -47.5t45 -70.5t16 -86.5q0 -47 -16 -87.5t-45 -70.5t-70 -47.5t-91 -17.5t-91 17.5t-70.5 47.5t-45.5 70.5t-16 87.5zM457 462q0 41 -14 77t-39.5 63t-61.5 43t-79 16q-44 0 -79.5 -16t-61 -43t-39.5 -63
t-14 -77t14 -77.5t39.5 -63.5t61 -43t79.5 -16q43 0 79 16t61.5 43t39.5 63.5t14 77.5zM362 509q0 -29 -15 -47.5t-46 -24.5l57 -100h-29l-58 99h-54v-99h-29v243h90q45 0 64.5 -20.5t19.5 -50.5zM333 509q0 23 -13 34.5t-43 11.5h-60v-95h59q57 0 57 49z" />
    <glyph glyph-name="macron" unicode="&#xaf;" horiz-adv-x="280" 
d="M13 577v35h254v-35h-254z" />
    <glyph glyph-name="degree" unicode="&#xb0;" horiz-adv-x="345" 
d="M70 557q0 -21 7.5 -39.5t21 -33t32.5 -23t41 -8.5t41 8.5t33 23t21.5 33t7.5 39.5q0 20 -7.5 38.5t-21.5 33t-33 23t-41 8.5t-41 -8.5t-32.5 -23t-21 -33t-7.5 -38.5zM44 557q0 26 9.5 49t27 40.5t41 27.5t50.5 10q28 0 51.5 -10t40.5 -27.5t27 -40.5t10 -49t-10 -49.5
t-27 -41t-40.5 -27.5t-51.5 -10q-27 0 -50.5 10t-41 27.5t-27 41t-9.5 49.5z" />
    <glyph glyph-name="plusminus" unicode="&#xb1;" horiz-adv-x="546" 
d="M484 268h-189v-188h-43v188h-190v39h190v189h43v-189h189v-39zM484 0h-422v31h422v-31z" />
    <glyph glyph-name="twosuperior" unicode="&#xb2;" horiz-adv-x="297" 
d="M143 622q-23 0 -47 -7t-41 -17l-12 33q18 10 45 18.5t59 8.5q51 0 77.5 -23t26.5 -67q0 -23 -9 -44t-23 -41t-30.5 -38t-32.5 -34l-76 -74h181v-37h-233v30l98 100q16 16 31 32.5t27 33.5t19 35t7 37q0 54 -67 54z" />
    <glyph glyph-name="threesuperior" unicode="&#xb3;" horiz-adv-x="287" 
d="M123 328q44 0 64 22t20 51q0 31 -21 50t-57 19h-38v32h38q29 0 49 16.5t20 51.5q0 23 -17 39.5t-58 16.5q-26 0 -45.5 -5t-36.5 -13l-10 29q19 9 42.5 15t50.5 6q62 0 88.5 -26.5t26.5 -62.5q0 -33 -19 -53.5t-47 -28.5q20 -3 34.5 -11.5t23.5 -20.5t13.5 -26.5
t4.5 -28.5q0 -46 -32 -75t-92 -29q-59 0 -97 24l9 29q17 -10 40 -15.5t46 -5.5z" />
    <glyph glyph-name="acute" unicode="&#xb4;" horiz-adv-x="280" 
d="M253 688l27 -36l-149 -102l-13 18z" />
    <glyph glyph-name="mu" unicode="&#xb5;" horiz-adv-x="548" 
d="M420 483h46v-483h-34l-12 95q-9 -18 -26 -36t-39.5 -33t-49.5 -24.5t-58 -9.5q-40 0 -71 15.5t-48 44.5v-252h-46v683h46v-317q2 -70 30.5 -101.5t88.5 -31.5q28 0 55 10t49.5 25.5t40 35.5t28.5 41v338z" />
    <glyph glyph-name="paragraph" unicode="&#xb6;" horiz-adv-x="426" 
d="M46 507q0 80 49.5 123.5t131.5 43.5h165v-40h-29q-43 0 -59 -18t-16 -58v-606h-47v393h-39q-30 0 -58.5 10.5t-50 31t-34.5 50.5t-13 70z" />
    <glyph glyph-name="periodcentered" unicode="&#xb7;" horiz-adv-x="216" 
d="M66 290q0 17 10.5 29t31.5 12t31.5 -12t10.5 -29t-10.5 -29t-31.5 -12t-31.5 12t-10.5 29z" />
    <glyph glyph-name="cedilla" unicode="&#xb8;" horiz-adv-x="280" 
d="M115 -155h-49l72 113h25z" />
    <glyph glyph-name="onesuperior" unicode="&#xb9;" horiz-adv-x="272" 
d="M121 618l-72 -24v32l85 29h29v-319h81v-36h-206v36h83v282z" />
    <glyph glyph-name="ordmasculine" unicode="&#xba;" horiz-adv-x="383" 
d="M73 477q0 -31 7 -57t21.5 -45.5t37 -30.5t53.5 -11t53.5 11t37 30.5t21.5 45.5t7 57q0 62 -29 102t-90 40q-62 0 -90.5 -40t-28.5 -102zM30 477q0 38 9.5 71t29.5 57.5t50.5 38.5t72.5 14q41 0 71.5 -14t50.5 -38.5t29.5 -57.5t9.5 -71t-9.5 -71.5t-29.5 -58t-50.5 -38.5
t-71.5 -14q-42 0 -72.5 14t-50.5 38.5t-29.5 58t-9.5 71.5z" />
    <glyph glyph-name="guillemotright" unicode="&#xbb;" horiz-adv-x="423" 
d="M222 242l-133 -178h-43l130 178l-130 178h43zM383 242l-133 -178h-43l130 178l-130 178h43z" />
    <glyph glyph-name="onequarter" unicode="&#xbc;" horiz-adv-x="716" 
d="M520 660h42l-366 -660h-42zM133 618l-72 -24v32l85 29h29v-319h81v-36h-206v36h83v282zM578 110v184l-136 -184h136zM579 355h36v-245h41v-37h-41v-73h-38v73h-177v33z" />
    <glyph glyph-name="onehalf" unicode="&#xbd;" horiz-adv-x="716" 
d="M520 660h42l-366 -660h-42zM133 618l-72 -24v32l85 29h29v-319h81v-36h-206v36h83v282zM563 322q-23 0 -47 -7t-41 -17l-12 33q18 10 45 18.5t59 8.5q51 0 77.5 -23t26.5 -67q0 -23 -9 -44t-23 -41t-30.5 -38t-32.5 -34l-76 -74h181v-37h-233v30l98 100q16 16 31 32.5
t27 33.5t19 35t7 37q0 54 -67 54z" />
    <glyph glyph-name="threequarters" unicode="&#xbe;" horiz-adv-x="716" 
d="M520 660h42l-366 -660h-42zM578 110v184l-136 -184h136zM579 355h36v-245h41v-37h-41v-73h-38v73h-177v33zM130 328q44 0 64 22t20 51q0 31 -21 50t-57 19h-38v32h38q29 0 49 16.5t20 51.5q0 23 -17 39.5t-58 16.5q-26 0 -45.5 -5t-36.5 -13l-10 29q19 9 42.5 15t50.5 6
q62 0 88.5 -26.5t26.5 -62.5q0 -33 -19 -53.5t-47 -28.5q20 -3 34.5 -11.5t23.5 -20.5t13.5 -26.5t4.5 -28.5q0 -46 -32 -75t-92 -29q-59 0 -97 24l9 29q17 -10 40 -15.5t46 -5.5z" />
    <glyph glyph-name="questiondown" unicode="&#xbf;" horiz-adv-x="472" 
d="M247 -161q45 0 89 14t72 32l12 -36q-29 -17 -74.5 -33t-97.5 -16q-92 0 -140 43.5t-48 120.5q0 35 13 63.5t32.5 53.5t42 48t42 46t32.5 47.5t13 53.5q0 25 -8 46h43q5 -9 8.5 -22t3.5 -27q0 -32 -13 -58t-32.5 -49.5t-42 -46t-42 -46.5t-32.5 -50.5t-13 -58.5
q0 -25 8 -47.5t24.5 -40t43 -27.5t64.5 -10zM290 450q0 -17 -10.5 -29t-31.5 -12t-31.5 12t-10.5 29t10.5 29t31.5 12t31.5 -12t10.5 -29z" />
    <glyph glyph-name="Agrave" unicode="&#xc0;" horiz-adv-x="607" 
d="M146 199l-73 -199h-48l256 674h45l256 -674h-48l-73 199h-315zM352 482l-48 142h-2l-49 -144l-91 -241h283zM384 764l-13 -18l-149 102l27 36z" />
    <glyph glyph-name="Aacute" unicode="&#xc1;" horiz-adv-x="607" 
d="M146 199l-73 -199h-48l256 674h45l256 -674h-48l-73 199h-315zM352 482l-48 142h-2l-49 -144l-91 -241h283zM357 884l27 -36l-149 -102l-13 18z" />
    <glyph glyph-name="Acircumflex" unicode="&#xc2;" horiz-adv-x="607" 
d="M146 199l-73 -199h-48l256 674h45l256 -674h-48l-73 199h-315zM352 482l-48 142h-2l-49 -144l-91 -241h283zM435 745h-33l-99 99l-99 -99h-33l117 137h30z" />
    <glyph glyph-name="Atilde" unicode="&#xc3;" horiz-adv-x="607" 
d="M146 199l-73 -199h-48l256 674h45l256 -674h-48l-73 199h-315zM352 482l-48 142h-2l-49 -144l-91 -241h283zM367 759q-22 0 -38 7.5t-29.5 17t-26.5 17t-29 7.5q-27 0 -38.5 -14t-13.5 -35h-33q2 34 25 58t55 24q22 0 37.5 -7.5t29 -17t26.5 -17t30 -7.5q27 0 38.5 14
t13.5 35h33q-2 -34 -25 -58t-55 -24z" />
    <glyph glyph-name="Adieresis" unicode="&#xc4;" horiz-adv-x="607" 
d="M146 199l-73 -199h-48l256 674h45l256 -674h-48l-73 199h-315zM352 482l-48 142h-2l-49 -144l-91 -241h283zM208 855q17 0 27 -10.5t10 -24.5t-10 -24.5t-27 -10.5t-27 10.5t-10 24.5t10 24.5t27 10.5zM398 855q17 0 27 -10.5t10 -24.5t-10 -24.5t-27 -10.5t-27 10.5
t-10 24.5t10 24.5t27 10.5z" />
    <glyph glyph-name="Aring" unicode="&#xc5;" horiz-adv-x="607" 
d="M146 199l-73 -199h-48l256 674h45l256 -674h-48l-73 199h-315zM352 482l-48 142h-2l-49 -144l-91 -241h283zM251 824q0 -26 15 -41t37 -15t37 15t15 41t-15 41t-37 15t-37 -15t-15 -41zM222 824q0 34 23.5 57.5t57.5 23.5t57.5 -23.5t23.5 -57.5t-23.5 -57.5t-57.5 -23.5
t-57.5 23.5t-23.5 57.5z" />
    <glyph glyph-name="AE" unicode="&#xc6;" horiz-adv-x="819" 
d="M474 199h-315l-87 -199h-47l303 674h435v-42h-378l77 -264h279v-42h-267l83 -285h212v-41h-236zM385 482l-38 142h-2l-59 -144l-108 -241h283z" />
    <glyph glyph-name="Ccedilla" unicode="&#xc7;" horiz-adv-x="563" 
d="M365 639q-127 0 -197.5 -77t-70.5 -225q0 -72 18.5 -128t52.5 -94.5t82.5 -58t108.5 -19.5q48 0 85.5 10.5t66.5 24.5l12 -40q-17 -9 -34.5 -16t-37 -12t-42 -7.5t-50.5 -2.5q-79 0 -137 24.5t-96.5 69.5t-57 108t-18.5 141t20.5 141.5t60 109t98.5 70t136 24.5
q47 0 85.5 -10.5t66.5 -24.5l-11 -39q-29 13 -64.5 22t-76.5 9zM318 -155h-49l72 113h25z" />
    <glyph glyph-name="Egrave" unicode="&#xc8;" horiz-adv-x="538" 
d="M88 674h394v-42h-347v-264h325v-42h-325v-285h353v-41h-400v674zM370 764l-13 -18l-149 102l27 36z" />
    <glyph glyph-name="Eacute" unicode="&#xc9;" horiz-adv-x="538" 
d="M88 674h394v-42h-347v-264h325v-42h-325v-285h353v-41h-400v674zM343 884l27 -36l-149 -102l-13 18z" />
    <glyph glyph-name="Ecircumflex" unicode="&#xca;" horiz-adv-x="538" 
d="M88 674h394v-42h-347v-264h325v-42h-325v-285h353v-41h-400v674zM421 745h-33l-99 99l-99 -99h-33l117 137h30z" />
    <glyph glyph-name="Edieresis" unicode="&#xcb;" horiz-adv-x="538" 
d="M88 674h394v-42h-347v-264h325v-42h-325v-285h353v-41h-400v674zM194 855q17 0 27 -10.5t10 -24.5t-10 -24.5t-27 -10.5t-27 10.5t-10 24.5t10 24.5t27 10.5zM384 855q17 0 27 -10.5t10 -24.5t-10 -24.5t-27 -10.5t-27 10.5t-10 24.5t10 24.5t27 10.5z" />
    <glyph glyph-name="Igrave" unicode="&#xcc;" horiz-adv-x="227" 
d="M137 0h-47v674h47v-674zM194 764l-13 -18l-149 102l27 36z" />
    <glyph glyph-name="Iacute" unicode="&#xcd;" horiz-adv-x="227" 
d="M137 0h-47v674h47v-674zM169 884l27 -36l-149 -102l-13 18z" />
    <glyph glyph-name="Icircumflex" unicode="&#xce;" horiz-adv-x="227" 
d="M137 0h-47v674h47v-674zM247 745h-33l-99 99l-99 -99h-33l117 137h30z" />
    <glyph glyph-name="Idieresis" unicode="&#xcf;" horiz-adv-x="227" 
d="M137 0h-47v674h47v-674zM20 855q17 0 27 -10.5t10 -24.5t-10 -24.5t-27 -10.5t-27 10.5t-10 24.5t10 24.5t27 10.5zM210 855q17 0 27 -10.5t10 -24.5t-10 -24.5t-27 -10.5t-27 10.5t-10 24.5t10 24.5t27 10.5z" />
    <glyph glyph-name="Eth" unicode="&#xd0;" horiz-adv-x="638" 
d="M88 339v335h165q165 0 250 -85.5t85 -250.5q0 -166 -85 -252t-250 -86h-165v302h-69v37h69zM541 338q0 155 -75 224t-213 69h-118v-292h174v-37h-174v-259h118q69 0 122.5 17t90.5 53t56 92t19 133z" />
    <glyph glyph-name="Ntilde" unicode="&#xd1;" horiz-adv-x="656" 
d="M467 158q18 -28 33 -52t26 -44h2q-4 29 -5.5 60t-1.5 67v485h47v-674h-50l-329 516q-18 28 -33 52t-26 44h-2q4 -29 5.5 -60t1.5 -67v-485h-47v674h50zM392 759q-22 0 -38 7.5t-29.5 17t-26.5 17t-29 7.5q-27 0 -38.5 -14t-13.5 -35h-33q2 34 25 58t55 24q22 0 37.5 -7.5
t29 -17t26.5 -17t30 -7.5q27 0 38.5 14t13.5 35h33q-2 -34 -25 -58t-55 -24z" />
    <glyph glyph-name="Ograve" unicode="&#xd2;" horiz-adv-x="674" 
d="M337 33q61 0 106 22.5t75 63t44.5 96.5t14.5 122t-14.5 121.5t-44.5 96t-75 63.5t-106 23t-106 -23t-75 -63.5t-44.5 -96t-14.5 -121.5t14.5 -122t44.5 -96.5t75 -63t106 -22.5zM337 -8q-72 0 -125.5 26t-89.5 72t-54 109.5t-18 137.5t18 137.5t54 109.5t89.5 72
t125.5 26t125.5 -26t89.5 -72t54 -109.5t18 -137.5t-18 -137.5t-54 -109.5t-89.5 -72t-125.5 -26zM418 764l-13 -18l-149 102l27 36z" />
    <glyph glyph-name="Oacute" unicode="&#xd3;" horiz-adv-x="674" 
d="M337 33q61 0 106 22.5t75 63t44.5 96.5t14.5 122t-14.5 121.5t-44.5 96t-75 63.5t-106 23t-106 -23t-75 -63.5t-44.5 -96t-14.5 -121.5t14.5 -122t44.5 -96.5t75 -63t106 -22.5zM337 -8q-72 0 -125.5 26t-89.5 72t-54 109.5t-18 137.5t18 137.5t54 109.5t89.5 72
t125.5 26t125.5 -26t89.5 -72t54 -109.5t18 -137.5t-18 -137.5t-54 -109.5t-89.5 -72t-125.5 -26zM391 884l27 -36l-149 -102l-13 18z" />
    <glyph glyph-name="Ocircumflex" unicode="&#xd4;" horiz-adv-x="674" 
d="M337 33q61 0 106 22.5t75 63t44.5 96.5t14.5 122t-14.5 121.5t-44.5 96t-75 63.5t-106 23t-106 -23t-75 -63.5t-44.5 -96t-14.5 -121.5t14.5 -122t44.5 -96.5t75 -63t106 -22.5zM337 -8q-72 0 -125.5 26t-89.5 72t-54 109.5t-18 137.5t18 137.5t54 109.5t89.5 72
t125.5 26t125.5 -26t89.5 -72t54 -109.5t18 -137.5t-18 -137.5t-54 -109.5t-89.5 -72t-125.5 -26zM469 745h-33l-99 99l-99 -99h-33l117 137h30z" />
    <glyph glyph-name="Otilde" unicode="&#xd5;" horiz-adv-x="674" 
d="M337 33q61 0 106 22.5t75 63t44.5 96.5t14.5 122t-14.5 121.5t-44.5 96t-75 63.5t-106 23t-106 -23t-75 -63.5t-44.5 -96t-14.5 -121.5t14.5 -122t44.5 -96.5t75 -63t106 -22.5zM337 -8q-72 0 -125.5 26t-89.5 72t-54 109.5t-18 137.5t18 137.5t54 109.5t89.5 72
t125.5 26t125.5 -26t89.5 -72t54 -109.5t18 -137.5t-18 -137.5t-54 -109.5t-89.5 -72t-125.5 -26zM401 759q-22 0 -38 7.5t-29.5 17t-26.5 17t-29 7.5q-27 0 -38.5 -14t-13.5 -35h-33q2 34 25 58t55 24q22 0 37.5 -7.5t29 -17t26.5 -17t30 -7.5q27 0 38.5 14t13.5 35h33
q-2 -34 -25 -58t-55 -24z" />
    <glyph glyph-name="Odieresis" unicode="&#xd6;" horiz-adv-x="674" 
d="M337 33q61 0 106 22.5t75 63t44.5 96.5t14.5 122t-14.5 121.5t-44.5 96t-75 63.5t-106 23t-106 -23t-75 -63.5t-44.5 -96t-14.5 -121.5t14.5 -122t44.5 -96.5t75 -63t106 -22.5zM337 -8q-72 0 -125.5 26t-89.5 72t-54 109.5t-18 137.5t18 137.5t54 109.5t89.5 72
t125.5 26t125.5 -26t89.5 -72t54 -109.5t18 -137.5t-18 -137.5t-54 -109.5t-89.5 -72t-125.5 -26zM242 855q17 0 27 -10.5t10 -24.5t-10 -24.5t-27 -10.5t-27 10.5t-10 24.5t10 24.5t27 10.5zM432 855q17 0 27 -10.5t10 -24.5t-10 -24.5t-27 -10.5t-27 10.5t-10 24.5
t10 24.5t27 10.5z" />
    <glyph glyph-name="multiply" unicode="&#xd7;" horiz-adv-x="546" 
d="M273 253l-156 -156l-30 31l156 155l-157 157l31 30l156 -156l156 156l31 -30l-157 -157l156 -155l-30 -31z" />
    <glyph glyph-name="Oslash" unicode="&#xd8;" horiz-adv-x="674" 
d="M523 615q51 -47 76 -118.5t25 -159.5q0 -74 -18 -137.5t-54 -109.5t-89.5 -72t-125.5 -26q-48 0 -88 12t-72 34l-47 -78h-38l59 98q-51 47 -76 118.5t-25 160.5q0 74 18 137.5t54 109.5t89.5 72t125.5 26q48 0 88 -12t72 -35l47 79h38zM97 337q0 -76 19 -137.5t58 -102.5
l301 502q-56 42 -138 42q-61 0 -106 -23t-75 -63.5t-44.5 -96t-14.5 -121.5zM337 33q61 0 106 22.5t75 63t44.5 96.5t14.5 122q0 75 -19 136.5t-58 103.5l-301 -502q56 -42 138 -42z" />
    <glyph glyph-name="Ugrave" unicode="&#xd9;" horiz-adv-x="652" 
d="M326 -8q-54 0 -98.5 16t-76 50t-49 85t-17.5 122v409h47v-410q0 -121 52 -175t142 -54t142 54t52 175v410h47v-409q0 -71 -17.5 -122t-49 -85t-76 -50t-98.5 -16zM407 764l-13 -18l-149 102l27 36z" />
    <glyph glyph-name="Uacute" unicode="&#xda;" horiz-adv-x="652" 
d="M326 -8q-54 0 -98.5 16t-76 50t-49 85t-17.5 122v409h47v-410q0 -121 52 -175t142 -54t142 54t52 175v410h47v-409q0 -71 -17.5 -122t-49 -85t-76 -50t-98.5 -16zM380 884l27 -36l-149 -102l-13 18z" />
    <glyph glyph-name="Ucircumflex" unicode="&#xdb;" horiz-adv-x="652" 
d="M326 -8q-54 0 -98.5 16t-76 50t-49 85t-17.5 122v409h47v-410q0 -121 52 -175t142 -54t142 54t52 175v410h47v-409q0 -71 -17.5 -122t-49 -85t-76 -50t-98.5 -16zM458 745h-33l-99 99l-99 -99h-33l117 137h30z" />
    <glyph glyph-name="Udieresis" unicode="&#xdc;" horiz-adv-x="652" 
d="M326 -8q-54 0 -98.5 16t-76 50t-49 85t-17.5 122v409h47v-410q0 -121 52 -175t142 -54t142 54t52 175v410h47v-409q0 -71 -17.5 -122t-49 -85t-76 -50t-98.5 -16zM231 855q17 0 27 -10.5t10 -24.5t-10 -24.5t-27 -10.5t-27 10.5t-10 24.5t10 24.5t27 10.5zM421 855
q17 0 27 -10.5t10 -24.5t-10 -24.5t-27 -10.5t-27 10.5t-10 24.5t10 24.5t27 10.5z" />
    <glyph glyph-name="Yacute" unicode="&#xdd;" horiz-adv-x="547" 
d="M274 322l205 352h50l-232 -394v-280h-47v280l-232 394h50l205 -352h1zM327 884l27 -36l-149 -102l-13 18z" />
    <glyph glyph-name="Thorn" unicode="&#xde;" horiz-adv-x="548" 
d="M508 353q0 -48 -16.5 -85t-45.5 -62t-70 -37.5t-90 -12.5h-151v-156h-47v674h47v-127h158q103 0 159 -52t56 -142zM461 353q0 75 -42.5 113.5t-125.5 38.5h-158v-307h151q82 0 128.5 39t46.5 116z" />
    <glyph glyph-name="germandbls" unicode="&#xdf;" horiz-adv-x="593" 
d="M337 31q34 0 63 8.5t50 27t32.5 48t11.5 72.5q0 86 -47.5 135.5t-139.5 49.5h-40l-12 39h65q30 0 56 6t44.5 19.5t29.5 34.5t11 50q0 31 -12 54t-33 38t-49.5 22.5t-60.5 7.5q-100 0 -141.5 -53t-41.5 -155v-435h-45v435q0 55 13 101t40.5 78t70.5 50t104 18q48 0 85 -12
t62 -33t38 -50t13 -63q0 -51 -28.5 -87.5t-84.5 -47.5q29 -6 56 -19.5t47.5 -37.5t32.5 -59t12 -84q0 -54 -15 -91.5t-42 -61t-63 -34t-78 -10.5q-41 0 -77.5 7.5t-62.5 17.5l9 38q26 -11 60.5 -17.5t66.5 -6.5z" />
    <glyph glyph-name="agrave" unicode="&#xe0;" horiz-adv-x="498" 
d="M373 249h-118q-90 0 -129.5 -28t-39.5 -89q0 -26 8.5 -45t23.5 -31.5t35 -18.5t42 -6q43 0 76 14.5t55.5 38t34.5 52.5t12 59v54zM373 322q0 72 -33.5 101t-96.5 29q-49 0 -85.5 -10t-65.5 -26l-11 34q27 16 69 28.5t93 12.5q88 0 131.5 -45.5t43.5 -123.5v-322h-33
l-12 95q-27 -49 -72 -76t-107 -27q-32 0 -60 9t-48.5 27t-32 44t-11.5 60q0 78 54 117t159 39h118v34zM330 568l-13 -18l-149 102l27 36z" />
    <glyph glyph-name="aacute" unicode="&#xe1;" horiz-adv-x="498" 
d="M373 249h-118q-90 0 -129.5 -28t-39.5 -89q0 -26 8.5 -45t23.5 -31.5t35 -18.5t42 -6q43 0 76 14.5t55.5 38t34.5 52.5t12 59v54zM373 322q0 72 -33.5 101t-96.5 29q-49 0 -85.5 -10t-65.5 -26l-11 34q27 16 69 28.5t93 12.5q88 0 131.5 -45.5t43.5 -123.5v-322h-33
l-12 95q-27 -49 -72 -76t-107 -27q-32 0 -60 9t-48.5 27t-32 44t-11.5 60q0 78 54 117t159 39h118v34zM303 688l27 -36l-149 -102l-13 18z" />
    <glyph glyph-name="acircumflex" unicode="&#xe2;" horiz-adv-x="498" 
d="M373 249h-118q-90 0 -129.5 -28t-39.5 -89q0 -26 8.5 -45t23.5 -31.5t35 -18.5t42 -6q43 0 76 14.5t55.5 38t34.5 52.5t12 59v54zM373 322q0 72 -33.5 101t-96.5 29q-49 0 -85.5 -10t-65.5 -26l-11 34q27 16 69 28.5t93 12.5q88 0 131.5 -45.5t43.5 -123.5v-322h-33
l-12 95q-27 -49 -72 -76t-107 -27q-32 0 -60 9t-48.5 27t-32 44t-11.5 60q0 78 54 117t159 39h118v34zM381 549h-33l-99 99l-99 -99h-33l117 137h30z" />
    <glyph glyph-name="atilde" unicode="&#xe3;" horiz-adv-x="498" 
d="M373 249h-118q-90 0 -129.5 -28t-39.5 -89q0 -26 8.5 -45t23.5 -31.5t35 -18.5t42 -6q43 0 76 14.5t55.5 38t34.5 52.5t12 59v54zM373 322q0 72 -33.5 101t-96.5 29q-49 0 -85.5 -10t-65.5 -26l-11 34q27 16 69 28.5t93 12.5q88 0 131.5 -45.5t43.5 -123.5v-322h-33
l-12 95q-27 -49 -72 -76t-107 -27q-32 0 -60 9t-48.5 27t-32 44t-11.5 60q0 78 54 117t159 39h118v34zM313 563q-22 0 -38 7.5t-29.5 17t-26.5 17t-29 7.5q-27 0 -38.5 -14t-13.5 -35h-33q2 34 25 58t55 24q22 0 37.5 -7.5t29 -17t26.5 -17t30 -7.5q27 0 38.5 14t13.5 35h33
q-2 -34 -25 -58t-55 -24z" />
    <glyph glyph-name="adieresis" unicode="&#xe4;" horiz-adv-x="498" 
d="M373 249h-118q-90 0 -129.5 -28t-39.5 -89q0 -26 8.5 -45t23.5 -31.5t35 -18.5t42 -6q43 0 76 14.5t55.5 38t34.5 52.5t12 59v54zM373 322q0 72 -33.5 101t-96.5 29q-49 0 -85.5 -10t-65.5 -26l-11 34q27 16 69 28.5t93 12.5q88 0 131.5 -45.5t43.5 -123.5v-322h-33
l-12 95q-27 -49 -72 -76t-107 -27q-32 0 -60 9t-48.5 27t-32 44t-11.5 60q0 78 54 117t159 39h118v34zM154 659q17 0 27 -10.5t10 -24.5t-10 -24.5t-27 -10.5t-27 10.5t-10 24.5t10 24.5t27 10.5zM344 659q17 0 27 -10.5t10 -24.5t-10 -24.5t-27 -10.5t-27 10.5t-10 24.5
t10 24.5t27 10.5z" />
    <glyph glyph-name="aring" unicode="&#xe5;" horiz-adv-x="498" 
d="M373 249h-118q-90 0 -129.5 -28t-39.5 -89q0 -26 8.5 -45t23.5 -31.5t35 -18.5t42 -6q43 0 76 14.5t55.5 38t34.5 52.5t12 59v54zM373 322q0 72 -33.5 101t-96.5 29q-49 0 -85.5 -10t-65.5 -26l-11 34q27 16 69 28.5t93 12.5q88 0 131.5 -45.5t43.5 -123.5v-322h-33
l-12 95q-27 -49 -72 -76t-107 -27q-32 0 -60 9t-48.5 27t-32 44t-11.5 60q0 78 54 117t159 39h118v34zM197 628q0 -26 15 -41t37 -15t37 15t15 41t-15 41t-37 15t-37 -15t-15 -41zM168 628q0 34 23.5 57.5t57.5 23.5t57.5 -23.5t23.5 -57.5t-23.5 -57.5t-57.5 -23.5
t-57.5 23.5t-23.5 57.5z" />
    <glyph glyph-name="ae" unicode="&#xe6;" horiz-adv-x="800" 
d="M413 220q2 -42 13 -77t32 -59.5t54 -38.5t78 -14q38 0 68.5 10t55.5 24l12 -35q-25 -15 -59.5 -26t-78.5 -11q-79 0 -126 33.5t-69 91.5q-27 -63 -80 -94.5t-119 -31.5q-32 0 -60 9t-48.5 27t-32 44t-11.5 60q0 78 54 117t159 39h118v34q0 72 -33.5 101t-96.5 29
q-49 0 -85.5 -10t-65.5 -26l-11 34q27 16 69 28.5t93 12.5q68 0 106.5 -27.5t52.5 -77.5q23 49 65.5 77t108.5 28q84 0 130 -50t46 -141q0 -19 -3.5 -42t-8.5 -38h-327zM373 249h-118q-90 0 -129.5 -28t-39.5 -89q0 -26 8.5 -45t23.5 -31.5t35 -18.5t42 -6q43 0 76 14.5
t55.5 38t34.5 52.5t12 59v54zM576 454q-43 0 -73 -15t-49.5 -41t-29 -63t-10.5 -80h292q2 9 3 21.5t1 23.5q0 79 -34 116.5t-100 37.5z" />
    <glyph glyph-name="ccedilla" unicode="&#xe7;" horiz-adv-x="448" 
d="M273 453q-46 0 -80 -15.5t-56 -43.5t-32.5 -67t-10.5 -85t11 -85t33.5 -67t57.5 -43.5t83 -15.5q32 0 61.5 7.5t55.5 18.5l12 -35q-26 -13 -59.5 -21t-71.5 -8q-57 0 -100 18.5t-71.5 52t-43 79t-14.5 99.5t14 99.5t42.5 79t70.5 52t98 18.5q37 0 68 -7t59 -19l-11 -35
q-23 11 -52 17t-64 6zM238 -155h-49l72 113h25z" />
    <glyph glyph-name="egrave" unicode="&#xe8;" horiz-adv-x="492" 
d="M93 220q4 -84 49 -136.5t136 -52.5q38 0 70.5 10t57.5 24l12 -35q-25 -15 -61.5 -26t-80.5 -11q-57 0 -100 18.5t-71.5 52t-42.5 79t-14 99.5t13.5 99.5t40.5 79t67.5 52t94.5 18.5q88 0 134 -50t46 -141q0 -19 -3.5 -42t-8.5 -38h-339zM264 454q-45 0 -77 -15t-52 -41
t-30 -63t-11 -80h304q2 9 3 21.5t1 23.5q0 79 -33.5 116.5t-104.5 37.5zM327 568l-13 -18l-149 102l27 36z" />
    <glyph glyph-name="eacute" unicode="&#xe9;" horiz-adv-x="492" 
d="M93 220q4 -84 49 -136.5t136 -52.5q38 0 70.5 10t57.5 24l12 -35q-25 -15 -61.5 -26t-80.5 -11q-57 0 -100 18.5t-71.5 52t-42.5 79t-14 99.5t13.5 99.5t40.5 79t67.5 52t94.5 18.5q88 0 134 -50t46 -141q0 -19 -3.5 -42t-8.5 -38h-339zM264 454q-45 0 -77 -15t-52 -41
t-30 -63t-11 -80h304q2 9 3 21.5t1 23.5q0 79 -33.5 116.5t-104.5 37.5zM300 688l27 -36l-149 -102l-13 18z" />
    <glyph glyph-name="ecircumflex" unicode="&#xea;" horiz-adv-x="492" 
d="M93 220q4 -84 49 -136.5t136 -52.5q38 0 70.5 10t57.5 24l12 -35q-25 -15 -61.5 -26t-80.5 -11q-57 0 -100 18.5t-71.5 52t-42.5 79t-14 99.5t13.5 99.5t40.5 79t67.5 52t94.5 18.5q88 0 134 -50t46 -141q0 -19 -3.5 -42t-8.5 -38h-339zM264 454q-45 0 -77 -15t-52 -41
t-30 -63t-11 -80h304q2 9 3 21.5t1 23.5q0 79 -33.5 116.5t-104.5 37.5zM378 549h-33l-99 99l-99 -99h-33l117 137h30z" />
    <glyph glyph-name="edieresis" unicode="&#xeb;" horiz-adv-x="492" 
d="M93 220q4 -84 49 -136.5t136 -52.5q38 0 70.5 10t57.5 24l12 -35q-25 -15 -61.5 -26t-80.5 -11q-57 0 -100 18.5t-71.5 52t-42.5 79t-14 99.5t13.5 99.5t40.5 79t67.5 52t94.5 18.5q88 0 134 -50t46 -141q0 -19 -3.5 -42t-8.5 -38h-339zM264 454q-45 0 -77 -15t-52 -41
t-30 -63t-11 -80h304q2 9 3 21.5t1 23.5q0 79 -33.5 116.5t-104.5 37.5zM151 659q17 0 27 -10.5t10 -24.5t-10 -24.5t-27 -10.5t-27 10.5t-10 24.5t10 24.5t27 10.5zM341 659q17 0 27 -10.5t10 -24.5t-10 -24.5t-27 -10.5t-27 10.5t-10 24.5t10 24.5t27 10.5z" />
    <glyph glyph-name="igrave" unicode="&#xec;" horiz-adv-x="216" 
d="M131 0h-46v483h46v-483zM189 568l-13 -18l-149 102l27 36z" />
    <glyph glyph-name="iacute" unicode="&#xed;" horiz-adv-x="216" 
d="M131 0h-46v483h46v-483zM163 688l27 -36l-149 -102l-13 18z" />
    <glyph glyph-name="icircumflex" unicode="&#xee;" horiz-adv-x="216" 
d="M131 0h-46v483h46v-483zM241 549h-33l-99 99l-99 -99h-33l117 137h30z" />
    <glyph glyph-name="idieresis" unicode="&#xef;" horiz-adv-x="216" 
d="M131 0h-46v483h46v-483zM14 659q17 0 27 -10.5t10 -24.5t-10 -24.5t-27 -10.5t-27 10.5t-10 24.5t10 24.5t27 10.5zM204 659q17 0 27 -10.5t10 -24.5t-10 -24.5t-27 -10.5t-27 10.5t-10 24.5t10 24.5t27 10.5z" />
    <glyph glyph-name="eth" unicode="&#xf0;" horiz-adv-x="554" 
d="M220 546l-12 26l86 40q-55 41 -120 65l12 28q37 -14 72.5 -33t67.5 -45l98 47l13 -26l-87 -41q68 -61 110 -149.5t42 -204.5q0 -55 -15 -102.5t-44.5 -83t-72 -55.5t-97.5 -20q-53 0 -95 19t-71 52t-44 77.5t-15 94.5q0 52 14.5 99t43 81.5t71 55t98.5 20.5
q57 0 93 -20.5t66 -54.5h3q-16 51 -46 95.5t-72 80.5zM457 242q0 44 -10 82.5t-32 67t-56.5 45t-83.5 16.5q-46 0 -80 -16.5t-56.5 -45.5t-33.5 -68t-11 -85q0 -45 12 -83t34.5 -65.5t56 -43.5t76.5 -16q46 0 81 19t57.5 49.5t34 68.5t11.5 75z" />
    <glyph glyph-name="ntilde" unicode="&#xf1;" horiz-adv-x="556" 
d="M128 0h-46v483h34l12 -95q15 19 34.5 37.5t43.5 33t52 23.5t59 9q76 0 117.5 -47t41.5 -134v-310h-46v310q0 67 -31.5 103.5t-85.5 36.5q-29 0 -56 -9.5t-51 -25.5t-44 -36t-34 -41v-338zM342 563q-22 0 -38 7.5t-29.5 17t-26.5 17t-29 7.5q-27 0 -38.5 -14t-13.5 -35
h-33q2 34 25 58t55 24q22 0 37.5 -7.5t29 -17t26.5 -17t30 -7.5q27 0 38.5 14t13.5 35h33q-2 -34 -25 -58t-55 -24z" />
    <glyph glyph-name="ograve" unicode="&#xf2;" horiz-adv-x="530" 
d="M265 491q55 0 95.5 -18.5t67.5 -52t40.5 -79t13.5 -99.5t-13.5 -99.5t-40.5 -79t-67.5 -52t-95.5 -18.5t-95.5 18.5t-67.5 52t-40.5 79t-13.5 99.5t13.5 99.5t40.5 79t67.5 52t95.5 18.5zM265 31q45 0 77.5 15.5t53 43.5t30.5 67t10 85t-10 85t-30.5 67t-53 43.5
t-77.5 15.5t-77.5 -15.5t-53 -43.5t-30.5 -67t-10 -85t10 -85t30.5 -67t53 -43.5t77.5 -15.5zM346 568l-13 -18l-149 102l27 36z" />
    <glyph glyph-name="oacute" unicode="&#xf3;" horiz-adv-x="530" 
d="M265 491q55 0 95.5 -18.5t67.5 -52t40.5 -79t13.5 -99.5t-13.5 -99.5t-40.5 -79t-67.5 -52t-95.5 -18.5t-95.5 18.5t-67.5 52t-40.5 79t-13.5 99.5t13.5 99.5t40.5 79t67.5 52t95.5 18.5zM265 31q45 0 77.5 15.5t53 43.5t30.5 67t10 85t-10 85t-30.5 67t-53 43.5
t-77.5 15.5t-77.5 -15.5t-53 -43.5t-30.5 -67t-10 -85t10 -85t30.5 -67t53 -43.5t77.5 -15.5zM319 688l27 -36l-149 -102l-13 18z" />
    <glyph glyph-name="ocircumflex" unicode="&#xf4;" horiz-adv-x="530" 
d="M265 491q55 0 95.5 -18.5t67.5 -52t40.5 -79t13.5 -99.5t-13.5 -99.5t-40.5 -79t-67.5 -52t-95.5 -18.5t-95.5 18.5t-67.5 52t-40.5 79t-13.5 99.5t13.5 99.5t40.5 79t67.5 52t95.5 18.5zM265 31q45 0 77.5 15.5t53 43.5t30.5 67t10 85t-10 85t-30.5 67t-53 43.5
t-77.5 15.5t-77.5 -15.5t-53 -43.5t-30.5 -67t-10 -85t10 -85t30.5 -67t53 -43.5t77.5 -15.5zM397 549h-33l-99 99l-99 -99h-33l117 137h30z" />
    <glyph glyph-name="otilde" unicode="&#xf5;" horiz-adv-x="530" 
d="M265 491q55 0 95.5 -18.5t67.5 -52t40.5 -79t13.5 -99.5t-13.5 -99.5t-40.5 -79t-67.5 -52t-95.5 -18.5t-95.5 18.5t-67.5 52t-40.5 79t-13.5 99.5t13.5 99.5t40.5 79t67.5 52t95.5 18.5zM265 31q45 0 77.5 15.5t53 43.5t30.5 67t10 85t-10 85t-30.5 67t-53 43.5
t-77.5 15.5t-77.5 -15.5t-53 -43.5t-30.5 -67t-10 -85t10 -85t30.5 -67t53 -43.5t77.5 -15.5zM329 563q-22 0 -38 7.5t-29.5 17t-26.5 17t-29 7.5q-27 0 -38.5 -14t-13.5 -35h-33q2 34 25 58t55 24q22 0 37.5 -7.5t29 -17t26.5 -17t30 -7.5q27 0 38.5 14t13.5 35h33
q-2 -34 -25 -58t-55 -24z" />
    <glyph glyph-name="odieresis" unicode="&#xf6;" horiz-adv-x="530" 
d="M265 491q55 0 95.5 -18.5t67.5 -52t40.5 -79t13.5 -99.5t-13.5 -99.5t-40.5 -79t-67.5 -52t-95.5 -18.5t-95.5 18.5t-67.5 52t-40.5 79t-13.5 99.5t13.5 99.5t40.5 79t67.5 52t95.5 18.5zM265 31q45 0 77.5 15.5t53 43.5t30.5 67t10 85t-10 85t-30.5 67t-53 43.5
t-77.5 15.5t-77.5 -15.5t-53 -43.5t-30.5 -67t-10 -85t10 -85t30.5 -67t53 -43.5t77.5 -15.5zM170 659q17 0 27 -10.5t10 -24.5t-10 -24.5t-27 -10.5t-27 10.5t-10 24.5t10 24.5t27 10.5zM360 659q17 0 27 -10.5t10 -24.5t-10 -24.5t-27 -10.5t-27 10.5t-10 24.5t10 24.5
t27 10.5z" />
    <glyph glyph-name="divide" unicode="&#xf7;" horiz-adv-x="546" 
d="M484 264h-422v39h422v-39zM222 131q0 20 12.5 35t38.5 15t38.5 -15t12.5 -35t-12.5 -35t-38.5 -15t-38.5 15t-12.5 35zM222 444q0 20 12.5 35t38.5 15t38.5 -15t12.5 -35t-12.5 -35t-38.5 -15t-38.5 15t-12.5 35z" />
    <glyph glyph-name="oslash" unicode="&#xf8;" horiz-adv-x="530" 
d="M265 491q57 0 99 -21l44 79h38l-53 -96q45 -32 67 -87t22 -124q0 -54 -13.5 -99.5t-40.5 -79t-67.5 -52t-95.5 -18.5q-65 0 -111 26l-32 -59h-38l43 78q-40 33 -59.5 85.5t-19.5 118.5q0 54 13.5 99.5t40.5 79t67.5 52t95.5 18.5zM265 31q45 0 77.5 15.5t53 43.5t30.5 67
t10 85q0 57 -15.5 102t-47.5 73l-199 -363q37 -23 91 -23zM94 242q0 -54 12.5 -96.5t40.5 -70.5l198 360q-17 8 -37 13t-43 5q-45 0 -77.5 -15.5t-53 -43.5t-30.5 -67t-10 -85z" />
    <glyph glyph-name="ugrave" unicode="&#xf9;" horiz-adv-x="546" 
d="M418 483h46v-483h-34l-12 95q-9 -18 -26 -36t-39.5 -33t-51 -24.5t-60.5 -9.5q-78 0 -119.5 47t-41.5 134v310h46v-310q0 -67 28.5 -103.5t90.5 -36.5q28 0 55 10t49.5 25.5t40 35.5t28.5 41v338zM354 568l-13 -18l-149 102l27 36z" />
    <glyph glyph-name="uacute" unicode="&#xfa;" horiz-adv-x="546" 
d="M418 483h46v-483h-34l-12 95q-9 -18 -26 -36t-39.5 -33t-51 -24.5t-60.5 -9.5q-78 0 -119.5 47t-41.5 134v310h46v-310q0 -67 28.5 -103.5t90.5 -36.5q28 0 55 10t49.5 25.5t40 35.5t28.5 41v338zM327 688l27 -36l-149 -102l-13 18z" />
    <glyph glyph-name="ucircumflex" unicode="&#xfb;" horiz-adv-x="546" 
d="M418 483h46v-483h-34l-12 95q-9 -18 -26 -36t-39.5 -33t-51 -24.5t-60.5 -9.5q-78 0 -119.5 47t-41.5 134v310h46v-310q0 -67 28.5 -103.5t90.5 -36.5q28 0 55 10t49.5 25.5t40 35.5t28.5 41v338zM405 549h-33l-99 99l-99 -99h-33l117 137h30z" />
    <glyph glyph-name="udieresis" unicode="&#xfc;" horiz-adv-x="546" 
d="M418 483h46v-483h-34l-12 95q-9 -18 -26 -36t-39.5 -33t-51 -24.5t-60.5 -9.5q-78 0 -119.5 47t-41.5 134v310h46v-310q0 -67 28.5 -103.5t90.5 -36.5q28 0 55 10t49.5 25.5t40 35.5t28.5 41v338zM178 659q17 0 27 -10.5t10 -24.5t-10 -24.5t-27 -10.5t-27 10.5t-10 24.5
t10 24.5t27 10.5zM368 659q17 0 27 -10.5t10 -24.5t-10 -24.5t-27 -10.5t-27 10.5t-10 24.5t10 24.5t27 10.5z" />
    <glyph glyph-name="yacute" unicode="&#xfd;" horiz-adv-x="555" 
d="M416 103q-9 -18 -25.5 -36.5t-39 -33t-50.5 -24t-60 -9.5q-78 0 -119.5 47t-41.5 134v302h46v-302q0 -67 28.5 -103.5t90.5 -36.5q28 0 54.5 10t49 25.5t39.5 35.5t28 41v330h46v-461q0 -222 -190 -222q-54 0 -99 14.5t-71 31.5l12 37q26 -16 68 -29t90 -13q35 0 62 9.5
t45 31t27.5 56.5t9.5 85v80zM331 688l27 -36l-149 -102l-13 18z" />
    <glyph glyph-name="thorn" unicode="&#xfe;" horiz-adv-x="549" 
d="M299 -8q-60 0 -102.5 28t-68.5 75v-286h-46v865h46v-286q12 18 29.5 36.5t40.5 33t51 24t61 9.5q40 0 74.5 -15.5t60 -46.5t40 -77.5t14.5 -108.5q0 -67 -15.5 -114.5t-42.5 -78t-63.5 -44.5t-78.5 -14zM296 33q29 0 57.5 11t50.5 36t35.5 65t13.5 98q0 55 -11.5 94
t-31 64t-46.5 37t-57 12q-54 0 -99.5 -29t-79.5 -83v-126q0 -33 10.5 -65t31.5 -57.5t52.5 -41t73.5 -15.5z" />
    <glyph glyph-name="ydieresis" unicode="&#xff;" horiz-adv-x="555" 
d="M416 103q-9 -18 -25.5 -36.5t-39 -33t-50.5 -24t-60 -9.5q-78 0 -119.5 47t-41.5 134v302h46v-302q0 -67 28.5 -103.5t90.5 -36.5q28 0 54.5 10t49 25.5t39.5 35.5t28 41v330h46v-461q0 -222 -190 -222q-54 0 -99 14.5t-71 31.5l12 37q26 -16 68 -29t90 -13q35 0 62 9.5
t45 31t27.5 56.5t9.5 85v80zM182 659q17 0 27 -10.5t10 -24.5t-10 -24.5t-27 -10.5t-27 10.5t-10 24.5t10 24.5t27 10.5zM372 659q17 0 27 -10.5t10 -24.5t-10 -24.5t-27 -10.5t-27 10.5t-10 24.5t10 24.5t27 10.5z" />
    <glyph glyph-name="dotlessi" unicode="&#x131;" horiz-adv-x="216" 
d="M131 0h-46v483h46v-483z" />
    <glyph glyph-name="Lslash" unicode="&#x141;" horiz-adv-x="504" 
d="M26 319l62 27v328h47v-307l157 69v-38l-157 -69v-286h335v-43h-382v308l-62 -27v38z" />
    <glyph glyph-name="lslash" unicode="&#x142;" horiz-adv-x="216" 
d="M26 319l59 26v329h46v-308l59 26v-38l-59 -26v-328h-46v307l-59 -26v38z" />
    <glyph glyph-name="OE" unicode="&#x152;" horiz-adv-x="1033" 
d="M575 142q-32 -69 -89.5 -109.5t-148.5 -40.5q-72 0 -125.5 26t-89.5 72t-54 109.5t-18 137.5t18 137.5t54 109.5t89.5 72t125.5 26q91 0 148.5 -40.5t89.5 -109.5v142h402v-42h-355v-264h333v-42h-333v-285h361v-41h-408v142zM337 33q60 0 104 22t74 62t45 96t17 124
q0 66 -14.5 121.5t-44.5 96t-75 63.5t-106 23t-106 -23t-75 -63.5t-44.5 -96t-14.5 -121.5t14.5 -122t44.5 -96.5t75 -63t106 -22.5z" />
    <glyph glyph-name="oe" unicode="&#x153;" horiz-adv-x="833" 
d="M434 220q4 -84 49 -136.5t136 -52.5q38 0 70.5 10t57.5 24l12 -35q-25 -15 -61.5 -26t-80.5 -11q-68 0 -115.5 25t-74.5 70q-19 -42 -59.5 -68.5t-105.5 -26.5q-55 0 -95 18.5t-66.5 52t-39.5 79t-13 99.5t13 99.5t39.5 79t66.5 52t95 18.5q64 0 105.5 -27t58.5 -67
q26 44 70.5 69t108.5 25q88 0 134 -50t46 -141q0 -19 -3.5 -42t-8.5 -38h-339zM262 31q58 0 94 25t53 70q-20 52 -20 116q0 66 19 117q-17 44 -53 69t-93 25q-45 0 -77 -15.5t-52 -43.5t-29.5 -67t-9.5 -85t9.5 -85t29.5 -67t52 -43.5t77 -15.5zM605 454q-45 0 -77 -15
t-52 -41t-30 -63t-11 -80h304q2 9 3 21.5t1 23.5q0 79 -33.5 116.5t-104.5 37.5z" />
    <glyph glyph-name="Scaron" unicode="&#x160;" horiz-adv-x="522" 
d="M257 -8q-71 0 -114.5 12.5t-73.5 29.5l14 39q34 -17 75 -28.5t99 -11.5q37 0 69 8.5t54.5 26t35.5 44.5t13 65q0 39 -14 63t-38 39.5t-55 25.5t-64 21q-34 11 -68 25.5t-61 36t-44 53t-17 75.5q0 34 11 64.5t35.5 53t63 35.5t92.5 13q52 0 94.5 -12t71.5 -27l-13 -35
q-31 15 -72 24t-80 9q-84 0 -121 -35t-37 -93q0 -33 11.5 -55.5t32.5 -39t50 -29t65 -24.5q39 -13 75.5 -27t64.5 -34.5t45 -50.5t17 -76q0 -45 -15.5 -79.5t-44 -58t-68.5 -35.5t-89 -12zM276 743h-30l-117 137h33l99 -99l99 99h33z" />
    <glyph glyph-name="scaron" unicode="&#x161;" horiz-adv-x="422" 
d="M201 31q64 0 94.5 24t30.5 66q0 24 -10 41t-28 30t-42.5 22t-52.5 18q-30 9 -55.5 20.5t-44.5 28t-30 38.5t-11 53q0 30 12 52.5t33.5 37.5t50.5 22t62 7q43 0 79 -9t64 -21l-12 -37q-26 12 -60 20t-71 8q-54 0 -84 -19t-30 -57q0 -44 32.5 -67.5t80.5 -36.5
q79 -23 120 -57t41 -94t-42 -94.5t-127 -34.5q-42 0 -82 9.5t-66 21.5l12 36q24 -11 61 -19.5t75 -8.5zM226 547h-30l-117 137h33l99 -99l99 99h33z" />
    <glyph glyph-name="Ydieresis" unicode="&#x178;" horiz-adv-x="547" 
d="M274 322l205 352h50l-232 -394v-280h-47v280l-232 394h50l205 -352h1zM178 855q17 0 27 -10.5t10 -24.5t-10 -24.5t-27 -10.5t-27 10.5t-10 24.5t10 24.5t27 10.5zM368 855q17 0 27 -10.5t10 -24.5t-10 -24.5t-27 -10.5t-27 10.5t-10 24.5t10 24.5t27 10.5z" />
    <glyph glyph-name="Zcaron" unicode="&#x17d;" horiz-adv-x="540" 
d="M48 35l381 597h-355v42h411v-36l-380 -596h387v-42h-444v35zM285 743h-30l-117 137h33l99 -99l99 99h33z" />
    <glyph glyph-name="zcaron" unicode="&#x17e;" horiz-adv-x="441" 
d="M42 27l290 418h-267v38h324v-27l-290 -418h298v-38h-355v27zM235 547h-30l-117 137h33l99 -99l99 99h33z" />
    <glyph glyph-name="florin" unicode="&#x192;" horiz-adv-x="546" 
d="M235 359h-94v38h99l13 92q10 77 47.5 123t112.5 46q26 0 47.5 -5.5t38.5 -14.5l-15 -33q-14 7 -32.5 10.5t-35.5 3.5q-60 0 -85 -34t-33 -97l-13 -91h149v-38h-154l-36 -266q-11 -77 -48 -123t-112 -46q-26 0 -47.5 5.5t-38.5 14.5l15 33q14 -7 32.5 -10.5t35.5 -3.5
q60 0 84.5 34t33.5 97z" />
    <glyph glyph-name="circumflex" unicode="&#x2c6;" horiz-adv-x="280" 
d="M272 549h-33l-99 99l-99 -99h-33l117 137h30z" />
    <glyph glyph-name="caron" unicode="&#x2c7;" horiz-adv-x="280" 
d="M155 547h-30l-117 137h33l99 -99l99 99h33z" />
    <glyph glyph-name="breve" unicode="&#x2d8;" horiz-adv-x="280" 
d="M140 602q42 0 68.5 21t34.5 56h27q-3 -23 -13.5 -43t-27.5 -35t-39.5 -24t-49.5 -9t-49.5 9t-39.5 24t-27.5 35t-13.5 43h27q8 -35 34.5 -56t68.5 -21z" />
    <glyph glyph-name="dotaccent" unicode="&#x2d9;" horiz-adv-x="280" 
d="M140 668q19 0 29.5 -11t10.5 -27t-10.5 -27t-29.5 -11t-29.5 11t-10.5 27t10.5 27t29.5 11z" />
    <glyph glyph-name="ring" unicode="&#x2da;" horiz-adv-x="280" 
d="M88 628q0 -26 15 -41t37 -15t37 15t15 41t-15 41t-37 15t-37 -15t-15 -41zM59 628q0 34 23.5 57.5t57.5 23.5t57.5 -23.5t23.5 -57.5t-23.5 -57.5t-57.5 -23.5t-57.5 23.5t-23.5 57.5z" />
    <glyph glyph-name="ogonek" unicode="&#x2db;" horiz-adv-x="280" 
d="M122 2h25l64 -93h-49z" />
    <glyph glyph-name="tilde" unicode="&#x2dc;" horiz-adv-x="280" 
d="M204 563q-22 0 -38 7.5t-29.5 17t-26.5 17t-29 7.5q-27 0 -38.5 -14t-13.5 -35h-33q2 34 25 58t55 24q22 0 37.5 -7.5t29 -17t26.5 -17t30 -7.5q27 0 38.5 14t13.5 35h33q-2 -34 -25 -58t-55 -24z" />
    <glyph glyph-name="hungarumlaut" unicode="&#x2dd;" horiz-adv-x="280" 
d="M130 680h41l-89 -125h-25zM270 680h41l-89 -125h-25z" />
    <glyph glyph-name="uni03A9" unicode="&#x3a9;" horiz-adv-x="730" 
d="M365 639q-57 0 -102.5 -17.5t-77.5 -52t-49 -85t-17 -115.5q0 -59 18.5 -110t46.5 -93.5t60 -75.5t59 -55v-35h-192v41h138q-25 25 -56 59.5t-58 77.5t-45 95t-18 112q0 68 20.5 123t58.5 93.5t92 59.5t122 21q67 0 121.5 -21t92.5 -59.5t58.5 -93.5t20.5 -123
q0 -60 -18.5 -112t-45.5 -95t-58 -77.5t-56 -59.5h139v-41h-193v35q27 22 59.5 55t60 75.5t46.5 93.5t19 110q0 65 -17 115.5t-49 85t-77.5 52t-102.5 17.5z" />
    <glyph glyph-name="pi" unicode="&#x3c0;" horiz-adv-x="592" 
d="M552 12q-11 -8 -30.5 -13t-41.5 -5q-30 0 -49.5 11.5t-31 30.5t-16 44t-4.5 52v310h-167v-265q0 -47 -8 -93t-20 -84h-45q14 44 20.5 84.5t6.5 92.5v265q-41 -1 -71.5 -6.5t-52.5 -13.5l-6 41q20 8 52.5 14t77.5 6h385v-41h-126v-318q0 -44 14 -69.5t48 -25.5
q17 0 31.5 4.5t22.5 9.5z" />
    <glyph glyph-name="uni0E00" unicode="&#xe00;" horiz-adv-x="195" 
 />
    <glyph glyph-name="uni0E01" unicode="&#xe01;" horiz-adv-x="593" 
d="M463 0v354q0 78 -45 125.5t-130 47.5q-66 0 -112 -33t-69 -79l94 -74v-9q-34 -12 -52 -39t-18 -62v-231h-47v225q0 38 16.5 68.5t48.5 44.5l-93 72q10 29 31 57.5t51.5 51t68.5 36t81 13.5q53 0 94 -16.5t69.5 -45t43.5 -67.5t15 -85v-354h-47z" />
    <glyph glyph-name="uni0E02" unicode="&#xe02;" horiz-adv-x="542" 
d="M73 256q0 29 16 54.5t35 50t35 49t16 51.5v29q0 16 -6.5 23.5t-23.5 7.5h-66v39h66q40 0 57.5 -19t17.5 -52v-28q0 -30 -15.5 -55.5t-34.5 -50t-34.5 -49t-15.5 -50.5v-80q0 -81 37 -112t109 -31t109 31t37 112v384h47v-383q0 -97 -49.5 -141t-143.5 -44t-143.5 44
t-49.5 141v79z" />
    <glyph glyph-name="uni0E03" unicode="&#xe03;" horiz-adv-x="548" 
d="M234 462q0 -30 -17 -56t-38 -51t-38 -50t-17 -51v-78q0 -81 37 -112t109 -31t109 31t37 112v384h47v-383q0 -97 -49.5 -141t-143.5 -44t-143.5 44t-49.5 141v77q0 29 17.5 55t38.5 51t38.5 50t17.5 52v29q0 32 -27 32q-17 0 -28 -11.5t-18 -28.5l-74 45v40l66 -41
q22 37 62 37q64 0 64 -73v-29z" />
    <glyph glyph-name="uni0E04" unicode="&#xe04;" horiz-adv-x="612" 
d="M130 215q15 38 51 64t86 26h63v-43h-63q-53 0 -87.5 -31.5t-49.5 -83.5v-147h-47v356q0 44 14 82.5t42 67.5t70 45.5t97 16.5t97 -16.5t70 -45.5t42 -67.5t14 -82.5v-356h-47v356q0 77 -44.5 124t-131.5 47t-131.5 -46.5t-44.5 -123.5v-142z" />
    <glyph glyph-name="uni0E05" unicode="&#xe05;" horiz-adv-x="618" 
d="M131 0h-47v410q0 70 31.5 107.5t91.5 50.5l102 -71l102 71q60 -13 91.5 -50.5t31.5 -107.5v-410h-47v411q0 49 -19.5 77.5t-53.5 37.5l-105 -71l-105 71q-34 -9 -53.5 -37.5t-19.5 -77.5v-196q15 38 51 64t86 26h63v-43h-63q-53 0 -87.5 -31.5t-49.5 -83.5v-147z" />
    <glyph glyph-name="uni0E06" unicode="&#xe06;" horiz-adv-x="592" 
d="M132 171q13 -29 32 -54.5t44 -44t54.5 -29t62.5 -10.5q75 0 106 45t31 123v359h47v-360q0 -102 -43.5 -155t-131.5 -53q-61 0 -113.5 27t-86.5 86l-7 -105h-42v254q0 29 16 55t35 51t35 50t16 52v29q0 32 -27 32q-17 0 -28 -11.5t-18 -28.5l-74 45v40l66 -41q22 37 62 37
q64 0 64 -73v-29q0 -30 -15.5 -56t-34.5 -51t-34.5 -50t-15.5 -51v-83z" />
    <glyph glyph-name="uni0E07" unicode="&#xe07;" horiz-adv-x="542" 
d="M191 0l-175 560h45l165 -519h12q39 0 75 18.5t63.5 53t44 84t16.5 110.5q0 57 -11.5 98.5t-32 68.5t-47 40t-56.5 13q-21 0 -36 -3.5t-28 -8.5l-7 38q13 6 33.5 10.5t39.5 4.5q42 0 77.5 -16.5t61 -49t39.5 -81.5t14 -114q0 -74 -19 -131t-52.5 -96t-79 -59.5
t-97.5 -20.5h-45z" />
    <glyph glyph-name="uni0E08" unicode="&#xe08;" horiz-adv-x="531" 
d="M196 0l-59 249q-6 25 -31 25h-39v39h40q38 0 53 -14.5t21 -40.5l52 -219h17q34 0 66 17t57.5 50t41 82t15.5 114q0 108 -49.5 166.5t-143.5 58.5q-65 0 -110 -19t-84 -45l-15 34q37 29 90.5 50t119.5 21q57 0 101.5 -19t75 -54t46.5 -84t16 -108q0 -66 -17.5 -122
t-49 -96t-74.5 -62.5t-94 -22.5h-46z" />
    <glyph glyph-name="uni0E09" unicode="&#xe09;" horiz-adv-x="581" 
d="M48 274v39h31q36 0 52 -16.5t16 -46.5v-87q0 -35 5 -60t18 -40.5t35 -22.5t56 -7q33 0 62 11t53 29.5t43 43.5t32 54v170q0 87 -45 136.5t-136 49.5q-65 0 -115.5 -18.5t-89.5 -44.5l-19 36q38 26 93.5 47t129.5 21q57 0 100 -17t71.5 -47.5t43 -72t14.5 -90.5v-341h-42
l-7 105q-34 -57 -85 -85t-112 -28q-78 0 -115 38t-37 132v88q0 24 -21 24h-31z" />
    <glyph glyph-name="uni0E0A" unicode="&#xe0a;" horiz-adv-x="544" 
d="M461 177q0 -97 -50 -141t-144 -44t-144 44t-50 141v79q0 29 16 54.5t35 50t35 49t16 51.5v29q0 16 -6.5 23.5t-23.5 7.5h-66v39h66q40 0 57.5 -19t17.5 -52v-28q0 -30 -15.5 -55.5t-34.5 -50t-34.5 -49t-15.5 -50.5v-80q0 -81 37.5 -112t109.5 -31t109.5 31t37.5 112v115
q0 45 -22 71t-57 26h-24l-7 20l113 152h52l-109 -142q48 -5 74.5 -40.5t26.5 -85.5v-115z" />
    <glyph glyph-name="uni0E0B" unicode="&#xe0b;" horiz-adv-x="548" 
d="M124 176q0 -81 37.5 -112t109.5 -31t109.5 31t37.5 112v115q0 45 -22 71t-57 26h-24l-7 20l113 152h52l-109 -142q48 -5 74.5 -40.5t26.5 -85.5v-115q0 -97 -50 -141t-144 -44t-144 44t-50 141v77q0 29 17.5 55t38.5 51t38.5 50t17.5 52v29q0 32 -27 32q-17 0 -28 -11.5
t-18 -28.5l-74 45v40l66 -41q22 37 62 37q64 0 64 -73v-29q0 -30 -17 -56t-38 -51t-38 -50t-17 -51v-78z" />
    <glyph glyph-name="uni0E0C" unicode="&#xe0c;" horiz-adv-x="911" 
d="M781 560h47v-376q0 -43 -8 -78.5t-26 -60.5t-46.5 -39t-69.5 -14q-60 0 -110.5 29.5t-78.5 83.5l-7 -105h-42v354q0 78 -39 125.5t-120 47.5q-62 0 -106.5 -33t-67.5 -79l94 -74v-9q-34 -12 -52 -39t-18 -62v-157q0 -35 34 -35h53v-39h-57q-35 0 -56 18t-21 54v153
q0 38 16.5 68.5t48.5 44.5l-93 72q10 29 30.5 57.5t50 51t66 36t78.5 13.5q51 0 90 -16.5t64.5 -45t38.5 -67.5t13 -85v-183q13 -29 31.5 -54.5t42 -44t51 -29t59.5 -10.5t53.5 12t34 32.5t17.5 48t5 59.5v375z" />
    <glyph glyph-name="uni0E0D" unicode="&#xe0d;" horiz-adv-x="911" 
d="M777 113q-28 -54 -77.5 -83.5t-104.5 -29.5q-44 0 -74 12.5t-48.5 35t-26.5 54.5t-8 72v180q0 78 -38 125.5t-119 47.5q-62 0 -106.5 -33t-67.5 -79l94 -74v-9q-34 -12 -52 -39t-18 -62v-157q0 -35 34 -35h53v-39h-57q-35 0 -56 18t-21 54v153q0 38 16.5 68.5t48.5 44.5
l-93 72q10 29 30.5 57.5t50 51t66 36t78.5 13.5q51 0 89.5 -16.5t64 -45t38 -67.5t12.5 -85v-179q0 -28 5 -52.5t18 -42.5t35 -28.5t56 -10.5q30 0 57 10.5t50 29t41.5 44t31.5 54.5v381h47v-491q0 -114 -52.5 -165t-139.5 -51q-60 0 -104.5 13.5t-72.5 31.5l12 37
q28 -17 67.5 -29t86.5 -12q76 0 115 39.5t39 136.5v43z" />
    <glyph glyph-name="uni0E0E" unicode="&#xe0e;" horiz-adv-x="598" 
d="M515 -200h-56q-26 23 -66.5 42t-97.5 19q-46 0 -80.5 -16t-63.5 -44l-13 40q24 25 61 43t97 18q50 0 96.5 -19.5t75.5 -47.5v519q0 78 -44 125.5t-129 47.5q-33 0 -61.5 -10t-52 -26t-41 -36.5t-27.5 -41.5l111 -75v-9q-34 -12 -53.5 -37.5t-19.5 -60.5v-162
q0 -36 -19 -52.5t-54 -16.5h-40v39h36q30 0 30 32v154q0 38 17.5 67t46.5 43l-107 69q10 29 31.5 58.5t52 53t69 38t81.5 14.5q53 0 94 -16.5t69 -45t42.5 -67.5t14.5 -85v-554z" />
    <glyph glyph-name="uni0E0F" unicode="&#xe0f;" horiz-adv-x="598" 
d="M515 -200h-49l-133 80q-17 -42 -49.5 -64t-70.5 -22t-69.5 10t-49.5 22l14 40q19 -13 46.5 -23t56.5 -10q42 0 67.5 29t36.5 75l153 -91v508q0 78 -44 125.5t-129 47.5q-33 0 -61.5 -10t-52 -26t-41 -36.5t-27.5 -41.5l111 -75v-9q-34 -12 -53.5 -37.5t-19.5 -60.5v-162
q0 -36 -19 -52.5t-54 -16.5h-40v39h36q30 0 30 32v154q0 38 17.5 67t46.5 43l-107 69q10 29 31.5 58.5t52 53t69 38t81.5 14.5q53 0 94 -16.5t69 -45t42.5 -67.5t14.5 -85v-554z" />
    <glyph glyph-name="uni0E10" unicode="&#xe10;" horiz-adv-x="531" 
d="M196 0l-59 249q-6 25 -31 25h-39v39h40q38 0 53 -14.5t21 -40.5l52 -219h17q34 0 66 17t57.5 50t41 82t15.5 114q0 102 -49.5 163.5t-143.5 61.5q-65 0 -110.5 -18t-83.5 -46l-15 34q37 29 90.5 50t119.5 21q39 0 72 -10t60 -27l61 68h54l-83 -93q37 -36 56 -88t19 -115
q0 -66 -17.5 -122t-49 -96t-74.5 -62.5t-94 -22.5h-46zM352 -200q-62 0 -104 52q-36 -52 -103 -52h-61v39h68q33 0 58.5 18.5t38.5 44.5q15 -26 39.5 -44.5t59.5 -18.5h50v59h41v-98h-87z" />
    <glyph glyph-name="uni0E11" unicode="&#xe11;" horiz-adv-x="600" 
d="M234 493q26 29 63.5 52t84.5 23q28 0 52.5 -10t42.5 -31.5t28.5 -55.5t10.5 -83v-388h-47v387q0 78 -22.5 109t-67.5 31q-36 0 -79 -27t-80.5 -69.5t-62.5 -95.5t-25 -105v-230h-47v224q0 40 10 75t25.5 64.5t33.5 53t35 40.5v34q0 32 -27 32q-17 0 -28 -11.5t-18 -28.5
l-74 45v40l66 -41q22 37 62 37q64 0 64 -71z" />
    <glyph glyph-name="uni0E12" unicode="&#xe12;" horiz-adv-x="972" 
d="M528 171q13 -29 31.5 -54.5t42 -44t51.5 -29t60 -10.5q72 0 100.5 45t28.5 123v359h47v-360q0 -102 -41 -155t-126 -53q-59 0 -108.5 27t-83.5 86l-7 -105h-42v419q0 49 -17 74t-49 33l-86 -59l-81 56q-29 -6 -56 -25.5t-47 -52t-32 -76.5t-12 -98q0 -56 12.5 -100
t34.5 -74t53 -46t68 -16q42 0 71 14l8 -36q-33 -19 -84 -19q-43 0 -81 18t-66.5 52.5t-45.5 85.5t-17 118q0 66 15.5 117.5t42 89t61.5 61t74 32.5l82 -61l82 61q55 -11 86 -45.5t31 -104.5v-247z" />
    <glyph glyph-name="uni0E13" unicode="&#xe13;" horiz-adv-x="911" 
d="M784 0l-7 105q-28 -54 -77.5 -83.5t-104.5 -29.5q-44 0 -74 12.5t-48.5 35t-26.5 54.5t-8 72v188q0 78 -38 125.5t-119 47.5q-62 0 -106.5 -33t-67.5 -79l94 -74v-9q-34 -12 -52 -39t-18 -62v-157q0 -35 34 -35h53v-39h-57q-35 0 -56 18t-21 54v153q0 38 16.5 68.5
t48.5 44.5l-93 72q10 29 30.5 57.5t50 51t66 36t78.5 13.5q51 0 89.5 -16.5t64 -45t38 -67.5t12.5 -85v-187q0 -28 5 -52.5t18 -42.5t35 -28.5t56 -10.5q30 0 57 10.5t50 29t41.5 44t31.5 54.5v389h47v-560h-42z" />
    <glyph glyph-name="uni0E14" unicode="&#xe14;" horiz-adv-x="609" 
d="M479 0v343q0 83 -42 133.5t-128 50.5q-53 0 -92.5 -20.5t-65 -56t-38 -82t-12.5 -98.5q0 -62 14.5 -106.5t38.5 -73.5t55.5 -43t64.5 -14q20 0 34.5 3t28.5 8l8 -34q-31 -16 -75 -16q-40 0 -78.5 16t-69 49.5t-49.5 86t-19 125.5q0 60 16.5 114t48.5 94.5t79.5 64.5
t109.5 24q55 0 96 -18t68 -48.5t40.5 -72t13.5 -87.5v-342h-47z" />
    <glyph glyph-name="uni0E15" unicode="&#xe15;" horiz-adv-x="618" 
d="M331 507l84 61q55 -11 87 -45.5t32 -104.5v-418h-47v419q0 49 -18 74t-50 33l-88 -59l-83 56q-29 -6 -56 -25.5t-47 -52t-32 -76.5t-12 -98q0 -56 12.5 -100t34.5 -74t53 -46t68 -16q22 0 38.5 3.5t32.5 11.5l8 -36q-34 -20 -84 -20q-43 0 -81 18t-66.5 52.5t-45.5 85.5
t-17 118q0 66 15.5 117.5t42 89t61.5 61t74 32.5z" />
    <glyph glyph-name="uni0E16" unicode="&#xe16;" horiz-adv-x="594" 
d="M218 39v-39h-57q-35 0 -56 18t-21 54v153q0 38 16.5 68.5t48.5 44.5l-93 72q10 29 31 57.5t51.5 51t68.5 36t81 13.5q53 0 94.5 -16.5t70 -45t43.5 -67.5t15 -85v-354h-47v354q0 78 -45.5 125.5t-130.5 47.5q-66 0 -112 -33t-69 -79l94 -74v-9q-34 -12 -52 -39t-18 -62
v-157q0 -35 34 -35h53z" />
    <glyph glyph-name="uni0E17" unicode="&#xe17;" horiz-adv-x="605" 
d="M475 373q0 78 -29.5 116t-98.5 38q-31 0 -62 -10.5t-59.5 -28.5t-53 -42.5t-40.5 -52.5v-393h-47v560h42l7 -105q41 50 96 81.5t122 31.5q84 0 127 -48t43 -146v-374h-47v373z" />
    <glyph glyph-name="uni0E18" unicode="&#xe18;" horiz-adv-x="540" 
d="M482 144q0 -45 -11.5 -74.5t-36.5 -47t-66 -24t-99 -6.5q-59 0 -99 8t-65.5 26.5t-36.5 49.5t-11 77v45h45v-45q0 -36 8 -59.5t27.5 -37.5t51.5 -19.5t80 -5.5q49 0 81.5 4.5t52 17t27 34.5t7.5 57v52q0 40 -19 59t-57 25l-171 25q-66 11 -101.5 41.5t-35.5 89.5
q0 60 47 96t148 36q63 0 115.5 -11t89.5 -28l-10 -36q-36 17 -85.5 26.5t-108.5 9.5q-82 0 -116.5 -24t-34.5 -69q0 -41 23 -61.5t71 -28.5l173 -27q67 -11 92 -42t25 -82v-51z" />
    <glyph glyph-name="uni0E19" unicode="&#xe19;" horiz-adv-x="592" 
d="M130 193q0 -78 27.5 -119t102.5 -41q33 0 63.5 11t56.5 29.5t46.5 43.5t33.5 54v389h47v-560h-42l-7 105q-34 -57 -90 -85t-117 -28q-168 0 -168 200v368h47v-367z" />
    <glyph glyph-name="uni0E1A" unicode="&#xe1a;" horiz-adv-x="590" 
d="M295 33q85 0 125 42t40 122v363h47v-363q0 -100 -52.5 -152.5t-159.5 -52.5t-159.5 52.5t-52.5 152.5v363h47v-363q0 -80 40 -122t125 -42z" />
    <glyph glyph-name="uni0E1B" unicode="&#xe1b;" horiz-adv-x="590" 
d="M295 33q85 0 125 42t40 122v553h47v-553q0 -100 -52.5 -152.5t-159.5 -52.5t-159.5 52.5t-52.5 152.5v363h47v-363q0 -80 40 -122t125 -42z" />
    <glyph glyph-name="uni0E1C" unicode="&#xe1c;" horiz-adv-x="640" 
d="M482 136q8 -16 18 -41.5t16 -43.5h1q-4 28 -6 56t-2 55v398h46v-560h-52l-153 299q-11 22 -17.5 39t-9.5 31h-2q-3 -14 -9.5 -31t-17.5 -39l-157 -299h-52v488q0 36 21 54t56 18h51v-39h-47q-16 0 -25.5 -9t-9.5 -26v-324q0 -27 -2 -55t-6 -56h1q6 18 16.5 43.5
t18.5 41.5l141 267h44z" />
    <glyph glyph-name="uni0E1D" unicode="&#xe1d;" horiz-adv-x="640" 
d="M482 136q8 -16 18 -41.5t16 -43.5h1q-4 28 -6 56t-2 55v588h46v-750h-52l-153 299q-11 22 -17.5 39t-9.5 31h-2q-3 -14 -9.5 -31t-17.5 -39l-157 -299h-52v488q0 36 21 54t56 18h51v-39h-47q-16 0 -25.5 -9t-9.5 -26v-324q0 -27 -2 -55t-6 -56h1q6 18 16.5 43.5
t18.5 41.5l141 267h44z" />
    <glyph glyph-name="uni0E1E" unicode="&#xe1e;" horiz-adv-x="672" 
d="M484 142q7 -21 12.5 -42.5t10.5 -49.5h2q1 29 2.5 51t5.5 48l66 411h47l-91 -560h-53l-130 395q-6 19 -11 40t-8 48h-2q-3 -27 -8 -48t-11 -40l-130 -395h-53l-91 560h47l66 -411q4 -26 5.5 -48t2.5 -51h2q5 28 10.5 49.5t12.5 42.5l127 390h42z" />
    <glyph glyph-name="uni0E1F" unicode="&#xe1f;" horiz-adv-x="672" 
d="M498 142q7 -21 12.5 -42.5t10.5 -49.5h2q1 29 2.5 51t5.5 48l71 601h45l-92 -750h-53l-139 395q-6 19 -11 40t-8 48h-2q-3 -27 -8 -48t-11 -40l-137 -395h-53l-91 560h47l66 -411q4 -26 5.5 -48t2.5 -51h2q5 28 10.5 49.5t12.5 42.5l135 390h42z" />
    <glyph glyph-name="uni0E20" unicode="&#xe20;" horiz-adv-x="598" 
d="M151 69q0 -36 -19 -52.5t-54 -16.5h-40v39h36q30 0 30 32v154q0 38 17.5 67t46.5 43l-107 69q10 29 31.5 58.5t52 53t69 38t81.5 14.5q53 0 94 -16.5t69 -45t42.5 -67.5t14.5 -85v-354h-47v354q0 78 -44 125.5t-129 47.5q-33 0 -61.5 -10t-52 -26t-41 -36.5t-27.5 -41.5
l111 -75v-9q-34 -12 -53.5 -37.5t-19.5 -60.5v-162z" />
    <glyph glyph-name="uni0E21" unicode="&#xe21;" horiz-adv-x="592" 
d="M462 560h47v-360q0 -102 -43.5 -155t-131.5 -53q-61 0 -113.5 27t-86.5 86l-7 -105h-42v560h47v-389q13 -29 32 -54.5t44 -44t54.5 -29t62.5 -10.5q75 0 106 45t31 123v359z" />
    <glyph glyph-name="uni0E22" unicode="&#xe22;" horiz-adv-x="569" 
d="M274 33q85 0 125 42t40 122v363h47v-363q0 -100 -52.5 -152.5t-159.5 -52.5q-48 0 -88 11t-69.5 32.5t-46 54t-16.5 75.5q0 54 25 93.5t78 57.5q-54 14 -78.5 45t-24.5 77q0 54 33.5 91t96.5 37q25 0 46.5 -5t34.5 -10l-7 -37q-11 6 -30 9.5t-39 3.5q-45 0 -67.5 -25
t-22.5 -66q0 -23 10.5 -40.5t27.5 -30t38 -19t42 -6.5h71l4 -42h-61q-28 0 -51.5 -10t-41 -28t-27.5 -42.5t-10 -52.5q0 -35 14 -60t38 -41t55.5 -23.5t65.5 -7.5z" />
    <glyph glyph-name="uni0E23" unicode="&#xe23;" horiz-adv-x="483" 
d="M232 31q154 0 154 113q0 30 -15 51t-38.5 35.5t-52 24t-55.5 17.5q-30 9 -60 20.5t-54 29t-39 43t-15 63.5q0 66 46.5 103t136.5 37q52 0 95 -11.5t72 -25.5l-11 -36q-29 14 -65.5 24t-85.5 10q-76 0 -109.5 -26t-33.5 -73q0 -29 11 -48t30.5 -32.5t45.5 -22.5t56 -18
q27 -8 59.5 -19.5t60.5 -30.5t47 -48t19 -71q0 -68 -48 -108t-148 -40q-57 0 -107 13t-78 30l13 37q26 -17 71.5 -29t97.5 -12z" />
    <glyph glyph-name="uni0E24" unicode="&#xe24;" horiz-adv-x="594" 
d="M218 39v-39h-57q-35 0 -56 18t-21 54v153q0 38 16.5 68.5t48.5 44.5l-93 72q10 29 31 57.5t51.5 51t68.5 36t81 13.5q53 0 94.5 -16.5t70 -45t43.5 -67.5t15 -85v-554h-47v554q0 78 -45.5 125.5t-130.5 47.5q-66 0 -112 -33t-69 -79l94 -74v-9q-34 -12 -52 -39t-18 -62
v-157q0 -35 34 -35h53z" />
    <glyph glyph-name="uni0E25" unicode="&#xe25;" horiz-adv-x="560" 
d="M430 0v292h-146q-93 0 -144 -31t-51 -107q0 -33 11 -56t29.5 -38t42.5 -22t50 -7t45.5 4.5t36.5 12.5l9 -36q-17 -10 -41.5 -15t-51.5 -5q-36 0 -68.5 10t-57 30t-38.5 50t-14 71q0 178 243 178h145v35q0 79 -36.5 120t-116.5 41q-60 0 -107 -16.5t-83 -41.5l-16 36
q32 23 85 43t120 20q97 0 149 -53.5t52 -147.5v-367h-47z" />
    <glyph glyph-name="uni0E26" unicode="&#xe26;" horiz-adv-x="614" 
d="M151 69q0 -36 -19 -52.5t-54 -16.5h-40v39h36q30 0 30 32v154q0 38 17.5 67t46.5 43l-107 69q10 29 31.5 58.5t52 53t69 38t81.5 14.5q53 0 94 -16.5t69 -45t42.5 -67.5t14.5 -85v-554h-47v554q0 78 -44 125.5t-129 47.5q-33 0 -61.5 -10t-52 -26t-41 -36.5t-27.5 -41.5
l111 -75v-9q-34 -12 -53.5 -37.5t-19.5 -60.5v-162z" />
    <glyph glyph-name="uni0E27" unicode="&#xe27;" horiz-adv-x="500" 
d="M51 74q28 -17 69 -29t90 -12q91 0 140 58.5t49 190.5q0 119 -46 182t-142 63q-50 0 -92.5 -14.5t-71.5 -32.5l-11 37q29 18 76 34.5t100 16.5q56 0 99.5 -20t73.5 -57t45.5 -90t15.5 -119q0 -146 -59.5 -218t-171.5 -72q-60 0 -103.5 13t-72.5 30z" />
    <glyph glyph-name="uni0E28" unicode="&#xe28;" horiz-adv-x="612" 
d="M130 215q15 38 51 64t86 26h63v-43h-63q-53 0 -87.5 -31.5t-49.5 -83.5v-147h-47v356q0 44 14 82.5t42 67.5t70 45.5t97 16.5q39 0 72 -9.5t59 -26.5l60 67h54l-83 -93q30 -29 45.5 -68.5t15.5 -83.5v-354h-47v354q0 38 -11.5 70t-33.5 55t-55 35.5t-76 12.5
q-87 0 -131.5 -46.5t-44.5 -123.5v-142z" />
    <glyph glyph-name="uni0E29" unicode="&#xe29;" horiz-adv-x="602" 
d="M507 197q0 -100 -52.5 -152.5t-159.5 -52.5t-159.5 52.5t-52.5 152.5v363h47v-363q0 -80 40 -122t125 -42t125 42t40 122v116h-139v39h139v208h47v-208h79l-10 -39h-69v-116z" />
    <glyph glyph-name="uni0E2A" unicode="&#xe2a;" horiz-adv-x="560" 
d="M430 0v292h-146q-93 0 -144 -31t-51 -107q0 -33 11 -56t29.5 -38t42.5 -22t50 -7t45.5 4.5t36.5 12.5l9 -36q-17 -10 -41.5 -15t-51.5 -5q-36 0 -68.5 10t-57 30t-38.5 50t-14 71q0 178 243 178h145v33q0 79 -36.5 121t-116.5 42q-60 0 -107 -16.5t-83 -41.5l-16 36
q32 23 85 43t120 20q35 0 65.5 -8.5t53.5 -24.5l58 64h54l-81 -90q51 -56 51 -144v-365h-47z" />
    <glyph glyph-name="uni0E2B" unicode="&#xe2b;" horiz-adv-x="571" 
d="M479 0l-71 255q-17 55 -46.5 82t-86.5 30l-143 -119v-248h-47v560h47v-259l309 259h67l-194 -161q57 -10 90 -43.5t50 -95.5l73 -260h-48z" />
    <glyph glyph-name="uni0E2C" unicode="&#xe2c;" horiz-adv-x="640" 
d="M555 0h-52l-157 299q-11 22 -17.5 39t-9.5 31h-2q-3 -14 -9.5 -31t-17.5 -39l-153 -299h-52v560h46v-398q0 -27 -2 -55t-6 -56h1q6 18 16 43.5t18 41.5l138 267h44l141 -267q8 -16 18.5 -41.5t16.5 -43.5h1q-4 28 -6 56t-2 55v284q0 45 -22 69.5t-57 24.5h-24l-7 20
l129 190h52l-127 -182q49 -5 76 -38t26 -82v-448z" />
    <glyph glyph-name="uni0E2D" unicode="&#xe2d;" horiz-adv-x="570" 
d="M151 274q-22 0 -35.5 -14.5t-13.5 -40.5v-31q0 -72 40.5 -113.5t126.5 -41.5q102 0 151 58t49 183q0 126 -54 189.5t-151 63.5q-54 0 -101 -18t-83 -45l-18 35q36 26 88 47.5t118 21.5q59 0 105.5 -20.5t78 -59t48 -93.5t16.5 -124q0 -137 -59.5 -208t-187.5 -71
q-104 0 -158.5 52.5t-54.5 143.5v32q0 42 24 67.5t69 25.5h87v-39h-85z" />
    <glyph glyph-name="uni0E2E" unicode="&#xe2e;" horiz-adv-x="570" 
d="M151 274q-22 0 -35.5 -14.5t-13.5 -40.5v-31q0 -72 40.5 -113.5t126.5 -41.5q102 0 151 58t49 183q0 126 -54 189.5t-151 63.5q-54 0 -101 -18t-83 -45l-18 35q36 26 88 47.5t118 21.5q69 0 123 -31l56 62h54l-77 -85q45 -38 68.5 -100t23.5 -143q0 -137 -59.5 -208
t-187.5 -71q-104 0 -158.5 52.5t-54.5 143.5v32q0 42 24 67.5t69 25.5h87v-39h-85z" />
    <glyph glyph-name="uni0E2F" unicode="&#xe2f;" horiz-adv-x="516" 
d="M384 0v433q-10 -22 -27.5 -41.5t-40.5 -34.5t-51.5 -24t-61.5 -9q-43 0 -73 14t-48.5 39.5t-27 61t-8.5 77.5v44h45v-45q0 -80 29 -117.5t88 -37.5q37 0 70 16t57.5 40.5t39 55t14.5 60.5v28h42v-560h-47z" />
    <glyph glyph-name="uni0E30" unicode="&#xe30;" horiz-adv-x="283" 
d="M126 393q-36 0 -58 16.5t-22 52.5v30h45v-23q0 -20 9 -28.5t32 -8.5h101v-39h-107zM126 96q-36 0 -58 16.5t-22 52.5v30h45v-23q0 -20 9 -28.5t32 -8.5h101v-39h-107z" />
    <glyph glyph-name="uni0E31" unicode="&#xe31;" 
d="M-192 644q-36 0 -58 16.5t-22 52.5v36h45v-29q0 -20 9 -28.5t32 -8.5h249v-39h-255z" />
    <glyph glyph-name="uni0E32" unicode="&#xe32;" horiz-adv-x="452" 
d="M322 0v370q0 84 -33.5 120.5t-99.5 36.5q-48 0 -90.5 -16.5t-73.5 -39.5l-13 36q29 23 75.5 42t98.5 19q93 0 138 -52t45 -150v-366h-47z" />
    <glyph glyph-name="uni0E33" unicode="&#xe33;" horiz-adv-x="452" 
d="M322 0v370q0 84 -33.5 120.5t-99.5 36.5q-48 0 -90.5 -16.5t-73.5 -39.5l-13 36q29 23 75.5 42t98.5 19q93 0 138 -52t45 -150v-366h-47zM-157 705q0 -23 15 -36.5t33 -13.5t33 13.5t15 36.5t-15 36.5t-33 13.5t-33 -13.5t-15 -36.5zM-27 705q0 -36 -24 -59.5t-58 -23.5
t-58 23.5t-24 59.5t24 59.5t58 23.5t58 -23.5t24 -59.5z" />
    <glyph glyph-name="uni0E34" unicode="&#xe34;" 
d="M-495 644v39h412v-39h-412z" />
    <glyph glyph-name="uni0E35" unicode="&#xe35;" 
d="M-495 644v39h367v99h45v-138h-412z" />
    <glyph glyph-name="uni0E36" unicode="&#xe36;" 
d="M-212 717q0 31 21.5 52.5t50.5 21.5q30 0 51.5 -21.5t21.5 -52.5q0 -30 -21.5 -51.5t-51.5 -21.5h-355v39h296q-5 6 -9 15.5t-4 18.5zM-175 717q0 -17 10.5 -27t24.5 -10q15 0 25.5 10t10.5 27q0 18 -10.5 28t-25.5 10q-14 0 -24.5 -10t-10.5 -28z" />
    <glyph glyph-name="uni0E37" unicode="&#xe37;" 
d="M-495 644v39h277v99h43v-101h49v101h43v-138h-412z" />
    <glyph glyph-name="uni0E38" unicode="&#xe38;" 
d="M-128 -235v91q0 16 -6.5 22t-19.5 6h-30v37h35q32 0 49 -15.5t17 -51.5v-89h-45z" />
    <glyph glyph-name="uni0E39" unicode="&#xe39;" 
d="M-299 -116h-45v37h90v-73q0 -34 15.5 -46t47.5 -12t47.5 12t15.5 46v73h45v-73q0 -95 -108 -95t-108 95v36z" />
    <glyph glyph-name="uni0E3A" unicode="&#xe3a;" 
d="M-156 -118q0 19 13.5 32.5t33.5 13.5t33.5 -13.5t13.5 -32.5t-13.5 -32.5t-33.5 -13.5t-33.5 13.5t-13.5 32.5z" />
    <glyph glyph-name="uni0E3F" unicode="&#xe3f;" horiz-adv-x="546" 
d="M276 0h-191v650h191v100h35v-101q78 -7 122.5 -48t44.5 -112q0 -29 -9 -54.5t-24.5 -45t-36 -32.5t-42.5 -18q28 -3 53.5 -14.5t45 -31.5t31 -48t11.5 -64q0 -75 -48 -124.5t-148 -56.5v-100h-35v100zM276 42v274h-144v-274h144zM276 356v252h-144v-252h144zM459 181
q0 70 -39.5 99.5t-108.5 34.5v-272q77 5 112.5 40t35.5 98zM430 489q0 55 -31 84t-88 34v-250q54 7 86.5 39.5t32.5 92.5z" />
    <glyph glyph-name="uni0E40" unicode="&#xe40;" horiz-adv-x="220" 
d="M87 0v560h46v-560h-46z" />
    <glyph glyph-name="uni0E41" unicode="&#xe41;" horiz-adv-x="416" 
d="M87 0v560h46v-560h-46zM283 0v560h46v-560h-46z" />
    <glyph glyph-name="uni0E42" unicode="&#xe42;" horiz-adv-x="248" 
d="M112 0v616q0 44 -12 76t-29 54.5t-36.5 37t-34.5 23.5l-2 16q32 52 87 81.5t124 29.5q53 0 87.5 -9t57.5 -18l-11 -38q-26 11 -61.5 17.5t-68.5 6.5q-51 0 -93 -17.5t-73 -55.5q57 -31 84 -87.5t27 -124.5v-608h-46z" />
    <glyph glyph-name="uni0E43" unicode="&#xe43;" horiz-adv-x="248" 
d="M112 0v552q0 40 19 73.5t41.5 64t41.5 59t19 60.5q0 35 -23 59.5t-73 24.5q-40 0 -77 -18.5t-67 -50.5l-16 32q12 14 28.5 28t37 25t44.5 18t51 7q35 0 61.5 -10.5t44 -28t26.5 -40.5t9 -47q0 -42 -19 -72.5t-41.5 -60t-41.5 -61.5t-19 -75v-539h-46z" />
    <glyph glyph-name="uni0E44" unicode="&#xe44;" horiz-adv-x="248" 
d="M112 0v689q0 60 22.5 112t70.5 81h-245v39h300v-38q-49 -27 -75.5 -73.5t-26.5 -100.5v-709h-46z" />
    <glyph glyph-name="uni0E45" unicode="&#xe45;" horiz-adv-x="452" 
d="M322 -200v570q0 84 -33.5 120.5t-99.5 36.5q-48 0 -90.5 -16.5t-73.5 -39.5l-13 36q29 23 75.5 42t98.5 19q93 0 138 -52t45 -150v-566h-47z" />
    <glyph glyph-name="uni0E46" unicode="&#xe46;" horiz-adv-x="546" 
d="M414 -200v621q0 41 -18.5 69t-48.5 32l-88 -61l-87 62q-13 -1 -25.5 -7.5t-22.5 -17.5t-16.5 -25t-6.5 -30q0 -42 24 -64.5t65 -22.5q20 0 40 6l8 -35q-24 -9 -53 -9q-23 0 -46.5 6.5t-42 21t-30.5 38.5t-12 59q0 25 11 46.5t29 38t40.5 27t45.5 13.5l78 -61l81 61
q57 -6 89.5 -44t32.5 -109v-615h-47z" />
    <glyph glyph-name="uni0E47" unicode="&#xe47;" 
d="M-188 644q-18 0 -39 9.5t-28 34.5q-6 -25 -28 -36t-45 -11q-43 0 -66.5 24.5t-23.5 58.5q0 16 6 32t17.5 29t29.5 20.5t42 7.5h207v-36h-204q-26 0 -41 -14.5t-15 -39.5q0 -20 14.5 -34.5t35.5 -14.5q23 0 35.5 10.5t17.5 27.5h35q5 -17 18 -23.5t28 -6.5h76v-38h-72z
" />
    <glyph glyph-name="uni0E48" unicode="&#xe48;" 
d="M-127 837v122h43v-122h-43z" />
    <glyph glyph-name="uni0E49" unicode="&#xe49;" 
d="M-12 873v-36h-141q-46 0 -46 42v31q0 19 -19 19h-44v35h60q21 0 33 -10t12 -36v-31q0 -14 14 -14h131z" />
    <glyph glyph-name="uni0E4A" unicode="&#xe4a;" 
d="M-114 837l-3 10q3 4 6 15t3 18q0 12 -6.5 25.5t-15.5 16.5l-49 -30l-48 32q-5 -2 -8 -7.5t-5.5 -12.5t-3.5 -13.5t-1 -10.5q0 -11 1.5 -23t5.5 -22h-37q-5 9 -7 23.5t-2 23.5q0 28 17 48t46 28l43 -31l46 32q25 -2 42 -22t17 -45q0 -5 -1 -15.5t-3 -16.5q22 9 33 24.5
t11 44.5q0 11 -3.5 23t-6.5 18h41q3 -6 6.5 -16.5t3.5 -25.5t-6.5 -31.5t-19 -29.5t-31.5 -21.5t-43 -8.5h-22z" />
    <glyph glyph-name="uni0E4B" unicode="&#xe4b;" 
d="M-200 940l75 -1l-1 70h41l-1 -70l76 1v-33l-76 1l1 -71h-41l1 71l-75 -1v33z" />
    <glyph glyph-name="uni0E4C" unicode="&#xe4c;" 
d="M-114 810q-26 0 -35.5 -11.5t-9.5 -30.5v-22h-44v29q0 31 20.5 51t61.5 20h95v-36h-88z" />
    <glyph glyph-name="uni0E4D" unicode="&#xe4d;" 
d="M-157 705q0 -23 15 -36.5t33 -13.5t33 13.5t15 36.5t-15 36.5t-33 13.5t-33 -13.5t-15 -36.5zM-27 705q0 -36 -24 -59.5t-58 -23.5t-58 23.5t-24 59.5t24 59.5t58 23.5t58 -23.5t24 -59.5z" />
    <glyph glyph-name="uni0E4E" unicode="&#xe4e;" 
d="M-179 653q-9 -5 -19.5 -7t-25.5 -2q-16 0 -31 5t-27 15t-19.5 24.5t-7.5 32.5q0 15 6 29t19 24.5t33.5 15.5t48.5 1q-11 9 -15 18.5t-4 21.5q0 18 15.5 35t47.5 17h45l8 -31h-41q-23 0 -31 -9.5t-8 -20.5q0 -9 6 -21.5t18 -19.5l-9 -23q-10 3 -22 5t-25 2
q-24 0 -37 -13.5t-13 -30.5q0 -20 14 -32.5t39 -12.5q18 0 35 4v-27z" />
    <glyph glyph-name="uni0E4F" unicode="&#xe4f;" horiz-adv-x="546" 
d="M273 26q-44 0 -83 17t-68 46t-45.5 68t-16.5 83t16.5 83t45.5 68t68 45.5t83 16.5t83 -16.5t68 -45.5t45.5 -68t16.5 -83t-16.5 -83t-45.5 -68t-68 -46t-83 -17zM273 54q39 0 72.5 14.5t59 40t40 59t14.5 72.5q0 38 -14.5 72t-40 59.5t-59 40t-72.5 14.5q-38 0 -72 -14.5
t-59.5 -40t-40 -59.5t-14.5 -72q0 -39 14.5 -72.5t40 -59t59.5 -40t72 -14.5zM273 126q-24 0 -45 9t-36.5 24.5t-24.5 36t-9 43.5q0 24 9 45t24.5 36.5t36.5 24.5t44 9q24 0 45 -9t36.5 -24.5t24.5 -36t9 -44.5t-9 -45t-24.5 -36t-36.5 -24t-44 -9zM273 162q32 0 54 22.5
t22 55.5q0 31 -22.5 53.5t-54.5 22.5q-31 0 -54 -22.5t-23 -54.5q0 -15 6 -29t16.5 -24.5t25 -17t30.5 -6.5z" />
    <glyph glyph-name="uni0E50" unicode="&#xe50;" horiz-adv-x="626" 
d="M314 491q54 0 101 -18t82 -51t55 -79t20 -101q0 -56 -20 -102t-55 -79t-82 -51t-101 -18q-55 0 -102.5 18t-82.5 51t-55 79t-20 102q0 55 20 101t55 79t82.5 51t102.5 18zM313 30q45 0 84 15t67.5 42.5t45 66.5t16.5 88t-16.5 88t-45 66.5t-67.5 42t-84 14.5t-84 -14.5
t-67.5 -42t-45 -66.5t-16.5 -88t16.5 -88t45 -66.5t67.5 -42.5t84 -15z" />
    <glyph glyph-name="uni0E51" unicode="&#xe51;" horiz-adv-x="641" 
d="M269 -75h24q44 0 87 14.5t77.5 47t55.5 84t21 125.5q0 55 -13 102t-40.5 81.5t-69 54t-98.5 19.5q-46 0 -85 -15.5t-67 -43t-44 -66t-16 -84.5q0 -41 12 -72t33.5 -53t50.5 -33t64 -11q17 0 37 5t37 13l5 -37q-17 -9 -38.5 -15t-44.5 -6q-40 0 -76.5 14t-64 40.5
t-43.5 65.5t-16 90q0 54 19 99t52.5 77.5t81 51t104.5 18.5q67 0 117 -24t83 -64t49.5 -93.5t16.5 -111.5q0 -75 -23 -132.5t-63 -97.5t-93.5 -60.5t-113.5 -20.5h-21z" />
    <glyph glyph-name="uni0E52" unicode="&#xe52;" horiz-adv-x="735" 
d="M655 184q0 -41 -12 -74.5t-35 -58t-57 -38t-78 -13.5h-211q-44 0 -77.5 13.5t-56.5 38t-34.5 58t-11.5 74.5v376h46v-376q0 -77 38.5 -111.5t100.5 -34.5h200q63 0 102.5 34.5t39.5 111.5v147q0 62 -23 88.5t-59 30.5l-96 -76l-99 73q-35 -8 -55 -35.5t-20 -62.5
q0 -48 28.5 -74.5t71.5 -39.5l-16 -35q-57 12 -92.5 49.5t-35.5 97.5t33 97t88 47l97 -76l88 76q72 -9 104 -48.5t32 -114.5v-144z" />
    <glyph glyph-name="uni0E53" unicode="&#xe53;" horiz-adv-x="648" 
d="M310 192v152q0 44 -17.5 74.5t-61.5 30.5q-30 0 -53 -16.5t-38.5 -45.5t-23.5 -67.5t-8 -81.5q0 -48 9 -86.5t24.5 -65.5t37 -41.5t47.5 -14.5q29 0 52 13l10 -32q-12 -9 -29.5 -13t-35.5 -4q-33 0 -62.5 16.5t-51 48t-34.5 76.5t-13 102q0 54 11.5 100t33.5 80.5t52 54
t68 19.5t66 -20t39 -55q16 35 46 55t68 20q35 0 58.5 -13t37.5 -34.5t20 -51t6 -62.5v-330h-46v332q0 21 -2 42t-9.5 37.5t-23 27t-41.5 10.5q-45 0 -70 -30t-25 -75v-152h-41z" />
    <glyph glyph-name="uni0E54" unicode="&#xe54;" horiz-adv-x="587" 
d="M491 0q-36 0 -68 11.5t-55 34.5q-18 -23 -46.5 -38.5t-69.5 -15.5q-42 0 -78 16.5t-63 48t-42 75.5t-15 100q0 59 19 105.5t53 79t81 49.5t103 17h129q44 0 64 16t20 46v15h44v-15q0 -53 -31.5 -76.5t-96.5 -23.5h-128q-45 0 -84 -14t-67 -41t-44 -66t-16 -89
q0 -48 12.5 -86.5t34.5 -64.5t50.5 -40t61.5 -14q32 0 52.5 12.5t34.5 32.5q-20 35 -20 84q0 54 32 90t89 36h54l-7 -36h-47q-38 0 -57.5 -27t-19.5 -63q0 -32 10 -55.5t27 -38.5t39.5 -22t48.5 -7h58l-6 -36h-56z" />
    <glyph glyph-name="uni0E55" unicode="&#xe55;" horiz-adv-x="587" 
d="M203 521q0 33 23 56t55 23t54.5 -23t22.5 -56q0 -20 -10 -38h91q44 0 64 16t20 46v15h44v-15q0 -53 -31.5 -76.5t-96.5 -23.5h-128q-45 0 -84 -14t-67 -41t-44 -66t-16 -89q0 -48 12.5 -86.5t34.5 -64.5t50.5 -40t61.5 -14q32 0 52.5 12.5t34.5 32.5q-20 35 -20 84
q0 54 32 90t89 36h54l-7 -36h-47q-38 0 -57.5 -27t-19.5 -63q0 -32 10 -55.5t27 -38.5t39.5 -22t48.5 -7h58l-6 -36h-56q-36 0 -68 11.5t-55 34.5q-18 -23 -46.5 -38.5t-69.5 -15.5q-42 0 -78 16.5t-63 48t-42 75.5t-15 100q0 94 45.5 155t122.5 84q-19 21 -19 50zM238 521
q0 -20 12.5 -32t30.5 -12q17 0 29 12.5t12 32.5t-12 32t-29 12q-18 0 -30.5 -12.5t-12.5 -32.5z" />
    <glyph glyph-name="uni0E56" unicode="&#xe56;" horiz-adv-x="601" 
d="M143 237q-11 -13 -18 -31t-7 -37q0 -26 10.5 -50.5t32.5 -44.5t56 -32t80 -12q54 0 92.5 17t63.5 46t36.5 68t11.5 84q0 46 -12.5 84.5t-36 66t-58.5 42.5t-80 15q-69 0 -111 -26.5t-69 -63.5h-43l-71 205h43l56 -170q33 45 81.5 69t114.5 24q50 0 92.5 -18.5t73.5 -51
t48.5 -78t17.5 -99.5q0 -51 -14 -97t-44 -80.5t-77 -54.5t-113 -20q-56 0 -98 14.5t-70 38.5t-42.5 56.5t-14.5 68.5q0 29 9 52.5t25 39.5z" />
    <glyph glyph-name="uni0E57" unicode="&#xe57;" horiz-adv-x="789" 
d="M288 300v44q0 22 -2 41t-9 33.5t-20.5 22.5t-35.5 8q-27 0 -48 -16.5t-35.5 -45.5t-22 -67.5t-7.5 -81.5q0 -48 9 -86.5t24.5 -65.5t37 -41.5t47.5 -14.5q29 0 52 13l10 -32q-12 -9 -29.5 -13t-35.5 -4q-33 0 -62.5 16.5t-51 48t-34.5 76.5t-13 102q0 54 11.5 100
t31.5 80.5t48.5 54t63.5 19.5q70 0 93 -71q32 71 102 71q32 0 53.5 -13t34.5 -34.5t18.5 -51t5.5 -62.5v-288h29q50 0 80 25.5t30 88.5v404h46v-400q0 -75 -39 -117.5t-118 -42.5h-74v332q0 21 -1.5 42t-8 37.5t-20 27t-36.5 10.5q-38 0 -60.5 -30t-22.5 -75v-44h-41z" />
    <glyph glyph-name="uni0E58" unicode="&#xe58;" horiz-adv-x="615" 
d="M431 483q44 0 64 16t20 46v15h44v-15q0 -53 -31.5 -76.5t-96.5 -23.5h-137q-87 0 -130.5 -44t-43.5 -118v-128q0 -51 27.5 -82t69.5 -33l109 109l117 -107q36 12 61 45t25 77t-23 70.5t-58 39.5l18 36q24 -5 44.5 -19.5t34.5 -34.5t22 -45t8 -50q0 -32 -12 -60.5
t-31.5 -51t-44 -37t-50.5 -16.5l-111 103l-97 -103q-70 4 -112.5 44t-42.5 113v136q0 40 15 75.5t43 61.5t67.5 41.5t88.5 15.5h143z" />
    <glyph glyph-name="uni0E59" unicode="&#xe59;" horiz-adv-x="591" 
d="M100 246q0 -48 9.5 -87.5t26 -68t38.5 -44.5t48 -16q29 0 52 13l10 -32q-12 -9 -29.5 -13t-35.5 -4q-33 0 -63 18t-52.5 50.5t-36 79t-13.5 103.5q0 54 11.5 99t34 77.5t55 51t74.5 18.5q24 0 42.5 -7.5t33 -19t24.5 -25.5t16 -28q5 36 28.5 58t55.5 22q37 0 59 -23.5
t30 -53.5l26 146h37l-38 -200h-37q-7 45 -28 71t-47 26q-33 0 -50 -28.5t-17 -66.5l126 -362h-41l-127 361q-6 16 -13.5 32.5t-18.5 30t-26 21.5t-35 8q-30 0 -54 -15t-40.5 -42.5t-25.5 -65.5t-9 -84z" />
    <glyph glyph-name="uni0E5B" unicode="&#xe5b;" horiz-adv-x="1119" 
d="M1089 199q-18 -8 -33 -11.5t-33 -3.5q-45 0 -78 35t-58 91l-49 -186h-20l-75 224l-68 -242h-21l-72 226q-15 -55 -41 -104t-62 -86.5t-81 -59.5t-99 -22q-48 0 -90.5 17.5t-74 48t-50 72t-18.5 89.5q0 46 14 84.5t40 67t63 44.5t82 16q39 0 69.5 -14t52 -37t34 -53
t15.5 -63h-37q-4 27 -14 51t-26.5 41.5t-40 28t-54.5 10.5q-37 0 -65.5 -14t-48.5 -38t-30.5 -56t-10.5 -68q0 -41 15 -75t40.5 -59.5t60.5 -39.5t74 -14q60 0 106.5 33t79.5 83.5t51.5 109.5t22.5 111h25l82 -257l63 236h26l71 -224l57 202h18q5 -38 16 -70t27 -55.5
t37 -36.5t47 -13q24 0 50 10z" />
    <glyph glyph-name="endash" unicode="&#x2013;" horiz-adv-x="506" 
d="M470 278v-37h-434v37h434z" />
    <glyph glyph-name="emdash" unicode="&#x2014;" horiz-adv-x="972" 
d="M896 278v-37h-820v37h820z" />
    <glyph glyph-name="quoteleft" unicode="&#x2018;" horiz-adv-x="183" 
d="M127 671q-14 -28 -23.5 -63.5t-9.5 -65.5q0 -10 1.5 -14t9.5 -4q13 0 21.5 -8.5t8.5 -24.5q0 -15 -9.5 -24.5t-27.5 -9.5q-17 0 -27.5 11t-10.5 34q0 17 4.5 40.5t12 47.5t17 47t18.5 39z" />
    <glyph glyph-name="quoteright" unicode="&#x2019;" horiz-adv-x="183" 
d="M56 470q14 28 23.5 63.5t9.5 65.5q0 10 -1.5 14t-9.5 4q-13 0 -21.5 8.5t-8.5 24.5q0 15 9.5 24.5t27.5 9.5q17 0 27.5 -11t10.5 -34q0 -17 -4.5 -40.5t-12 -47.5t-17 -47t-18.5 -39z" />
    <glyph glyph-name="quotesinglbase" unicode="&#x201a;" horiz-adv-x="183" 
d="M56 -111q14 28 23.5 63.5t9.5 65.5q0 10 -1.5 14t-9.5 4q-13 0 -21.5 8.5t-8.5 24.5q0 15 9.5 24.5t27.5 9.5q17 0 27.5 -11t10.5 -34q0 -17 -4.5 -40.5t-12 -47.5t-17 -47t-18.5 -39z" />
    <glyph glyph-name="quotedblleft" unicode="&#x201c;" horiz-adv-x="326" 
d="M270 671q-14 -28 -23.5 -63.5t-9.5 -65.5q0 -10 1.5 -14t9.5 -4q13 0 21.5 -8.5t8.5 -24.5q0 -15 -9.5 -24.5t-27.5 -9.5q-17 0 -27.5 11t-10.5 34q0 17 4.5 40.5t12 47.5t17 47t18.5 39zM127 671q-14 -28 -23.5 -63.5t-9.5 -65.5q0 -10 1.5 -14t9.5 -4q13 0 21.5 -8.5
t8.5 -24.5q0 -15 -9.5 -24.5t-27.5 -9.5q-17 0 -27.5 11t-10.5 34q0 17 4.5 40.5t12 47.5t17 47t18.5 39z" />
    <glyph glyph-name="quotedblright" unicode="&#x201d;" horiz-adv-x="326" 
d="M56 470q14 28 23.5 63.5t9.5 65.5q0 10 -1.5 14t-9.5 4q-13 0 -21.5 8.5t-8.5 24.5q0 15 9.5 24.5t27.5 9.5q17 0 27.5 -11t10.5 -34q0 -17 -4.5 -40.5t-12 -47.5t-17 -47t-18.5 -39zM199 470q14 28 23.5 63.5t9.5 65.5q0 10 -1.5 14t-9.5 4q-13 0 -21.5 8.5t-8.5 24.5
q0 15 9.5 24.5t27.5 9.5q17 0 27.5 -11t10.5 -34q0 -17 -4.5 -40.5t-12 -47.5t-17 -47t-18.5 -39z" />
    <glyph glyph-name="quotedblbase" unicode="&#x201e;" horiz-adv-x="326" 
d="M56 -111q14 28 23.5 63.5t9.5 65.5q0 10 -1.5 14t-9.5 4q-13 0 -21.5 8.5t-8.5 24.5q0 15 9.5 24.5t27.5 9.5q17 0 27.5 -11t10.5 -34q0 -17 -4.5 -40.5t-12 -47.5t-17 -47t-18.5 -39zM199 -111q14 28 23.5 63.5t9.5 65.5q0 10 -1.5 14t-9.5 4q-13 0 -21.5 8.5t-8.5 24.5
q0 15 9.5 24.5t27.5 9.5q17 0 27.5 -11t10.5 -34q0 -17 -4.5 -40.5t-12 -47.5t-17 -47t-18.5 -39z" />
    <glyph glyph-name="dagger" unicode="&#x2020;" horiz-adv-x="528" 
d="M286 674v-204h174v-28h-174v-442h-44v442h-174v28h174v204h44z" />
    <glyph glyph-name="daggerdbl" unicode="&#x2021;" horiz-adv-x="528" 
d="M242 -50v204h-174v28h174v260h-174v28h174v204h44v-204h174v-28h-174v-260h174v-28h-174v-204h-44z" />
    <glyph glyph-name="bullet" unicode="&#x2022;" horiz-adv-x="290" 
d="M56 352q0 36 22 62.5t67 26.5t67 -26.5t22 -62.5t-22 -62.5t-67 -26.5t-67 26.5t-22 62.5z" />
    <glyph glyph-name="ellipsis" unicode="&#x2026;" horiz-adv-x="648" 
d="M66 33q0 17 10.5 29t31.5 12t31.5 -12t10.5 -29t-10.5 -29t-31.5 -12t-31.5 12t-10.5 29zM282 33q0 17 10.5 29t31.5 12t31.5 -12t10.5 -29t-10.5 -29t-31.5 -12t-31.5 12t-10.5 29zM498 33q0 17 10.5 29t31.5 12t31.5 -12t10.5 -29t-10.5 -29t-31.5 -12t-31.5 12
t-10.5 29z" />
    <glyph glyph-name="perthousand" unicode="&#x2030;" horiz-adv-x="1086" 
d="M534 660h42l-366 -660h-42zM89 484q0 -27 6 -52.5t18 -45t30 -31.5t42 -12t42 12t30 31.5t18 45t6 52.5t-6 52.5t-18 45t-30 31.5t-42 12t-42 -12t-30 -31.5t-18 -45t-6 -52.5zM50 484q0 33 9 64.5t26 56t42.5 39t57.5 14.5t57 -14.5t42.5 -39t26.5 -56t9 -64.5t-9 -64.5
t-26.5 -56t-42.5 -39t-57 -14.5t-57.5 14.5t-42.5 39t-26 56t-9 64.5zM463 166q0 -27 6 -52.5t18 -45t30 -31.5t42 -12t42 12t30 31.5t18 45t6 52.5t-6 52.5t-18 45t-30 31.5t-42 12t-42 -12t-30 -31.5t-18 -45t-6 -52.5zM424 166q0 33 9 64.5t26 56t42.5 39t57.5 14.5
t57 -14.5t42.5 -39t26.5 -56t9 -64.5t-9 -64.5t-26.5 -56t-42.5 -39t-57 -14.5t-57.5 14.5t-42.5 39t-26 56t-9 64.5zM805 166q0 -27 6 -52.5t18 -45t30 -31.5t42 -12t42 12t30 31.5t18 45t6 52.5t-6 52.5t-18 45t-30 31.5t-42 12t-42 -12t-30 -31.5t-18 -45t-6 -52.5z
M766 166q0 33 9 64.5t26 56t42.5 39t57.5 14.5t57 -14.5t42.5 -39t26.5 -56t9 -64.5t-9 -64.5t-26.5 -56t-42.5 -39t-57 -14.5t-57.5 14.5t-42.5 39t-26 56t-9 64.5z" />
    <glyph glyph-name="guilsinglleft" unicode="&#x2039;" horiz-adv-x="262" 
d="M173 420h43l-130 -178l130 -178h-43l-133 178z" />
    <glyph glyph-name="guilsinglright" unicode="&#x203a;" horiz-adv-x="262" 
d="M222 242l-133 -178h-43l130 178l-130 178h43z" />
    <glyph glyph-name="fraction" unicode="&#x2044;" horiz-adv-x="408" 
d="M366 660h42l-366 -660h-42z" />
    <glyph glyph-name="Euro" unicode="&#x20ac;" horiz-adv-x="546" 
d="M132 419q8 48 26.5 95.5t49 84.5t73 60t98.5 23q44 0 74.5 -15.5t53.5 -36.5l-11 -35q-44 44 -112 44q-47 0 -82 -18.5t-60 -49t-40.5 -70t-22.5 -82.5h236l-11 -34h-230q-1 -12 -1.5 -24t-0.5 -24q0 -27 3 -52h240l-11 -34h-224q9 -47 27.5 -86.5t45.5 -68.5t62 -45.5
t77 -16.5q35 0 62 11.5t50 33.5l12 -36q-23 -23 -52 -37.5t-77 -14.5q-53 0 -96 21t-75 57t-53 83t-30 99h-90l11 34h73q-2 13 -2 25.5v26.5q0 11 0.5 23t1.5 25h-84l11 34h78z" />
    <glyph glyph-name="afii61289" unicode="&#x2113;" horiz-adv-x="380" 
d="M168 288q36 29 61 58t40.5 61t22 69t6.5 82q0 59 -17 78.5t-42 19.5q-38 0 -54.5 -39.5t-16.5 -127.5v-201zM122 217q-14 -14 -37 -29t-51 -31l-16 28q50 26 104 72v232q0 45 6.5 82.5t21 64.5t36.5 42.5t52 15.5q48 0 77 -34.5t29 -100.5q0 -96 -43 -173.5t-133 -141.5
v-106q0 -52 12.5 -79.5t52.5 -27.5q17 0 30 3.5t24 8.5l11 -34q-11 -6 -29 -11t-40 -5q-47 0 -77 32.5t-30 112.5v79z" />
    <glyph glyph-name="trademark" unicode="&#x2122;" horiz-adv-x="764" 
d="M295 639l-117 1v-345h-41v345l-117 -1v35h275v-35zM515 365l-76 172q-11 25 -20 48.5t-14 43.5h-3q1 -10 1.5 -23.5t1 -27.5t0.5 -27.5v-22.5v-233h-41v379h54l95 -217q5 -10 12.5 -28t12.5 -36h2q5 18 12.5 36t12.5 28l95 217h54v-379h-41v233v22.5t0.5 27.5t1 27.5
t1.5 23.5h-3q-5 -20 -14 -43.5t-20 -48.5l-76 -172h-48z" />
    <glyph glyph-name="Omega" unicode="&#x2126;" horiz-adv-x="730" 
d="M365 639q-57 0 -102.5 -17.5t-77.5 -52t-49 -85t-17 -115.5q0 -59 18.5 -110t46.5 -93.5t60 -75.5t59 -55v-35h-192v41h138q-25 25 -56 59.5t-58 77.5t-45 95t-18 112q0 68 20.5 123t58.5 93.5t92 59.5t122 21q67 0 121.5 -21t92.5 -59.5t58.5 -93.5t20.5 -123
q0 -60 -18.5 -112t-45.5 -95t-58 -77.5t-56 -59.5h139v-41h-193v35q27 22 59.5 55t60 75.5t46.5 93.5t19 110q0 65 -17 115.5t-49 85t-77.5 52t-102.5 17.5z" />
    <glyph glyph-name="estimated" unicode="&#x212e;" horiz-adv-x="818" 
d="M782 309h-610v-183q9 -11 31.5 -30t54 -37t70.5 -31.5t80 -13.5q43 0 81.5 12t69.5 29t53.5 36.5t33.5 34.5h72q-57 -69 -139 -104t-170 -35q-77 0 -145 24.5t-118.5 69t-80 106.5t-29.5 136q0 73 29.5 135t80 106.5t118.5 69.5t145 25t145 -24.5t118.5 -68.5t80 -104
t29.5 -131v-22zM646 519q-11 15 -33.5 34.5t-54 37t-69.5 29t-81 11.5q-41 0 -80 -13.5t-70.5 -31.5t-54 -37t-31.5 -30v-182h474v182z" />
    <glyph glyph-name="partialdiff" unicode="&#x2202;" horiz-adv-x="586" 
d="M306 387q-52 0 -91 -22t-65.5 -57.5t-39.5 -79t-13 -86.5q0 -56 30 -85.5t87 -29.5q39 0 76.5 19.5t69.5 53t56 79t37 97.5q-10 20 -23 40t-31 35.5t-41 25.5t-52 10zM345 623q-68 0 -122 -30l-6 34q26 13 61 22t77 9q87 0 132 -50t45 -147q0 -43 -8.5 -94.5
t-26.5 -103.5t-45 -101t-63 -86.5t-82 -60.5t-101 -23q-39 0 -68.5 12t-49 33t-29 49t-9.5 61q0 49 18 98.5t50.5 88.5t78.5 63.5t102 24.5q34 0 61 -10t48 -26t35.5 -35.5t23.5 -38.5q8 38 13 76.5t5 72.5q0 78 -35.5 120t-104.5 42z" />
    <glyph glyph-name="Delta" unicode="&#x2206;" horiz-adv-x="614" 
d="M320 674l254 -674h-534l255 674h25zM100 42h414l-207 556z" />
    <glyph glyph-name="product" unicode="&#x220f;" horiz-adv-x="588" 
d="M90 674h408v-722h-47v681h-314v-681h-47v722z" />
    <glyph glyph-name="summation" unicode="&#x2211;" horiz-adv-x="532" 
d="M40 -51v30l274 338l-254 322v35h402v-41h-345l247 -316l-265 -327h383v-41h-442z" />
    <glyph glyph-name="minus" unicode="&#x2212;" horiz-adv-x="546" 
d="M484 264h-422v39h422v-39z" />
    <glyph glyph-name="radical" unicode="&#x221a;" horiz-adv-x="517" 
d="M20 367v39h114l111 -384l185 652h47l-198 -687h-63l-115 380h-81z" />
    <glyph glyph-name="infinity" unicode="&#x221e;" horiz-adv-x="748" 
d="M359 312q-29 51 -70 80t-86 29q-52 0 -80 -32.5t-28 -77.5q0 -51 31 -81.5t79 -30.5q23 0 44.5 10t41 25.5t37 36t31.5 41.5zM653 311q0 45 -27 77.5t-81 32.5q-48 0 -84.5 -29.5t-73.5 -81.5q32 -51 72 -81t86 -30q27 0 47 9.5t33.5 25t20.5 35.5t7 42zM690 312
q0 -30 -10 -56t-28 -44.5t-44 -29.5t-58 -11q-51 0 -96 33.5t-76 81.5q-18 -23 -38.5 -44t-43 -36.5t-47 -25t-51.5 -9.5q-30 0 -55.5 10t-44.5 28t-29.5 43.5t-10.5 57.5q0 62 39.5 100.5t101.5 38.5q28 0 53 -9t47 -25t40.5 -36.5t34.5 -42.5q13 18 31 38t40 36.5
t47.5 27.5t55.5 11t56 -10t45 -28.5t30 -43.5t11 -55z" />
    <glyph glyph-name="integral" unicode="&#x222b;" horiz-adv-x="406" 
d="M180 537q0 80 30 112.5t77 32.5q22 0 40 -5t29 -11l-11 -34q-11 5 -24 8.5t-30 3.5q-40 0 -52.5 -27.5t-12.5 -79.5v-444q0 -40 -8 -67.5t-22.5 -45t-34 -25t-42.5 -7.5q-22 0 -40 5t-29 11l11 34q11 -5 24 -8.5t30 -3.5q40 0 52.5 27.5t12.5 79.5v444z" />
    <glyph glyph-name="approxequal" unicode="&#x2248;" horiz-adv-x="546" 
d="M187 438q32 0 53 -9.5t39 -21t35.5 -21t42.5 -9.5q38 0 63.5 18.5t42.5 42.5l20 -20q-9 -14 -22 -28t-29.5 -25.5t-35 -19t-37.5 -7.5q-33 0 -54.5 9.5t-39 21t-35 21t-41.5 9.5q-38 0 -63.5 -18.5t-42.5 -42.5l-20 20q9 13 22 27.5t29.5 26t34.5 19t38 7.5zM187 248
q32 0 53 -9.5t39 -21t35.5 -21t42.5 -9.5q38 0 63.5 18.5t42.5 42.5l20 -20q-9 -14 -22 -28t-29.5 -25.5t-35 -19t-37.5 -7.5q-33 0 -54.5 9.5t-39 21t-35 21t-41.5 9.5q-38 0 -63.5 -18.5t-42.5 -42.5l-20 20q9 13 22 27.5t29.5 26t34.5 19t38 7.5z" />
    <glyph glyph-name="notequal" unicode="&#x2260;" horiz-adv-x="546" 
d="M472 174h-222l-69 -174h-31l69 174h-145v39h160l62 156h-222v39h238l68 170h32l-68 -170h128v-39h-144l-62 -156h206v-39z" />
    <glyph glyph-name="lessequal" unicode="&#x2264;" horiz-adv-x="546" 
d="M60 315l406 231v-46l-356 -200l356 -200v-46l-406 231v30zM466 0h-406v31h406v-31z" />
    <glyph glyph-name="greaterequal" unicode="&#x2265;" horiz-adv-x="546" 
d="M486 285l-406 -231v46l356 200l-356 200v46l406 -231v-30zM486 0h-406v31h406v-31z" />
    <glyph glyph-name="lozenge" unicode="&#x25ca;" horiz-adv-x="568" 
d="M284 45l196 297l-196 297l-198 -297zM269 684h30l229 -342l-229 -342h-30l-229 342z" />
    <glyph glyph-name="uni0E10.alt1" unicode="&#xf700;" horiz-adv-x="531" 
d="M196 0l-59 249q-6 25 -31 25h-39v39h40q38 0 53 -14.5t21 -40.5l52 -219h17q34 0 66 17t57.5 50t41 82t15.5 114q0 102 -49.5 163.5t-143.5 61.5q-65 0 -110.5 -18t-83.5 -46l-15 34q37 29 90.5 50t119.5 21q39 0 72 -10t60 -27l61 68h54l-83 -93q37 -36 56 -88t19 -115
q0 -66 -17.5 -122t-49 -96t-74.5 -62.5t-94 -22.5h-46z" />
    <glyph glyph-name="uni0E34.alt1" unicode="&#xf701;" 
d="M-555 644v39h362v-39h-362z" />
    <glyph glyph-name="uni0E35.alt1" unicode="&#xf702;" 
d="M-555 644v39h317v99h45v-138h-362z" />
    <glyph glyph-name="uni0E36.alt1" unicode="&#xf703;" 
d="M-322 717q0 31 21.5 52.5t50.5 21.5q30 0 51.5 -21.5t21.5 -52.5q0 -30 -21.5 -51.5t-51.5 -21.5h-305v39h246q-5 6 -9 15.5t-4 18.5zM-285 717q0 -17 10.5 -27t24.5 -10q15 0 25.5 10t10.5 27q0 18 -10.5 28t-25.5 10q-14 0 -24.5 -10t-10.5 -28z" />
    <glyph glyph-name="uni0E37.alt1" unicode="&#xf704;" 
d="M-555 644v39h227v99h43v-101h49v101h43v-138h-362z" />
    <glyph glyph-name="uni0E48.alt1" unicode="&#xf705;" 
d="M-320 644v153h47v-153h-47z" />
    <glyph glyph-name="uni0E49.alt1" unicode="&#xf706;" 
d="M-168 683v-39h-159q-25 0 -39 12.5t-14 35.5v37q0 22 -22 22h-51v38h69q24 0 37.5 -12t13.5 -41v-37q0 -7 3 -11.5t13 -4.5h149z" />
    <glyph glyph-name="uni0E4A.alt1" unicode="&#xf707;" 
d="M-306 644l-3 12q3 4 6.5 16t3.5 21q0 20 -7.5 32t-17.5 16l-56 -34l-51 36q-10 -5 -17 -19.5t-7 -30.5q0 -13 1.5 -26.5t6.5 -24.5h-43q-5 11 -7.5 27t-2.5 26q0 32 19.5 55.5t52.5 31.5l49 -35l53 36q28 -4 47.5 -26t19.5 -50q0 -20 -8 -36q25 11 39 28.5t14 49.5
q0 12 -3.5 26t-7.5 21h47q3 -7 7 -19t4 -29q0 -18 -7.5 -36.5t-22 -33.5t-35.5 -24.5t-49 -9.5h-25z" />
    <glyph glyph-name="uni0E4B.alt1" unicode="&#xf708;" 
d="M-406 764l85 -2l-1 82h45l-1 -82l87 2v-38l-87 1l1 -83h-45l1 83l-85 -1v38z" />
    <glyph glyph-name="uni0E4C.alt1" unicode="&#xf709;" 
d="M-299 718q-27 0 -37 -12t-10 -33v-29h-45v37q0 33 22 54.5t65 21.5h108v-39h-103z" />
    <glyph glyph-name="uni0E48.alt2" unicode="&#xf70a;" 
d="M-130 644v153h47v-153h-47z" />
    <glyph glyph-name="uni0E49.alt2" unicode="&#xf70b;" 
d="M-8 683v-39h-159q-25 0 -39 12.5t-14 35.5v37q0 22 -22 22h-51v38h69q24 0 37.5 -12t13.5 -41v-37q0 -7 3 -11.5t13 -4.5h149z" />
    <glyph glyph-name="uni0E4A.alt2" unicode="&#xf70c;" 
d="M-130 644l-3 12q3 4 6.5 16t3.5 21q0 20 -7.5 32t-17.5 16l-56 -34l-51 36q-10 -5 -17 -19.5t-7 -30.5q0 -13 1.5 -26.5t6.5 -24.5h-43q-5 11 -7.5 27t-2.5 26q0 32 19.5 55.5t52.5 31.5l49 -35l53 36q28 -4 47.5 -26t19.5 -50q0 -20 -8 -36q25 11 39 28.5t14 49.5
q0 12 -3.5 26t-7.5 21h47q3 -7 7 -19t4 -29q0 -18 -7.5 -36.5t-22 -33.5t-35.5 -24.5t-49 -9.5h-25z" />
    <glyph glyph-name="uni0E4B.alt2" unicode="&#xf70d;" 
d="M-216 764l85 -2l-1 82h45l-1 -82l87 2v-38l-87 1l1 -83h-45l1 83l-85 -1v38z" />
    <glyph glyph-name="uni0E4C.alt2" unicode="&#xf70e;" 
d="M-129 718q-27 0 -37 -12t-10 -33v-29h-45v37q0 33 22 54.5t65 21.5h111v-39h-106z" />
    <glyph glyph-name="uni0E0D.alt1" unicode="&#xf70f;" horiz-adv-x="911" 
d="M440 354q0 78 -39 125.5t-120 47.5q-62 0 -106.5 -33t-67.5 -79l94 -74v-9q-34 -12 -52 -39t-18 -62v-157q0 -35 34 -35h53v-39h-57q-35 0 -56 18t-21 54v153q0 38 16.5 68.5t48.5 44.5l-93 72q10 29 30.5 57.5t50 51t66 36t78.5 13.5q51 0 90 -16.5t64.5 -45t38.5 -67.5
t13 -85v-179q0 -73 37.5 -107.5t109.5 -34.5t109.5 34.5t37.5 107.5v385h47v-386q0 -92 -50.5 -137t-143.5 -45t-143.5 45t-50.5 137v180z" />
    <glyph glyph-name="uni0E31.alt1" unicode="&#xf710;" 
d="M-342 644q-36 0 -58 16.5t-22 52.5v36h45v-29q0 -20 9 -28.5t32 -8.5h206v-39h-212z" />
    <glyph glyph-name="uni0E4D.alt1" unicode="&#xf711;" 
d="M-351 705q0 -23 15 -36.5t33 -13.5t33 13.5t15 36.5t-15 36.5t-33 13.5t-33 -13.5t-15 -36.5zM-221 705q0 -36 -24 -59.5t-58 -23.5t-58 23.5t-24 59.5t24 59.5t58 23.5t58 -23.5t24 -59.5z" />
    <glyph glyph-name="uni0E47.alt1" unicode="&#xf712;" 
d="M-264 644q-18 0 -39 9.5t-28 34.5q-6 -25 -28 -36t-45 -11q-43 0 -66.5 24.5t-23.5 58.5q0 16 6 32t17.5 29t29.5 20.5t42 7.5h207v-36h-204q-26 0 -41 -14.5t-15 -39.5q0 -20 14.5 -34.5t35.5 -14.5q23 0 35.5 10.5t17.5 27.5h35q5 -17 18 -23.5t28 -6.5h76v-38h-72z
" />
    <glyph glyph-name="uni0E48.alt3" unicode="&#xf713;" 
d="M-236 837v122h43v-122h-43z" />
    <glyph glyph-name="uni0E49.alt3" unicode="&#xf714;" 
d="M-121 873v-36h-141q-46 0 -46 42v31q0 19 -19 19h-44v35h60q21 0 33 -10t12 -36v-31q0 -14 14 -14h131z" />
    <glyph glyph-name="uni0E4A.alt3" unicode="&#xf715;" 
d="M-223 837l-3 10q3 4 6 15t3 18q0 12 -6.5 25.5t-15.5 16.5l-49 -30l-48 32q-5 -2 -8 -7.5t-5.5 -12.5t-3.5 -13.5t-1 -10.5q0 -11 1.5 -23t5.5 -22h-37q-5 9 -7 23.5t-2 23.5q0 28 17 48t46 28l43 -31l46 32q25 -2 42 -22t17 -45q0 -5 -1 -15.5t-3 -16.5q22 9 33 24.5
t11 44.5q0 11 -3.5 23t-6.5 18h41q3 -6 6.5 -16.5t3.5 -25.5t-6.5 -31.5t-19 -29.5t-31.5 -21.5t-43 -8.5h-22z" />
    <glyph glyph-name="uni0E4B.alt3" unicode="&#xf716;" 
d="M-309 940l75 -1l-1 70h41l-1 -70l76 1v-33l-76 1l1 -71h-41l1 71l-75 -1v33z" />
    <glyph glyph-name="uni0E4C.alt3" unicode="&#xf717;" 
d="M-223 810q-26 0 -35.5 -11.5t-9.5 -30.5v-22h-44v29q0 31 20.5 51t61.5 20h95v-36h-88z" />
    <glyph glyph-name="uni0E38.alt1" unicode="&#xf718;" 
d="M-128 -380v81q0 16 -6.5 22t-19.5 6h-30v37h35q32 0 49 -15.5t17 -51.5v-79h-45z" />
    <glyph glyph-name="uni0E39.alt1" unicode="&#xf719;" 
d="M-299 -271h-45v37h90v-63q0 -34 15.5 -46t47.5 -12t47.5 12t15.5 46v63h45v-63q0 -95 -108 -95t-108 95v26z" />
    <glyph glyph-name="uni0E3A.alt1" unicode="&#xf71a;" 
d="M-156 -276q0 19 13.5 32.5t33.5 13.5t33.5 -13.5t13.5 -32.5t-13.5 -32.5t-33.5 -13.5t-33.5 13.5t-13.5 32.5z" />
    <glyph glyph-name="uni0E0E.alt1" unicode="&#xf71b;" horiz-adv-x="598" 
d="M515 -180h-56q-26 23 -66.5 42t-97.5 19q-46 0 -80.5 -16t-63.5 -44l-13 40q24 25 61 43t97 18q50 0 96.5 -19.5t75.5 -47.5v499q0 78 -44 125.5t-129 47.5q-33 0 -61.5 -10t-52 -26t-41 -36.5t-27.5 -41.5l111 -75v-9q-34 -12 -53.5 -37.5t-19.5 -60.5v-162
q0 -36 -19 -52.5t-54 -16.5h-40v39h36q30 0 30 32v154q0 38 17.5 67t46.5 43l-107 69q10 29 31.5 58.5t52 53t69 38t81.5 14.5q53 0 94 -16.5t69 -45t42.5 -67.5t14.5 -85v-534z" />
    <glyph glyph-name="uni0E0F.alt1" unicode="&#xf71c;" horiz-adv-x="598" 
d="M515 -180h-49l-133 80q-17 -42 -49.5 -64t-70.5 -22t-69.5 10t-49.5 22l14 40q19 -13 46.5 -23t56.5 -10q42 0 67.5 29t36.5 75l153 -91v488q0 78 -44 125.5t-129 47.5q-33 0 -61.5 -10t-52 -26t-41 -36.5t-27.5 -41.5l111 -75v-9q-34 -12 -53.5 -37.5t-19.5 -60.5v-162
q0 -36 -19 -52.5t-54 -16.5h-40v39h36q30 0 30 32v154q0 38 17.5 67t46.5 43l-107 69q10 29 31.5 58.5t52 53t69 38t81.5 14.5q53 0 94 -16.5t69 -45t42.5 -67.5t14.5 -85v-534z" />
    <glyph glyph-name="uni0E2C.alt1" unicode="&#xf71d;" horiz-adv-x="640" 
d="M509 330q0 45 -22 71t-57 26h-24l-7 20l113 152h52l-109 -142q48 -5 74 -40.5t26 -85.5v-331h-52l-157 299q-11 22 -17.5 39t-9.5 31h-2q-3 -14 -9.5 -31t-17.5 -39l-153 -299h-52v560h46v-398q0 -27 -2 -55t-6 -56h1q6 18 16 43.5t18 41.5l138 267h44l141 -267
q8 -16 18.5 -41.5t16.5 -43.5h1q-4 28 -6 56t-2 55v168z" />
    <glyph glyph-name="uni0E33.alt1" horiz-adv-x="452" 
d="M322 0v370q0 84 -33.5 120.5t-99.5 36.5q-48 0 -90.5 -16.5t-73.5 -39.5l-13 36q29 23 75.5 42t98.5 19q93 0 138 -52t45 -150v-366h-47zM-351 705q0 -23 15 -36.5t33 -13.5t33 13.5t15 36.5t-15 36.5t-33 13.5t-33 -13.5t-15 -36.5zM-221 705q0 -36 -24 -59.5t-58 -23.5
t-58 23.5t-24 59.5t24 59.5t58 23.5t58 -23.5t24 -59.5z" />
    <glyph glyph-name="uni0E4E.alt1" 
d="M-249 653q-9 -5 -19.5 -7t-25.5 -2q-16 0 -31 5t-27 15t-19.5 24.5t-7.5 32.5q0 15 6 29t19 24.5t33.5 15.5t48.5 1q-11 9 -15 18.5t-4 21.5q0 18 15.5 35t47.5 17h45l8 -31h-41q-23 0 -31 -9.5t-8 -20.5q0 -9 6 -21.5t18 -19.5l-9 -23q-10 3 -22 5t-25 2
q-24 0 -37 -13.5t-13 -30.5q0 -20 14 -32.5t39 -12.5q18 0 35 4v-27z" />
    </font>
</defs>
</svg>
